<svg xmlns="http://www.w3.org/2000/svg" viewBox="0 0 146.83 93.52"><defs><style>.cls-1{fill:#ccabff;}.cls-2,.cls-5,.cls-9{fill:none;stroke:#000;}.cls-2,.cls-5{stroke-linecap:round;stroke-linejoin:round;}.cls-2{stroke-width:0.74px;}.cls-3{fill:#2e3980;}.cls-4{fill:#fff;}.cls-5,.cls-9{stroke-width:0.66px;}.cls-6{fill:#5e7083;}.cls-7{fill:#fde87b;}.cls-8{fill:#94caff;}.cls-9{stroke-miterlimit:10;}.cls-10{fill:#c8a084;}.cls-11{fill:#e1f4fd;}.cls-12{fill:#b2e0f0;}.cls-13{fill:#002daa;}.cls-14{fill:#d8d8d7;}.cls-15{fill:#0046ff;}</style></defs><g id="레이어_2" data-name="레이어 2"><g id="레이어_1-2" data-name="레이어 1"><path class="cls-1" d="M68.46,62.75A18.9,18.9,0,0,1,66.68,64c-.78.47-2.93,1.72-3.63,2s-2.54,1.16-3.39.95a3.16,3.16,0,0,1-1.81-.87,2.55,2.55,0,0,1-.76-1.62,5.19,5.19,0,0,1,.84-2.62,20.19,20.19,0,0,1,3.26-3.14,12.81,12.81,0,0,1,2.06-1.49l2.84-1.46"/><path class="cls-2" d="M68.46,62.75A18.9,18.9,0,0,1,66.68,64c-.78.47-2.93,1.72-3.63,2s-2.54,1.16-3.39.95a3.16,3.16,0,0,1-1.81-.87,2.55,2.55,0,0,1-.76-1.62,5.19,5.19,0,0,1,.84-2.62,20.19,20.19,0,0,1,3.26-3.14,12.81,12.81,0,0,1,2.06-1.49l2.84-1.46"/><path class="cls-2" d="M59.33,65.67l-.28.31a2.82,2.82,0,0,0-.34.5"/><path class="cls-2" d="M57.78,65.9a7.73,7.73,0,0,1,.29-.88,5.72,5.72,0,0,1,.35-.64"/><path class="cls-3" d="M87.36,37.09s-5.12-.37-4.49-3.1c.28-1.19,1.87-1.34,3.17-1.59,1.66-.31,3.07-.53,3.07-.53a5.3,5.3,0,0,1,1.34-2.26,4.54,4.54,0,0,1,2.64-.8c2.1-.15,3.66.5,3.85,3.7,0,0,4.48,1.26,5.68,2.9.62.85-1.1,1.73-1.69,2.74-1.71,2.94-13.57-1.06-13.57-1.06"/><path class="cls-2" d="M83.86,35.9a1.73,1.73,0,0,1-1.12-1.13c-.18-.89.78-1.48,1.06-1.64a17.84,17.84,0,0,1,4.79-1c.8,0,3.64.06,4.71.12a26.73,26.73,0,0,1,3.74.38,14.7,14.7,0,0,1,4.18,1.52c.83.52,1.65,1.1,1.53,2s-.81.93-1.16,1.08"/><path class="cls-2" d="M89,32a10.12,10.12,0,0,0,.36-1.07,3.29,3.29,0,0,1,2.35-2,4.87,4.87,0,0,1,4,.44,2.94,2.94,0,0,1,1.22,2c0,.42.07,1.11.07,1.11"/><path class="cls-1" d="M61.55,83.29C63,86.4,67.43,88.7,67.43,88.7a3.49,3.49,0,0,0,.69,1.46,6.73,6.73,0,0,0,3,1.08,9.62,9.62,0,0,0,3-.16c.82-.15.9-.51,1.67-.41s3.4.77,4.52.89a43.29,43.29,0,0,1,4.67,1,48.58,48.58,0,0,0,6.9.59c.39-.18.55-.61,1.56-.63s4.45-1.63,5.53-2.25a23.71,23.71,0,0,0,5-5.11,32.6,32.6,0,0,0,2.78-4.68,26.62,26.62,0,0,0,2.2-6.14c.58-2.37,1.43-5.25,1.81-7.32s1.09-5.64,1.14-6.66.11-4.59.14-5.4-.48-4-.54-4.47a30.91,30.91,0,0,0-1.11-4.38,17.7,17.7,0,0,0-3-5.29,34.17,34.17,0,0,0-5.78-4.5,13.17,13.17,0,0,0-5-1.77A35.76,35.76,0,0,0,88.82,34a27.46,27.46,0,0,0-5.66,1,14.89,14.89,0,0,0-3.49,1.72,34.83,34.83,0,0,0-3.61,2.89c-.54.54-2.26,2.37-3,3.08A19.15,19.15,0,0,0,71,45.19a47.4,47.4,0,0,0-2.79,4.51,89.78,89.78,0,0,0-3.41,9.07,60.34,60.34,0,0,0-2.25,7.92c-.57,3.13-1.51,7.45-1.62,8.58s0,6.61.66,8"/><path class="cls-4" d="M89.54,46.43a8,8,0,0,0-2.14.65,2,2,0,0,0-.71,1.32,2.64,2.64,0,0,0,1.36,2.14,5.44,5.44,0,0,0,3,.29c1-.22,2.2-1.09,2.34-2a1.94,1.94,0,0,0-1-2c-.49-.13-2.85-.38-2.85-.38"/><path class="cls-2" d="M61.68,83.69c1.16,3.22,5.75,5,5.75,5a3.49,3.49,0,0,0,.69,1.46,6.73,6.73,0,0,0,3,1.08,9.62,9.62,0,0,0,3-.16c.82-.15.9-.51,1.67-.41s3.4.77,4.52.89a43.29,43.29,0,0,1,4.67,1,19.55,19.55,0,0,0,4.65.54,29.78,29.78,0,0,0,3.81-.58,19.7,19.7,0,0,0,5.16-2,27.2,27.2,0,0,0,3.86-3.42A22.44,22.44,0,0,0,104,85.21a32.6,32.6,0,0,0,2.78-4.68,26.62,26.62,0,0,0,2.2-6.14c.58-2.37,1.43-5.25,1.81-7.32s1.09-5.64,1.14-6.66.11-4.59.14-5.4-.48-4-.54-4.47a30.58,30.58,0,0,0-1.11-4.38,17.7,17.7,0,0,0-3-5.29,33.67,33.67,0,0,0-5.78-4.5,13.17,13.17,0,0,0-5-1.77A35.76,35.76,0,0,0,88.82,34a27.46,27.46,0,0,0-5.66,1,14.89,14.89,0,0,0-3.49,1.72,34.83,34.83,0,0,0-3.61,2.89c-.54.54-2.26,2.36-3,3.08A19.15,19.15,0,0,0,71,45.19a47.4,47.4,0,0,0-2.79,4.51,89.78,89.78,0,0,0-3.41,9.07,59.9,59.9,0,0,0-2.25,7.92c-.57,3.13-1.51,7.45-1.62,8.58S60.76,81.16,61.68,83.69Z"/><line class="cls-2" x1="69.03" y1="89.6" x2="69.36" y2="90.64"/><path class="cls-2" d="M70.91,90.32a2.11,2.11,0,0,0-.09.29c0,.12,0,.4,0,.4"/><path class="cls-2" d="M89.54,46.43a8,8,0,0,0-2.14.65,2,2,0,0,0-.71,1.32,2.64,2.64,0,0,0,1.36,2.14,5.44,5.44,0,0,0,3,.29c1-.22,2.2-1.09,2.34-2a1.94,1.94,0,0,0-1-2C91.9,46.68,89.54,46.43,89.54,46.43Z"/><path d="M89.63,47.21a.92.92,0,0,1-.37-1.52,1.3,1.3,0,0,1,.54-.35c.67-.21,1.45-.29,1.86.25a1.09,1.09,0,0,1,0,1.42,3,3,0,0,1-2,.2h0"/><path d="M93,43.53a.48.48,0,0,0-.18.67.52.52,0,1,0,.83-.62.56.56,0,0,0-.65,0"/><path d="M89.41,42.88a.49.49,0,0,0-.19.68.56.56,0,0,0,.88.09.52.52,0,0,0-.69-.77"/><path class="cls-1" d="M106.43,60.36A18.1,18.1,0,0,1,108.14,59c.75-.51,2.83-1.88,3.51-2.19s2.47-1.3,3.33-1.14a3.1,3.1,0,0,1,1.86.78,2.47,2.47,0,0,1,.84,1.57,5.08,5.08,0,0,1-.7,2.66A19.3,19.3,0,0,1,113.9,64a13.6,13.6,0,0,1-2,1.61c-.26.13-2.76,1.6-2.76,1.6"/><path class="cls-2" d="M106.43,60.36A18.1,18.1,0,0,1,108.14,59c.75-.51,2.83-1.88,3.51-2.19s2.47-1.3,3.33-1.14a3.1,3.1,0,0,1,1.86.78,2.47,2.47,0,0,1,.84,1.57,5.08,5.08,0,0,1-.7,2.66A19.3,19.3,0,0,1,113.9,64a13.6,13.6,0,0,1-2,1.61c-.26.13-2.76,1.6-2.76,1.6"/><path class="cls-2" d="M115.38,57l.27-.32a2.77,2.77,0,0,0,.31-.52"/><path class="cls-2" d="M116.92,56.64s-.15.67-.24.9a6.05,6.05,0,0,1-.31.65"/><path class="cls-2" d="M88.17,87.49s2.72-2.74,5.11-2.94,3.55,1.38,3,2.69a3.49,3.49,0,0,1-1.06,1.68"/><path class="cls-2" d="M94.07,84.57s-.56.66-.78.85"/><path class="cls-2" d="M95.41,85.08s-.45.53-.62.68"/><path class="cls-2" d="M72.75,89.76c.93.3,3.83,1.07,3.83,1.07"/><polyline class="cls-5" points="131.97 57.19 132.23 55.7 130.97 56.54"/><line class="cls-5" x1="129.14" y1="51.54" x2="127.88" y2="52.39"/><line class="cls-5" x1="127.62" y1="51.34" x2="129.14" y2="51.54"/><path class="cls-6" d="M130.41,41.81c-4.18,3.41-3.1,8.17.3,12.35s7.86,6.19,12,2.79a9.77,9.77,0,1,0-12.34-15.14"/><path class="cls-5" d="M130.41,41.81c-4.18,3.41-3.1,8.17.3,12.35s7.86,6.19,12,2.79a9.77,9.77,0,1,0-12.34-15.14Z"/><path class="cls-4" d="M131.9,44.71c-3.19,2.6-2.62,5.93-.32,8.74,1.38,1.7,4,3.93,7.92,1.84a9.25,9.25,0,0,0,3.44-4.24c.73-1.95.05-2.91,0-3-.53-.83-1.12-1-1.76-1.76-.5-.62-.45-1.54-1.37-2.41-1.75-1.66-5.4-1.16-7.88.87"/><path class="cls-6" d="M131.28,43.22s-1.7.34-2.05-.71,2.42-1,2.42-1"/><path class="cls-5" d="M131.28,43.22s-1.7.34-2.05-.71,2.42-1,2.42-1"/><path class="cls-6" d="M140.53,56.22s-1.07,1.37-.28,2.15,2-1.71,2-1.71"/><path class="cls-5" d="M140.53,56.22s-1.07,1.37-.28,2.15,2-1.71,2-1.71"/><path class="cls-7" d="M136.86,48.06l.94,1.17s1.17-.27.54-1.17-1.48,0-1.48,0"/><path d="M140.91,48.81a.48.48,0,0,1-.63.17.38.38,0,0,1,.05-.72.44.44,0,0,1,.58.55"/><path d="M139,46a.48.48,0,0,1-.63.16.39.39,0,0,1,0-.72A.45.45,0,0,1,139,46"/><path class="cls-5" d="M137,48l.85,1.2s1.17-.27.54-1.17S137,48,137,48Z"/><path class="cls-7" d="M137.89,49.25,137,48.08s-1.17.28-.54,1.17,1.48,0,1.48,0"/><path class="cls-5" d="M137.79,49.28l-.84-1.2s-1.17.28-.54,1.17S137.79,49.28,137.79,49.28Z"/><polyline class="cls-5" points="146.13 43.19 144.89 43.29 145.33 42.09"/><line class="cls-5" x1="124.58" y1="14.17" x2="123.57" y2="15.3"/><line class="cls-5" x1="123.06" y1="14.35" x2="124.58" y2="14.17"/><path class="cls-6" d="M123.45,4.42c-3.23,4.33-1,8.68,3.3,11.91s9.12,4.1,12.35-.22a10.06,10.06,0,0,0-1.78-13.93,10.06,10.06,0,0,0-13.87,2.24"/><path class="cls-5" d="M123.45,4.42c-3.23,4.33-1,8.68,3.3,11.91s9.12,4.1,12.35-.22a10.06,10.06,0,0,0-1.78-13.93A10.06,10.06,0,0,0,123.45,4.42Z"/><path class="cls-4" d="M126.68,5.59c-2.47,3.3-1.1,6.39,1.81,8.56,1.75,1.31,4.86,2.83,8.12-.14a9.24,9.24,0,0,0,2.31-4.95c.24-2.07-.65-2.84-.76-2.94-.72-.68-1.33-.68-2.13-1.29-.64-.47-.81-1.38-1.91-2C132,1.65,128.6,3,126.68,5.59"/><path class="cls-6" d="M138.28,14.25s2-.51,2.08.59S138,16,138,16"/><path class="cls-5" d="M138.28,14.25s2-.51,2.08.59S138,16,138,16"/><path class="cls-6" d="M125.94,3.36s.17-2.08-.79-1.91-.84,2.36-.84,2.36"/><path class="cls-5" d="M125.94,3.36s.17-2.08-.79-1.91-.84,2.36-.84,2.36"/><path class="cls-7" d="M132.3,7.63l1.2.91s1.07-.55.24-1.27-1.44.36-1.44.36"/><path d="M136.42,7.38a.5.5,0,0,1-.58.32.39.39,0,0,1-.12-.71.44.44,0,0,1,.7.39"/><path d="M133.85,5.16a.49.49,0,0,1-.57.32.38.38,0,0,1-.13-.71.44.44,0,0,1,.7.39"/><path class="cls-5" d="M132.39,7.58l1.11,1s1.07-.55.24-1.27S132.39,7.58,132.39,7.58Z"/><path class="cls-7" d="M133.59,8.54l-1.2-.91s-1.07.55-.23,1.27,1.43-.36,1.43-.36"/><path class="cls-5" d="M133.51,8.59l-1.12-1s-1.07.55-.24,1.27S133.51,8.59,133.51,8.59Z"/><polyline class="cls-5" points="137.8 1.23 136.68 1.61 136.81 0.4"/><polyline class="cls-5" points="130.16 15.35 129.15 16.46 130.66 16.43"/><path class="cls-6" d="M91.29,9.64c-1.81,5.08,1.57,8.6,6.65,10.42s9.92,1.24,11.74-3.83a10.05,10.05,0,0,0-5.79-12.8,10.05,10.05,0,0,0-12.6,6.21"/><path class="cls-5" d="M91.29,9.64c-1.81,5.08,1.57,8.6,6.65,10.42s9.92,1.24,11.74-3.83a10.05,10.05,0,0,0-5.79-12.8A10.05,10.05,0,0,0,91.29,9.64Z"/><path class="cls-4" d="M93.35,14.22c-.63,2,.16,3.08,1.69,4.08a14.26,14.26,0,0,0,2.85,1.42c2.06.73,5.23,1.85,6.79-.42a6.51,6.51,0,0,0,.85-4.69c-.38-2-1.45-2.52-1.59-2.59a18.86,18.86,0,0,0-2.41-.6c-.76-.27-1.19-1.08-2.42-1.35-2.36-.52-4.78,1.09-5.76,4.15"/><path class="cls-6" d="M109.68,15.46s1.71,1.18.92,2-2.41-1-2.41-1"/><path class="cls-5" d="M109.68,15.46s1.71,1.18.92,2-2.41-1-2.41-1"/><path class="cls-6" d="M92.45,9.17s-2.1-.57-2.12.44,2.26,1.32,2.26,1.32"/><path class="cls-5" d="M92.45,9.17s-2.1-.57-2.12.44,2.26,1.32,2.26,1.32"/><path class="cls-7" d="M98.32,16.81l1.42.52s.86-.84-.15-1.28-1.27.76-1.27.76"/><path d="M102.18,15.36s0,.46-.45.47a.38.38,0,0,1-.33-.64.44.44,0,0,1,.78.17"/><path d="M99.08,14a.47.47,0,0,1-.46.46.38.38,0,0,1-.33-.64.45.45,0,0,1,.79.18"/><path class="cls-5" d="M98.39,16.73l1.35.6s.86-.84-.15-1.28S98.39,16.73,98.39,16.73Z"/><path class="cls-7" d="M99.82,17.3l-1.41-.52s-.86.84.14,1.29,1.27-.77,1.27-.77"/><path class="cls-5" d="M99.76,17.38l-1.35-.6s-.86.84.14,1.29S99.76,17.38,99.76,17.38Z"/><polyline class="cls-5" points="103.86 7.55 102.85 8.27 102.61 7.02"/><path class="cls-8" d="M2.54,71.19a4.15,4.15,0,0,1-1,2.25,3.68,3.68,0,0,0-.65,1.78,5.37,5.37,0,0,0,.95,3.13c.79,1.28.36,3.41,1.39,4.46,1.53,1.55,3.21.7,4.56,1.4s2.27,1.76,4,1.55,2.34-1.6,3.31-2.18c1.43-.88,2.92-.3,4.11-1.48s.32-2.89,1.2-4.08,1.57-2.22,1.15-3.52S19.57,72,19.45,71s-.57-3-2.56-3.38S14.61,66,13.33,65.53c-1.59-.55-2.88.67-4,1.34S6.65,67,5,67.59c-.78.26-2.2,1.14-2.42,3.6"/><path class="cls-8" d="M1.69,78.16C.57,79.66.53,82.22.35,85c-.12,2-.09,2.17.81,2.28a2,2,0,0,0,1.51-.5c.66-.62,2.38,0,3.47-.14a1.74,1.74,0,0,1,1.61.67l.11.15a1.69,1.69,0,0,0,1.84.21,7.86,7.86,0,0,0,1-.72,3.15,3.15,0,0,1,1.93-.56h.12a6,6,0,0,1,3.09.76,1.84,1.84,0,0,0,.64.28,1.22,1.22,0,0,0,1.39-1,8.1,8.1,0,0,0-.71-4"/><path class="cls-5" d="M2.54,71.19a4.15,4.15,0,0,1-1,2.25,3.68,3.68,0,0,0-.65,1.78,5.37,5.37,0,0,0,.95,3.13c.79,1.28.36,3.41,1.39,4.46,1.53,1.55,3.21.7,4.56,1.4s2.27,1.76,4,1.55,2.34-1.6,3.31-2.18c1.43-.88,2.92-.3,4.11-1.48s.32-2.89,1.2-4.08,1.57-2.22,1.15-3.52S19.57,72,19.45,71s-.57-3-2.56-3.38S14.61,66,13.33,65.53c-1.59-.55-2.88.67-4,1.34S6.65,67,5,67.59C4.18,67.85,2.76,68.73,2.54,71.19Z"/><path class="cls-5" d="M8.61,70.68s-.89-.78-1.27-.53-.17,1.4-.17,1.4"/><path class="cls-5" d="M16.53,71.92s.17-1.17-.29-1.19-1,.6-1,.6"/><path class="cls-5" d="M17.05,83a6.66,6.66,0,0,1,.82,3.51c-.06.93-1.08,1-1.39,1a1.82,1.82,0,0,1-.64-.27,4.37,4.37,0,0,0-3.09-.77h-.12A3.15,3.15,0,0,0,10.7,87a7.08,7.08,0,0,1-1,.71,1.67,1.67,0,0,1-1.84-.2l-.11-.15c-.39-.52-.59-.64-1.61-.67s-2.81-.48-3.47.14a2,2,0,0,1-1.51.5c-.9-.11-.9-.93-.77-2.89.18-2.81.18-4.76,1.3-6.26"/><path class="cls-5" d="M13.94,78.89s.35-1.47-.09-1.67-1.53.86-1.53.86"/><path d="M11.64,75.39a.39.39,0,0,1,0,.71.34.34,0,0,1-.2,0c-.34-.09-.33-.74.08-.74a.33.33,0,0,1,.15,0"/><path d="M14.47,75.48a.39.39,0,0,1,0,.71.37.37,0,0,1-.21,0c-.33-.1-.32-.74.09-.74a.4.4,0,0,1,.15,0"/><path class="cls-8" d="M24.6,48S21,52.92,26.81,57A4.8,4.8,0,0,0,27.75,61c1.56,2.24,10.32,0,10.32,0l-3.3-15.49Z"/><path class="cls-9" d="M24.6,48S21,52.92,26.81,57A4.8,4.8,0,0,0,27.75,61c1.56,2.24,10.32,0,10.32,0l-3.3-15.49Z"/><path class="cls-8" d="M51.26,47.23a7.9,7.9,0,0,1-.61,5.19,12.86,12.86,0,0,1-.71,3.94,3.53,3.53,0,0,1-1.35,1.23,17.34,17.34,0,0,1,.7-6.39,16.06,16.06,0,0,1,2-4"/><path class="cls-9" d="M51.26,47.23a7.9,7.9,0,0,1-.61,5.19,12.86,12.86,0,0,1-.71,3.94,3.53,3.53,0,0,1-1.35,1.23,17.34,17.34,0,0,1,.7-6.39A16.06,16.06,0,0,1,51.26,47.23Z"/><path class="cls-10" d="M51.32,46.73A4.55,4.55,0,0,0,49,43.78a6.92,6.92,0,0,0-4.32-.07c-4.3.86-8.59,1.78-12.95,2.24-2.65.28-5.5.47-7.54,2.18h.11a3.87,3.87,0,0,0-.71,2.56,9.7,9.7,0,0,0,1,4.13,3.44,3.44,0,0,0,2.17,2.05,4,4,0,0,0,1.42-.06l5.88-.92A28,28,0,0,0,37,55.34c1.06-.3,2.09-.73,3.16-1a30.24,30.24,0,0,1,4.32-.84l4.73-.69A2.78,2.78,0,0,0,51,52a2.65,2.65,0,0,0,.49-1.49,10.66,10.66,0,0,0-.15-3.82"/><path class="cls-9" d="M51.32,46.73A4.55,4.55,0,0,0,49,43.78a6.92,6.92,0,0,0-4.32-.07c-4.3.86-8.59,1.78-12.95,2.24-2.65.28-5.5.47-7.54,2.18h.11a3.87,3.87,0,0,0-.71,2.56,9.7,9.7,0,0,0,1,4.13,3.44,3.44,0,0,0,2.17,2.05,4,4,0,0,0,1.42-.06l5.88-.92A28,28,0,0,0,37,55.34c1.06-.3,2.09-.73,3.16-1a30.24,30.24,0,0,1,4.32-.84l4.73-.69A2.78,2.78,0,0,0,51,52a2.65,2.65,0,0,0,.49-1.49A10.66,10.66,0,0,0,51.32,46.73Z"/><path class="cls-4" d="M40.59,44.72S26.67,48.54,25.5,48.81s-6.4,1.36-6.06,4S21.15,55.9,21.91,56a55.9,55.9,0,0,0,6.42-1.15s.94-.23,1.2,1a48.66,48.66,0,0,1,.38,5,16.45,16.45,0,0,0,.47,2.67,3,3,0,0,0,2.78,2.13c1.75,0,4.75-3.1,4.75-3.1l1.51-.8s2.53,2.77,3.31,3.6,3.24,2.64,4.89,2a6.77,6.77,0,0,0,4.17-5.77,2,2,0,0,0-2.63-2.19l-.68-1.86.9-7.71,4.86-6.7s3.8-4.17,3-6.26-1.64-2.9-3-2.93-9.47,5.16-9.47,5.16Z"/><path class="cls-9" d="M40.59,44.72S26.67,48.54,25.5,48.81s-6.4,1.36-6.06,4S21.15,55.9,21.91,56a55.9,55.9,0,0,0,6.42-1.15s.94-.23,1.2,1a48.66,48.66,0,0,1,.38,5,16.45,16.45,0,0,0,.47,2.67,3,3,0,0,0,2.78,2.13c1.75,0,4.75-3.1,4.75-3.1l1.51-.8s2.53,2.77,3.31,3.6,3.24,2.64,4.89,2a6.77,6.77,0,0,0,4.17-5.77,2,2,0,0,0-2.63-2.19l-.68-1.86.9-7.71,4.86-6.7s3.8-4.17,3-6.26-1.64-2.9-3-2.93-9.47,5.16-9.47,5.16Z"/><path class="cls-4" d="M55.5,34.37a19.21,19.21,0,0,0,.42-2.11,18.3,18.3,0,0,0-1.82-9.35A14.71,14.71,0,0,0,47.19,16a2.16,2.16,0,0,1-1-.83,1.9,1.9,0,0,1-.28-1c0-.56,0-1.2-.09-1.74A7.14,7.14,0,0,0,44.08,8.1a7.2,7.2,0,0,0-7.89-1.35c-2.91,1.31-3.35,3.34-3.55,5.26s-1.58,1.63-3.45,1.9a24.31,24.31,0,0,0-4.72,1.35,40,40,0,0,0-4.27,2.62L20,18a1.69,1.69,0,0,1-2.47-.42l-.33-.5a4.55,4.55,0,0,0-3.84-1.83A5.51,5.51,0,0,0,8.92,18a5.66,5.66,0,0,0-.11,5.33,6.93,6.93,0,0,0,1.1,1.64,2.09,2.09,0,0,1,.42,2.33c-1.52,3.61-.75,8,0,10.64A16.17,16.17,0,0,0,14.45,45a9.28,9.28,0,0,0,5.61,2.87,23.25,23.25,0,0,0,5.71.56l2.16,0a59,59,0,0,0,11-1.4,34.56,34.56,0,0,0,9.82-4.7"/><path class="cls-5" d="M55.5,34.37a19.21,19.21,0,0,0,.42-2.11,18.3,18.3,0,0,0-1.82-9.35A14.71,14.71,0,0,0,47.19,16a2.16,2.16,0,0,1-1-.83,1.9,1.9,0,0,1-.28-1c0-.56,0-1.2-.09-1.74A7.14,7.14,0,0,0,44.08,8.1a7.2,7.2,0,0,0-7.89-1.35c-2.91,1.31-3.35,3.34-3.55,5.26s-1.58,1.63-3.45,1.9a24.31,24.31,0,0,0-4.72,1.35,40,40,0,0,0-4.27,2.62L20,18a1.69,1.69,0,0,1-2.47-.42l-.33-.5a4.55,4.55,0,0,0-3.84-1.83A5.51,5.51,0,0,0,8.92,18a5.66,5.66,0,0,0-.11,5.33,6.93,6.93,0,0,0,1.1,1.64,2.09,2.09,0,0,1,.42,2.33c-1.52,3.61-.75,8,0,10.64A16.17,16.17,0,0,0,14.45,45a9.28,9.28,0,0,0,5.61,2.87,23.25,23.25,0,0,0,5.71.56l2.16,0a59,59,0,0,0,11-1.4,34.56,34.56,0,0,0,9.82-4.7"/><path class="cls-5" d="M34.58,30.65a5.1,5.1,0,0,0-2.25,1.56,2.87,2.87,0,0,0-.14,3c.36.69,1.35,1.64,3.88.74a7.64,7.64,0,0,0,3.61-2.11A2.17,2.17,0,0,0,40,31.59a2.42,2.42,0,0,0-2.11-1.73A12.51,12.51,0,0,0,34.58,30.65Z"/><path class="cls-11" d="M45.72,23.32a4.62,4.62,0,0,0-2.7,2.6,8.76,8.76,0,0,0,.38,4.86,3.61,3.61,0,0,0,4.77,1.81c2.52-.92,3.42-1.93,3.66-3.69a8.12,8.12,0,0,0-.2-3.18,5.33,5.33,0,0,0-2.28-2.41,5.24,5.24,0,0,0-3.63,0"/><path class="cls-11" d="M22.83,30.67a4.59,4.59,0,0,0-2.69,2.6,8.66,8.66,0,0,0,.37,4.86,3.62,3.62,0,0,0,4.77,1.81C27.81,39,28.7,38,28.94,36.25a8.17,8.17,0,0,0-.19-3.18,5.45,5.45,0,0,0-2.28-2.41,5.27,5.27,0,0,0-3.64,0"/><path d="M33.35,30.41s0,.85.5,1.08a2.93,2.93,0,0,0,2-.27c.72-.34,1.37-1.39,1-1.93a1.84,1.84,0,0,0-2.09-.61,1.78,1.78,0,0,0-1.38,1.73"/><path d="M36.88,27s.14,1,1,.7.53-1,.27-1.37a.74.74,0,0,0-1.23.67"/><path d="M31.09,28.58s.14,1,1,.69.53-1,.26-1.36a.73.73,0,0,0-1.22.67"/><path class="cls-12" d="M20.07,8.75s-5,4.17-4.58,5,3.39.32,9.92-2.55C29.1,9.63,32.31,8,31.65,7.15s-6.09-.64-6.09-.64Z"/><path class="cls-5" d="M20.07,8.75s-5,4.17-4.58,5,3.39.32,9.92-2.55C29.1,9.63,32.31,8,31.65,7.15s-6.09-.64-6.09-.64Z"/><path class="cls-12" d="M20.68,4.59s0-1,.54-1.31,1,.65,1,.65"/><path class="cls-5" d="M20.68,4.59s0-1,.54-1.31,1,.65,1,.65"/><path class="cls-12" d="M17.83,10.74a16.75,16.75,0,0,0,5.67-1,13.07,13.07,0,0,0,4.85-3.36,6.3,6.3,0,0,0-5.19-2.6,4.71,4.71,0,0,0-2.29.67,6.67,6.67,0,0,0-3,6.32"/><path class="cls-5" d="M17.83,10.74a16.75,16.75,0,0,0,5.67-1,13.07,13.07,0,0,0,4.85-3.36,6.3,6.3,0,0,0-5.19-2.6,4.71,4.71,0,0,0-2.29.67A6.67,6.67,0,0,0,17.83,10.74Z"/><path class="cls-5" d="M18,8.38s3.36-.05,5.08,1.48c0,0,1.64-3.88,4.14-4.68"/><path class="cls-5" d="M48.92,42.2a29.53,29.53,0,0,1,2.93-5.89,3.16,3.16,0,0,1,.33-1.14,1.77,1.77,0,0,1,1.13-.93,3.33,3.33,0,0,1,3.93,3.89c-.53,2.39-7.86,11.41-7.86,11.41"/><path class="cls-5" d="M31.65,48s-7.9.41-11.19,2.71c-2,1.38-.5,5.7,2.13,5.3,3.25-.49,7.13-1.45,7.13-1.45"/><path class="cls-5" d="M29.31,54.87a16.52,16.52,0,0,1,.51,3.44c.06,2-.21,4.16,1.6,5.2,3.5,2,7.86-1.75,7.86-1.75s4,5.28,7.42,5.57,7-6.57,4.24-7.85A2.64,2.64,0,0,0,48,60"/><path class="cls-5" d="M49.69,48.21s-2,7.45-.48,11"/><path class="cls-13" d="M29,48.24s6.26.75,10.61-.7c2.65-.89,7.18-2.43,9.3-4.84A13.71,13.71,0,0,1,49.38,41s-6.61,4.32-8.68,4.86S29,48.24,29,48.24"/><path class="cls-5" d="M29,48.24s6.26.75,10.61-.7c2.65-.89,7.18-2.43,9.3-4.84A13.71,13.71,0,0,1,49.38,41s-6.61,4.32-8.68,4.86S29,48.24,29,48.24Z"/><path class="cls-13" d="M39.9,46.1A17.54,17.54,0,0,0,37,47.73c-.71.63-1,2.65-1,2.65a17.4,17.4,0,0,0,2.11-.9c1.94-1.18,2.33-3.1,1.78-3.38"/><path class="cls-5" d="M39.9,46.1A17.54,17.54,0,0,0,37,47.73c-.71.63-1,2.65-1,2.65a17.4,17.4,0,0,0,2.11-.9C40.06,48.3,40.45,46.38,39.9,46.1Z"/><path class="cls-13" d="M40.27,46.54A17.37,17.37,0,0,0,43,48.45c.88.36,2.81-.28,2.81-.28a16.69,16.69,0,0,0-1.73-1.5c-1.91-1.23-3.81-.74-3.83-.13"/><path class="cls-5" d="M40.27,46.54A17.37,17.37,0,0,0,43,48.45c.88.36,2.81-.28,2.81-.28a16.69,16.69,0,0,0-1.73-1.5C42.19,45.44,40.29,45.93,40.27,46.54Z"/><path class="cls-13" d="M38.91,46a2.18,2.18,0,0,1,2.18-.46s.14,2.16-.55,2.27S38.91,46,38.91,46"/><path class="cls-5" d="M38.91,46a2.18,2.18,0,0,1,2.18-.46s.14,2.16-.55,2.27S38.91,46,38.91,46Z"/><path class="cls-5" d="M30.19,62.07S30.1,64.86,32,65.51s4-1.05,4.54-2.07"/><path class="cls-5" d="M40.29,61.54a1.39,1.39,0,0,0-1,.22"/><path class="cls-5" d="M43.82,66.17a35,35,0,0,1,3-4.92,5.16,5.16,0,0,1,2-1.8"/><path class="cls-5" d="M54.81,39.41c-.94.05-2.64-.9-2.9-3.36"/><path class="cls-14" d="M53.43,38.9l1.22,4.43a.52.52,0,0,0,.69.41c.51-.18.28-.73.28-.73l-1-3.55a4.56,4.56,0,0,1-.61-.13,2.65,2.65,0,0,1-.58-.43"/><path class="cls-5" d="M53.43,38.9l1.22,4.43a.52.52,0,0,0,.69.41c.51-.18.28-.73.28-.73l-1-3.55a4.56,4.56,0,0,1-.61-.13A2.65,2.65,0,0,1,53.43,38.9Z"/><path class="cls-14" d="M52.43,34.71,49.07,21.55a.93.93,0,0,1,.91-.27l3.33,13a3.05,3.05,0,0,0-.88.47"/><path class="cls-5" d="M52.43,34.71,49.07,21.55a.93.93,0,0,1,.91-.27l3.33,13A3.05,3.05,0,0,0,52.43,34.71Z"/><path class="cls-10" d="M27.93,48.38s2.7,4.14,1.6,7.46L29.8,57a4.37,4.37,0,0,0,1.61-3.6,13.22,13.22,0,0,0-1.22-5.2Z"/><path class="cls-9" d="M27.93,48.38s2.7,4.14,1.6,7.46L29.8,57a4.37,4.37,0,0,0,1.61-3.6,13.22,13.22,0,0,0-1.22-5.2Z"/><path class="cls-15" d="M50,21.28a12.13,12.13,0,0,1,11.3,1.16c3.06,1.92,8.32.13,9.8-.82a8.35,8.35,0,0,1-5.83,8.46c-5.81,2.13-7.31-2.8-12.71,1.16Z"/><path class="cls-10" d="M48,43.56s1.61,2.54,1,7.13V52s2.27-2.07,1.27-6.53a5.12,5.12,0,0,0-1.4-2.77Z"/><path class="cls-9" d="M48,43.56s1.61,2.54,1,7.13V52s2.27-2.07,1.27-6.53a5.12,5.12,0,0,0-1.4-2.77Z"/><path class="cls-5" d="M50,21.28a12.13,12.13,0,0,1,11.3,1.16c3.06,1.92,8.32.13,9.8-.82a8.35,8.35,0,0,1-5.83,8.46c-5.81,2.13-7.31-2.8-12.71,1.16Z"/><path class="cls-14" d="M54.65,43.33a.55.55,0,0,0,.7.41c.47-.17.27-.73.27-.73"/><path class="cls-5" d="M54.65,43.33a.55.55,0,0,0,.7.41c.47-.17.27-.73.27-.73"/><path class="cls-5" d="M13.75,19.06s-.88,1.3-.7,1.86l2.44-.34-.92,1.54"/><path class="cls-5" d="M40.82,10.59s-1.58.11-1.9.59l1.77,1.72-1.78.22"/><path class="cls-5" d="M46.22,48.21a3,3,0,0,0-.8.45s0,0,0,.06,0,.07.07.09a6,6,0,0,0,.82.37c-.27.16-.55.31-.83.46"/><path class="cls-4" d="M59.38,23.47a2.36,2.36,0,1,0,2.35,2.35,2.36,2.36,0,0,0-2.35-2.35m0,4.28a1.83,1.83,0,0,1-1.06-.23,1.38,1.38,0,0,1-.53-.61c-.11-.22-.16-.49-.05-.48s.1.11.2.24.14.17.19.18a.07.07,0,0,0,.06,0,1,1,0,0,1,.13-.25c.06-.06.13-.09.17.07a1,1,0,0,1,0,.23c0,.11,0,.17.06.18s.09,0,.18,0l.26-.08c.1,0,.17,0,.1.14a1.5,1.5,0,0,1-.17.29,0,0,0,0,0,0,.07.78.78,0,0,0,.21.12,1.45,1.45,0,0,0,.21.08c.09,0,.08.11,0,.13m1.2-.51a1.13,1.13,0,0,1-.49.4s-.07,0-.08,0,0-.05,0-.08c.29-.37.08-.72-.39-1l-.82-.46c-.75-.44-.9-.82-.93-1.05a1.06,1.06,0,0,1,.89-1.11s.06,0,.07,0a.07.07,0,0,1,0,.07.72.72,0,0,0-.41.66c0,.16.08.39.51.69.26.19.57.34,1.21.72s.6.9.44,1.15m.11-2.16c-.15.19-.31.12-.43-.14s-.17-.21-.24-.16,0,.16,0,.29a.19.19,0,0,1,0,.24.3.3,0,0,1-.27.07c-.19-.05-.38-.3-.24-.86a.37.37,0,0,0-.12-.4s0-.07,0-.09,0,0,.11,0a2,2,0,0,0,.26.07H60a.88.88,0,0,1,.47.09c.24.12.27.33.13.31a.58.58,0,0,1-.15-.06.1.1,0,0,0-.09,0s0,.05,0,.08.13.09.27.13a.25.25,0,0,1,.12.44"/></g></g></svg>