<svg width="300" height="118" viewBox="0 0 300 118" fill="none" xmlns="http://www.w3.org/2000/svg">
<path fill-rule="evenodd" clip-rule="evenodd" d="M253.953 98.2501C276.991 91.7227 291 78.5771 291 52.2481C291 4.5279 228.311 0 145.5 0C57.2879 0 0 7.28047 0 52.2481C0 104.973 56.9443 104.779 130.027 104.531C135.111 104.514 140.273 104.496 145.5 104.496C151.118 104.496 156.662 104.518 162.115 104.54C186.923 104.639 209.838 104.731 229.252 102.696C229.68 102.84 230.114 102.982 230.556 103.123C236.373 106.48 239.554 109.445 240.418 110.507C241.862 111.979 245.267 113.791 247.333 109.27C249.4 104.748 250.479 102.874 253.329 99.047C253.525 98.7849 253.733 98.5193 253.953 98.2501Z" fill="#FFEEA0" fill-opacity="0.8"/>
<path d="M44.6892 32.514H46.1652V34.71H44.6892V32.514ZM45.4452 27.33C49.0272 27.33 51.1692 28.32 51.1692 30.138C51.1692 31.956 49.0272 32.964 45.4452 32.964C41.8452 32.964 39.7212 31.956 39.7212 30.138C39.7212 28.32 41.8452 27.33 45.4452 27.33ZM45.4452 28.464C42.7812 28.464 41.2512 29.076 41.2512 30.138C41.2512 31.218 42.7812 31.83 45.4452 31.83C48.0912 31.83 49.6212 31.218 49.6212 30.138C49.6212 29.076 48.0912 28.464 45.4452 28.464ZM38.0832 34.17H52.7892V35.394H38.0832V34.17ZM39.8652 36.726H50.9172V40.416H41.3772V42.396H39.9012V39.318H49.4412V37.896H39.8652V36.726ZM39.9012 42.054H51.4032V43.224H39.9012V42.054ZM54.6238 29.904H62.6878V31.128H54.6238V29.904ZM58.6558 32.208C60.6898 32.208 62.1658 33.738 62.1658 35.934C62.1658 38.112 60.6898 39.642 58.6558 39.642C56.6398 39.642 55.1638 38.112 55.1638 35.934C55.1638 33.738 56.6398 32.208 58.6558 32.208ZM58.6558 33.486C57.4138 33.486 56.5138 34.494 56.5138 35.934C56.5138 37.374 57.4138 38.382 58.6558 38.382C59.9158 38.382 60.8338 37.374 60.8338 35.934C60.8338 34.494 59.9158 33.486 58.6558 33.486ZM66.9898 27.132H68.4298V43.404H66.9898V27.132ZM64.3978 33.972H67.4758V35.214H64.3978V33.972ZM63.5158 27.492H64.9198V42.612H63.5158V27.492ZM57.9358 27.6H59.4118V30.66H57.9358V27.6ZM87.5088 27.114H89.0028V43.422H87.5088V27.114ZM80.4168 28.374C82.8288 28.374 84.5568 30.588 84.5568 34.044C84.5568 37.518 82.8288 39.732 80.4168 39.732C78.0228 39.732 76.2948 37.518 76.2948 34.044C76.2948 30.588 78.0228 28.374 80.4168 28.374ZM80.4168 29.724C78.8328 29.724 77.7168 31.416 77.7168 34.044C77.7168 36.69 78.8328 38.418 80.4168 38.418C82.0188 38.418 83.1168 36.69 83.1168 34.044C83.1168 31.416 82.0188 29.724 80.4168 29.724ZM103.258 28.734H104.554V29.418C104.554 32.334 101.458 34.476 98.1818 35.034L97.6058 33.846C100.468 33.432 103.258 31.56 103.258 29.418V28.734ZM103.636 28.734H104.914V29.418C104.914 31.56 107.722 33.432 110.566 33.846L110.008 35.034C106.714 34.476 103.636 32.334 103.636 29.418V28.734ZM103.312 37.194H104.788V43.404H103.312V37.194ZM96.7418 36.402H111.448V37.626H96.7418V36.402ZM98.1098 28.14H110.026V29.346H98.1098V28.14ZM117.53 27.906H118.772V29.49C118.772 32.568 116.936 35.214 114.182 36.258L113.426 35.07C115.892 34.17 117.53 31.92 117.53 29.49V27.906ZM117.8 27.906H119.024V29.49C119.024 31.83 120.698 33.936 123.11 34.782L122.354 35.952C119.636 34.962 117.8 32.478 117.8 29.49V27.906ZM115.766 37.752H126.638V43.404H125.126V38.976H115.766V37.752ZM125.126 27.132H126.638V36.924H125.126V27.132ZM141.667 27.114H143.161V43.422H141.667V27.114ZM134.575 28.374C136.987 28.374 138.715 30.588 138.715 34.044C138.715 37.518 136.987 39.732 134.575 39.732C132.181 39.732 130.453 37.518 130.453 34.044C130.453 30.588 132.181 28.374 134.575 28.374ZM134.575 29.724C132.991 29.724 131.875 31.416 131.875 34.044C131.875 36.69 132.991 38.418 134.575 38.418C136.177 38.418 137.275 36.69 137.275 34.044C137.275 31.416 136.177 29.724 134.575 29.724ZM157.488 36.33H158.982V40.38H157.488V36.33ZM158.244 28.194C161.682 28.194 164.148 29.868 164.148 32.46C164.148 35.052 161.682 36.726 158.244 36.726C154.806 36.726 152.322 35.052 152.322 32.46C152.322 29.868 154.806 28.194 158.244 28.194ZM158.244 29.382C155.652 29.382 153.762 30.606 153.762 32.46C153.762 34.314 155.652 35.538 158.244 35.538C160.818 35.538 162.708 34.314 162.708 32.46C162.708 30.606 160.818 29.382 158.244 29.382ZM150.9 40.092H165.642V41.334H150.9V40.092ZM167.441 34.692H182.201V35.826H167.441V34.692ZM169.187 37.14H180.347V40.614H170.717V42.522H169.241V39.588H178.889V38.202H169.187V37.14ZM169.241 42.126H180.869V43.206H169.241V42.126ZM169.313 27.6H180.293V30.984H170.825V32.748H169.349V29.976H178.835V28.662H169.313V27.6ZM169.349 32.388H180.599V33.468H169.349V32.388ZM200.38 27.132H201.874V38.148H200.38V27.132ZM196.888 31.722H200.686V32.946H196.888V31.722ZM195.268 28.41H196.834C196.834 32.622 194.062 35.61 189.4 37.122L188.77 35.934C192.892 34.638 195.268 32.19 195.268 29.004V28.41ZM189.544 28.41H196.33V29.634H189.544V28.41ZM195.88 36.744H197.158V37.482C197.158 40.596 194.314 42.702 191.056 43.368L190.462 42.18C193.342 41.658 195.88 39.858 195.88 37.482V36.744ZM196.096 36.744H197.374V37.482C197.374 39.822 199.876 41.622 202.774 42.144L202.144 43.332C198.904 42.684 196.096 40.578 196.096 37.482V36.744ZM220.665 27.132H222.159V35.826H220.665V27.132ZM221.745 30.894H224.571V32.136H221.745V30.894ZM216.165 28.266H217.821C217.821 32.37 214.959 35.034 210.189 36.132L209.595 34.926C213.879 33.972 216.165 31.794 216.165 29.076V28.266ZM210.261 28.266H217.029V29.49H210.261V28.266ZM211.917 36.564H222.249V37.698H213.393V42.63H211.917V36.564ZM211.917 42.054H222.609V43.188H211.917V42.054ZM212.889 39.282H222.051V40.38H212.889V39.282ZM237.097 27.114H238.609V43.422H237.097V27.114ZM238.249 33.54H241.273V34.8H238.249V33.54ZM226.783 38.112H228.061C231.067 38.112 233.173 38.004 235.603 37.554L235.765 38.814C233.263 39.282 231.121 39.372 228.061 39.372H226.783V38.112ZM226.783 28.698H234.343V29.922H228.259V38.67H226.783V28.698ZM250.452 29.994H255.006V31.218H250.452V29.994ZM250.452 33.468H255.042V34.71H250.452V33.468ZM243.396 28.536H250.83V36.168H243.396V28.536ZM249.354 29.742H244.854V34.962H249.354V29.742ZM254.538 27.15H256.032V39.03H254.538V27.15ZM245.574 41.82H256.428V43.044H245.574V41.82ZM245.574 37.95H247.068V42.378H245.574V37.95ZM92.5672 48.132H94.0072V64.404H92.5672V48.132ZM89.9932 54.576H93.1072V55.8H89.9932V54.576ZM88.9672 48.474H90.3892V63.594H88.9672V48.474ZM80.7592 50.004H86.9692V60.048H80.7592V50.004ZM85.5652 51.192H82.1632V58.86H85.5652V51.192ZM103.312 48.708H104.626V49.608C104.626 52.722 101.458 54.954 98.0738 55.53L97.4798 54.324C100.45 53.874 103.312 51.93 103.312 49.608V48.708ZM103.582 48.708H104.878V49.608C104.878 51.876 107.776 53.874 110.71 54.324L110.116 55.53C106.768 54.954 103.582 52.686 103.582 49.608V48.708ZM103.312 58.212H104.788V64.404H103.312V58.212ZM96.7418 57.294H111.448V58.536H96.7418V57.294ZM125.216 48.114H126.692V64.422H125.216V48.114ZM120.914 54.162H125.648V55.386H120.914V54.162ZM113.948 49.41H115.424V53.64H119.942V49.41H121.418V60.336H113.948V49.41ZM115.424 54.828V59.094H119.942V54.828H115.424ZM129.841 57.132H144.547V58.356H129.841V57.132ZM131.731 62.82H143.017V64.044H131.731V62.82ZM131.731 59.544H133.225V63.288H131.731V59.544ZM131.785 54.468H142.819V55.638H131.785V54.468ZM131.785 48.726H142.747V49.914H133.261V54.918H131.785V48.726ZM132.829 51.588H142.315V52.722H132.829V51.588ZM153.762 48.402C157.344 48.402 159.486 49.41 159.486 51.228C159.486 53.046 157.344 54.054 153.762 54.054C150.162 54.054 148.038 53.046 148.038 51.228C148.038 49.41 150.162 48.402 153.762 48.402ZM153.762 49.536C151.098 49.536 149.568 50.148 149.568 51.228C149.568 52.308 151.098 52.92 153.762 52.92C156.408 52.92 157.938 52.308 157.938 51.228C157.938 50.148 156.408 49.536 153.762 49.536ZM146.4 55.134H161.106V56.34H146.4V55.134ZM148.182 57.726H159.234V61.398H149.694V63.378H148.218V60.318H157.758V58.878H148.182V57.726ZM148.218 63.054H159.72V64.224H148.218V63.054ZM174.047 55.26H175.523V58.176H174.047V55.26ZM169.439 52.002H180.473V53.226H169.439V52.002ZM167.441 54.63H182.201V55.836H167.441V54.63ZM169.439 48.366H170.897V52.56H169.439V48.366ZM169.277 57.546H180.329V61.308H170.789V63.468H169.313V60.21H178.835V58.716H169.277V57.546ZM169.313 63.054H180.869V64.224H169.313V63.054ZM195.897 48.114H197.391V64.422H195.897V48.114ZM192.801 54.378H196.257V55.602H192.801V54.378ZM184.611 59.274H185.853C188.733 59.274 190.767 59.184 193.161 58.752L193.305 59.994C190.857 60.426 188.787 60.534 185.853 60.534H184.611V59.274ZM184.575 49.644H191.847V55.35H186.087V59.652H184.611V54.126H190.371V50.868H184.575V49.644ZM208.694 53.64H213.23V54.864H208.694V53.64ZM204.77 49.536H205.994V52.434C205.994 56.088 204.068 59.58 201.494 60.966L200.54 59.778C202.934 58.59 204.77 55.458 204.77 52.434V49.536ZM205.058 49.536H206.264V52.434C206.264 55.404 208.1 58.356 210.458 59.472L209.576 60.678C206.948 59.346 205.058 55.998 205.058 52.434V49.536ZM212.492 48.114H213.968V64.422H212.492V48.114ZM86.5586 70.734H87.8546V71.418C87.8546 74.334 84.7586 76.476 81.4826 77.034L80.9066 75.846C83.7686 75.432 86.5586 73.56 86.5586 71.418V70.734ZM86.9366 70.734H88.2146V71.418C88.2146 73.56 91.0226 75.432 93.8666 75.846L93.3086 77.034C90.0146 76.476 86.9366 74.334 86.9366 71.418V70.734ZM86.6126 79.194H88.0886V85.404H86.6126V79.194ZM80.0426 78.402H94.7486V79.626H80.0426V78.402ZM81.4106 70.14H93.3266V71.346H81.4106V70.14ZM100.831 69.906H102.073V71.49C102.073 74.568 100.237 77.214 97.4832 78.258L96.7272 77.07C99.1932 76.17 100.831 73.92 100.831 71.49V69.906ZM101.101 69.906H102.325V71.49C102.325 73.83 103.999 75.936 106.411 76.782L105.655 77.952C102.937 76.962 101.101 74.478 101.101 71.49V69.906ZM99.0672 79.752H109.939V85.404H108.427V80.976H99.0672V79.752ZM108.427 69.132H109.939V78.924H108.427V69.132ZM120.504 69.402C124.086 69.402 126.228 70.41 126.228 72.228C126.228 74.046 124.086 75.054 120.504 75.054C116.904 75.054 114.78 74.046 114.78 72.228C114.78 70.41 116.904 69.402 120.504 69.402ZM120.504 70.536C117.84 70.536 116.31 71.148 116.31 72.228C116.31 73.308 117.84 73.92 120.504 73.92C123.15 73.92 124.68 73.308 124.68 72.228C124.68 71.148 123.15 70.536 120.504 70.536ZM113.142 76.134H127.848V77.34H113.142V76.134ZM114.924 78.726H125.976V82.398H116.436V84.378H114.96V81.318H124.5V79.878H114.924V78.726ZM114.96 84.054H126.462V85.224H114.96V84.054ZM146.585 69.132H148.025V85.404H146.585V69.132ZM144.011 75.576H147.125V76.8H144.011V75.576ZM142.985 69.474H144.407V84.594H142.985V69.474ZM134.777 71.004H140.987V81.048H134.777V71.004ZM139.583 72.192H136.181V79.86H139.583V72.192ZM157.329 69.708H158.643V70.608C158.643 73.722 155.475 75.954 152.091 76.53L151.497 75.324C154.467 74.874 157.329 72.93 157.329 70.608V69.708ZM157.599 69.708H158.895V70.608C158.895 72.876 161.793 74.874 164.727 75.324L164.133 76.53C160.785 75.954 157.599 73.686 157.599 70.608V69.708ZM157.329 79.212H158.805V85.404H157.329V79.212ZM150.759 78.294H165.465V79.536H150.759V78.294ZM167.282 71.904H175.346V73.128H167.282V71.904ZM171.314 74.208C173.348 74.208 174.824 75.738 174.824 77.934C174.824 80.112 173.348 81.642 171.314 81.642C169.298 81.642 167.822 80.112 167.822 77.934C167.822 75.738 169.298 74.208 171.314 74.208ZM171.314 75.486C170.072 75.486 169.172 76.494 169.172 77.934C169.172 79.374 170.072 80.382 171.314 80.382C172.574 80.382 173.492 79.374 173.492 77.934C173.492 76.494 172.574 75.486 171.314 75.486ZM179.648 69.132H181.088V85.404H179.648V69.132ZM177.056 75.972H180.134V77.214H177.056V75.972ZM176.174 69.492H177.578V84.612H176.174V69.492ZM170.594 69.6H172.07V72.66H170.594V69.6ZM183.877 82.092H198.619V83.334H183.877V82.092ZM190.465 78.204H191.959V82.452H190.465V78.204ZM185.605 70.284H187.081V73.182H195.379V70.284H196.855V78.6H185.605V70.284ZM187.081 74.388V77.376H195.379V74.388H187.081ZM204.449 71.454H205.637V74.1C205.637 77.484 203.567 80.976 201.029 82.272L200.165 81.084C202.487 79.95 204.449 76.854 204.449 74.1V71.454ZM204.719 71.454H205.907V74.1C205.907 76.674 207.743 79.572 210.101 80.688L209.255 81.876C206.681 80.598 204.719 77.322 204.719 74.1V71.454ZM200.741 70.788H209.507V72.048H200.741V70.788ZM211.433 69.132H212.945V85.404H211.433V69.132ZM212.585 75.702H215.609V76.962H212.585V75.702ZM219.627 71.2031L219.416 80.2295H217.605L217.386 71.2031H219.627ZM217.324 82.998C217.324 82.6758 217.43 82.4062 217.641 82.1895C217.857 81.9668 218.156 81.8555 218.537 81.8555C218.912 81.8555 219.208 81.9668 219.425 82.1895C219.642 82.4062 219.75 82.6758 219.75 82.998C219.75 83.3086 219.642 83.5752 219.425 83.7979C219.208 84.0146 218.912 84.123 218.537 84.123C218.156 84.123 217.857 84.0146 217.641 83.7979C217.43 83.5752 217.324 83.3086 217.324 82.998Z" fill="#3C3C3C"/>
</svg>
