<svg width="291" height="118" viewBox="0 0 291 118" fill="none" xmlns="http://www.w3.org/2000/svg">
<path fill-rule="evenodd" clip-rule="evenodd" d="M162.115 104.54C234.648 104.83 291 105.055 291 52.2481C291 4.5279 228.311 0 145.5 0C57.2879 0 0 7.28047 0 52.2481C0 81.9937 18.1247 94.8962 47.0467 100.448C47.8316 101.276 48.6655 102.116 49.5512 102.966C53.2912 108.544 54.839 112.608 55.1454 113.942C55.7924 115.9 58.0485 119.028 61.8974 115.881C65.7462 112.734 67.5411 111.529 71.7875 109.351C73.6946 108.373 76.1778 107.506 78.8539 106.573C80.9628 105.837 83.1916 105.059 85.3527 104.152C99.2178 104.636 114.246 104.585 130.027 104.531C135.111 104.514 140.273 104.496 145.5 104.496C151.118 104.496 156.662 104.518 162.115 104.54Z" fill="#FFEEA0" fill-opacity="0.8"/>
<path d="M39.1511 31.514H40.6271V33.71H39.1511V31.514ZM39.9071 26.33C43.4891 26.33 45.6311 27.32 45.6311 29.138C45.6311 30.956 43.4891 31.964 39.9071 31.964C36.3071 31.964 34.1831 30.956 34.1831 29.138C34.1831 27.32 36.3071 26.33 39.9071 26.33ZM39.9071 27.464C37.2431 27.464 35.7131 28.076 35.7131 29.138C35.7131 30.218 37.2431 30.83 39.9071 30.83C42.5531 30.83 44.0831 30.218 44.0831 29.138C44.0831 28.076 42.5531 27.464 39.9071 27.464ZM32.5451 33.17H47.2511V34.394H32.5451V33.17ZM34.3271 35.726H45.3791V39.416H35.8391V41.396H34.3631V38.318H43.9031V36.896H34.3271V35.726ZM34.3631 41.054H45.8651V42.224H34.3631V41.054ZM49.0857 28.904H57.1497V30.128H49.0857V28.904ZM53.1177 31.208C55.1517 31.208 56.6277 32.738 56.6277 34.934C56.6277 37.112 55.1517 38.642 53.1177 38.642C51.1017 38.642 49.6257 37.112 49.6257 34.934C49.6257 32.738 51.1017 31.208 53.1177 31.208ZM53.1177 32.486C51.8757 32.486 50.9757 33.494 50.9757 34.934C50.9757 36.374 51.8757 37.382 53.1177 37.382C54.3777 37.382 55.2957 36.374 55.2957 34.934C55.2957 33.494 54.3777 32.486 53.1177 32.486ZM61.4517 26.132H62.8917V42.404H61.4517V26.132ZM58.8597 32.972H61.9377V34.214H58.8597V32.972ZM57.9777 26.492H59.3817V41.612H57.9777V26.492ZM52.3977 26.6H53.8737V29.66H52.3977V26.6ZM81.9707 26.114H83.4647V42.422H81.9707V26.114ZM74.8787 27.374C77.2907 27.374 79.0187 29.588 79.0187 33.044C79.0187 36.518 77.2907 38.732 74.8787 38.732C72.4847 38.732 70.7567 36.518 70.7567 33.044C70.7567 29.588 72.4847 27.374 74.8787 27.374ZM74.8787 28.724C73.2947 28.724 72.1787 30.416 72.1787 33.044C72.1787 35.69 73.2947 37.418 74.8787 37.418C76.4807 37.418 77.5787 35.69 77.5787 33.044C77.5787 30.416 76.4807 28.724 74.8787 28.724ZM97.7197 27.734H99.0157V28.418C99.0157 31.334 95.9197 33.476 92.6437 34.034L92.0677 32.846C94.9297 32.432 97.7197 30.56 97.7197 28.418V27.734ZM98.0977 27.734H99.3757V28.418C99.3757 30.56 102.184 32.432 105.028 32.846L104.47 34.034C101.176 33.476 98.0977 31.334 98.0977 28.418V27.734ZM97.7737 36.194H99.2497V42.404H97.7737V36.194ZM91.2037 35.402H105.91V36.626H91.2037V35.402ZM92.5717 27.14H104.488V28.346H92.5717V27.14ZM111.992 26.906H113.234V28.49C113.234 31.568 111.398 34.214 108.644 35.258L107.888 34.07C110.354 33.17 111.992 30.92 111.992 28.49V26.906ZM112.262 26.906H113.486V28.49C113.486 30.83 115.16 32.936 117.572 33.782L116.816 34.952C114.098 33.962 112.262 31.478 112.262 28.49V26.906ZM110.228 36.752H121.1V42.404H119.588V37.976H110.228V36.752ZM119.588 26.132H121.1V35.924H119.588V26.132ZM136.129 26.114H137.623V42.422H136.129V26.114ZM129.037 27.374C131.449 27.374 133.177 29.588 133.177 33.044C133.177 36.518 131.449 38.732 129.037 38.732C126.643 38.732 124.915 36.518 124.915 33.044C124.915 29.588 126.643 27.374 129.037 27.374ZM129.037 28.724C127.453 28.724 126.337 30.416 126.337 33.044C126.337 35.69 127.453 37.418 129.037 37.418C130.639 37.418 131.737 35.69 131.737 33.044C131.737 30.416 130.639 28.724 129.037 28.724ZM145.776 32.666H146.496C147.45 32.666 148.656 32.63 150.06 32.324L150.222 33.512C148.71 33.836 147.504 33.854 146.496 33.854H145.776V32.666ZM145.776 27.086H149.844V28.274H147.252V33.422H145.776V27.086ZM150.78 32.666H151.59C153.318 32.666 154.488 32.63 155.874 32.306L156.018 33.494C154.56 33.818 153.372 33.854 151.59 33.854H150.78V32.666ZM150.78 27.086H155.262V28.274H152.238V33.422H150.78V27.086ZM148.008 35.348H158.916V39.236H149.556V41.594H148.044V38.12H157.422V36.536H148.008V35.348ZM148.044 41H159.492V42.188H148.044V41ZM157.422 26.132H158.916V34.52H157.422V26.132ZM154.434 29.696H158.502V30.848H154.434V29.696ZM166.259 27.374C168.617 27.374 170.309 29.588 170.309 33.044C170.309 36.518 168.617 38.732 166.259 38.732C163.883 38.732 162.209 36.518 162.209 33.044C162.209 29.588 163.883 27.374 166.259 27.374ZM166.259 28.724C164.693 28.724 163.631 30.416 163.631 33.044C163.631 35.69 164.693 37.418 166.259 37.418C167.825 37.418 168.887 35.69 168.887 33.044C168.887 30.416 167.825 28.724 166.259 28.724ZM173.837 26.114H175.313V42.422H173.837V26.114ZM169.823 32.324H174.485V33.548H169.823V32.324ZM190.305 26.132H191.799V34.556H190.305V26.132ZM181.287 35.348H191.817V39.254H182.781V41.576H181.323V38.174H190.341V36.536H181.287V35.348ZM181.323 41.036H192.357V42.224H181.323V41.036ZM182.799 27.572H184.023V28.418C184.023 31.298 182.151 33.674 179.397 34.592L178.695 33.422C181.125 32.63 182.799 30.632 182.799 28.418V27.572ZM183.105 27.572H184.329V28.418C184.329 30.488 186.021 32.36 188.433 33.098L187.731 34.25C184.995 33.404 183.105 31.154 183.105 28.418V27.572ZM179.091 27.05H188.001V28.256H179.091V27.05ZM211.4 26.132H212.894V37.148H211.4V26.132ZM207.908 30.722H211.706V31.946H207.908V30.722ZM206.288 27.41H207.854C207.854 31.622 205.082 34.61 200.42 36.122L199.79 34.934C203.912 33.638 206.288 31.19 206.288 28.004V27.41ZM200.564 27.41H207.35V28.634H200.564V27.41ZM206.9 35.744H208.178V36.482C208.178 39.596 205.334 41.702 202.076 42.368L201.482 41.18C204.362 40.658 206.9 38.858 206.9 36.482V35.744ZM207.116 35.744H208.394V36.482C208.394 38.822 210.896 40.622 213.794 41.144L213.164 42.332C209.924 41.684 207.116 39.578 207.116 36.482V35.744ZM231.685 26.132H233.179V34.826H231.685V26.132ZM232.765 29.894H235.591V31.136H232.765V29.894ZM227.185 27.266H228.841C228.841 31.37 225.979 34.034 221.209 35.132L220.615 33.926C224.899 32.972 227.185 30.794 227.185 28.076V27.266ZM221.281 27.266H228.049V28.49H221.281V27.266ZM222.937 35.564H233.269V36.698H224.413V41.63H222.937V35.564ZM222.937 41.054H233.629V42.188H222.937V41.054ZM223.909 38.282H233.071V39.38H223.909V38.282ZM248.118 26.114H249.63V42.422H248.118V26.114ZM249.27 32.54H252.294V33.8H249.27V32.54ZM237.804 37.112H239.082C242.088 37.112 244.194 37.004 246.624 36.554L246.786 37.814C244.284 38.282 242.142 38.372 239.082 38.372H237.804V37.112ZM237.804 27.698H245.364V28.922H239.28V37.67H237.804V27.698ZM261.472 28.994H266.026V30.218H261.472V28.994ZM261.472 32.468H266.062V33.71H261.472V32.468ZM254.416 27.536H261.85V35.168H254.416V27.536ZM260.374 28.742H255.874V33.962H260.374V28.742ZM265.558 26.15H267.052V38.03H265.558V26.15ZM256.594 40.82H267.448V42.044H256.594V40.82ZM256.594 36.95H258.088V41.378H256.594V36.95ZM93.0672 47.132H94.5072V63.404H93.0672V47.132ZM90.4932 53.576H93.6072V54.8H90.4932V53.576ZM89.4672 47.474H90.8892V62.594H89.4672V47.474ZM81.2592 49.004H87.4692V59.048H81.2592V49.004ZM86.0652 50.192H82.6632V57.86H86.0652V50.192ZM99.0958 54.728H110.274V55.952H99.0958V54.728ZM97.2418 60.11H111.984V61.37H97.2418V60.11ZM103.83 55.25H105.324V60.614H103.83V55.25ZM99.0958 48.428H110.112V49.652H100.59V55.268H99.0958V48.428ZM125.716 47.114H127.192V63.422H125.716V47.114ZM121.414 53.162H126.148V54.386H121.414V53.162ZM114.448 48.41H115.924V52.64H120.442V48.41H121.918V59.336H114.448V48.41ZM115.924 53.828V58.094H120.442V53.828H115.924ZM130.341 56.132H145.047V57.356H130.341V56.132ZM132.231 61.82H143.517V63.044H132.231V61.82ZM132.231 58.544H133.725V62.288H132.231V58.544ZM132.285 53.468H143.319V54.638H132.285V53.468ZM132.285 47.726H143.247V48.914H133.761V53.918H132.285V47.726ZM133.329 50.588H142.815V51.722H133.329V50.588ZM154.262 47.402C157.844 47.402 159.986 48.41 159.986 50.228C159.986 52.046 157.844 53.054 154.262 53.054C150.662 53.054 148.538 52.046 148.538 50.228C148.538 48.41 150.662 47.402 154.262 47.402ZM154.262 48.536C151.598 48.536 150.068 49.148 150.068 50.228C150.068 51.308 151.598 51.92 154.262 51.92C156.908 51.92 158.438 51.308 158.438 50.228C158.438 49.148 156.908 48.536 154.262 48.536ZM146.9 54.134H161.606V55.34H146.9V54.134ZM148.682 56.726H159.734V60.398H150.194V62.378H148.718V59.318H158.258V57.878H148.682V56.726ZM148.718 62.054H160.22V63.224H148.718V62.054ZM174.547 54.26H176.023V57.176H174.547V54.26ZM169.939 51.002H180.973V52.226H169.939V51.002ZM167.941 53.63H182.701V54.836H167.941V53.63ZM169.939 47.366H171.397V51.56H169.939V47.366ZM169.777 56.546H180.829V60.308H171.289V62.468H169.813V59.21H179.335V57.716H169.777V56.546ZM169.813 62.054H181.369V63.224H169.813V62.054ZM196.397 47.114H197.891V63.422H196.397V47.114ZM193.301 53.378H196.757V54.602H193.301V53.378ZM185.111 58.274H186.353C189.233 58.274 191.267 58.184 193.661 57.752L193.805 58.994C191.357 59.426 189.287 59.534 186.353 59.534H185.111V58.274ZM185.075 48.644H192.347V54.35H186.587V58.652H185.111V53.126H190.871V49.868H185.075V48.644ZM209.194 52.64H213.73V53.864H209.194V52.64ZM205.27 48.536H206.494V51.434C206.494 55.088 204.568 58.58 201.994 59.966L201.04 58.778C203.434 57.59 205.27 54.458 205.27 51.434V48.536ZM205.558 48.536H206.764V51.434C206.764 54.404 208.6 57.356 210.958 58.472L210.076 59.678C207.448 58.346 205.558 54.998 205.558 51.434V48.536ZM212.992 47.114H214.468V63.422H212.992V47.114ZM84.8174 69.734H86.1134V70.418C86.1134 73.334 83.0174 75.476 79.7414 76.034L79.1654 74.846C82.0274 74.432 84.8174 72.56 84.8174 70.418V69.734ZM85.1954 69.734H86.4734V70.418C86.4734 72.56 89.2814 74.432 92.1254 74.846L91.5674 76.034C88.2734 75.476 85.1954 73.334 85.1954 70.418V69.734ZM84.8714 78.194H86.3474V84.404H84.8714V78.194ZM78.3014 77.402H93.0074V78.626H78.3014V77.402ZM79.6694 69.14H91.5854V70.346H79.6694V69.14ZM99.09 68.906H100.332V70.49C100.332 73.568 98.496 76.214 95.742 77.258L94.986 76.07C97.452 75.17 99.09 72.92 99.09 70.49V68.906ZM99.36 68.906H100.584V70.49C100.584 72.83 102.258 74.936 104.67 75.782L103.914 76.952C101.196 75.962 99.36 73.478 99.36 70.49V68.906ZM97.326 78.752H108.198V84.404H106.686V79.976H97.326V78.752ZM106.686 68.132H108.198V77.924H106.686V68.132ZM118.763 68.402C122.345 68.402 124.487 69.41 124.487 71.228C124.487 73.046 122.345 74.054 118.763 74.054C115.163 74.054 113.039 73.046 113.039 71.228C113.039 69.41 115.163 68.402 118.763 68.402ZM118.763 69.536C116.099 69.536 114.569 70.148 114.569 71.228C114.569 72.308 116.099 72.92 118.763 72.92C121.409 72.92 122.939 72.308 122.939 71.228C122.939 70.148 121.409 69.536 118.763 69.536ZM111.401 75.134H126.107V76.34H111.401V75.134ZM113.183 77.726H124.235V81.398H114.695V83.378H113.219V80.318H122.759V78.878H113.183V77.726ZM113.219 83.054H124.721V84.224H113.219V83.054ZM144.844 68.132H146.284V84.404H144.844V68.132ZM142.27 74.576H145.384V75.8H142.27V74.576ZM141.244 68.474H142.666V83.594H141.244V68.474ZM133.036 70.004H139.246V80.048H133.036V70.004ZM137.842 71.192H134.44V78.86H137.842V71.192ZM150.872 75.728H162.05V76.952H150.872V75.728ZM149.018 81.11H163.76V82.37H149.018V81.11ZM155.606 76.25H157.1V81.614H155.606V76.25ZM150.872 69.428H161.888V70.652H152.366V76.268H150.872V69.428ZM170.023 70.904H178.087V72.128H170.023V70.904ZM174.055 73.208C176.089 73.208 177.565 74.738 177.565 76.934C177.565 79.112 176.089 80.642 174.055 80.642C172.039 80.642 170.563 79.112 170.563 76.934C170.563 74.738 172.039 73.208 174.055 73.208ZM174.055 74.486C172.813 74.486 171.913 75.494 171.913 76.934C171.913 78.374 172.813 79.382 174.055 79.382C175.315 79.382 176.233 78.374 176.233 76.934C176.233 75.494 175.315 74.486 174.055 74.486ZM182.389 68.132H183.829V84.404H182.389V68.132ZM179.797 74.972H182.875V76.214H179.797V74.972ZM178.915 68.492H180.319V83.612H178.915V68.492ZM173.335 68.6H174.811V71.66H173.335V68.6ZM186.618 81.092H201.36V82.334H186.618V81.092ZM193.206 77.204H194.7V81.452H193.206V77.204ZM188.346 69.284H189.822V72.182H198.12V69.284H199.596V77.6H188.346V69.284ZM189.822 73.388V76.376H198.12V73.388H189.822ZM207.19 70.454H208.378V73.1C208.378 76.484 206.308 79.976 203.77 81.272L202.906 80.084C205.228 78.95 207.19 75.854 207.19 73.1V70.454ZM207.46 70.454H208.648V73.1C208.648 75.674 210.484 78.572 212.842 79.688L211.996 80.876C209.422 79.598 207.46 76.322 207.46 73.1V70.454ZM203.482 69.788H212.248V71.048H203.482V69.788ZM214.174 68.132H215.686V84.404H214.174V68.132ZM215.326 74.702H218.35V75.962H215.326V74.702ZM222.368 70.2031L222.157 79.2295H220.347L220.127 70.2031H222.368ZM220.065 81.998C220.065 81.6758 220.171 81.4062 220.382 81.1895C220.599 80.9668 220.897 80.8555 221.278 80.8555C221.653 80.8555 221.949 80.9668 222.166 81.1895C222.383 81.4062 222.491 81.6758 222.491 81.998C222.491 82.3086 222.383 82.5752 222.166 82.7979C221.949 83.0146 221.653 83.123 221.278 83.123C220.897 83.123 220.599 83.0146 220.382 82.7979C220.171 82.5752 220.065 82.3086 220.065 81.998Z" fill="#3C3C3C"/>
</svg>
