<svg width="243" height="70" viewBox="0 0 243 70" fill="none" xmlns="http://www.w3.org/2000/svg">
<path fill-rule="evenodd" clip-rule="evenodd" d="M48.6976 7.81144C68.2187 5.33078 92.915 4.64566 121.5 4.64566C190.651 4.64566 243 7.47519 243 37.2961C243 70.2955 195.943 70.1549 135.374 69.9739C130.821 69.9603 126.192 69.9465 121.5 69.9465C117.136 69.9465 112.825 69.9574 108.579 69.9682C47.5514 70.1233 0 70.2442 0 37.2961C0 25.375 8.60928 17.6924 24.1471 12.7975C24.9066 10.3235 25.3512 7.95038 25.8667 4.31034C26.7237 -1.74099 32.1914 -0.123465 34.8181 1.44171C36.2933 2.48226 40.9734 5.06893 48.6976 7.81144Z" fill="#FFEEA0" fill-opacity="0.8"/>
<path d="M61.826 21.132H63.266V37.404H61.826V21.132ZM54.77 27.774H58.874V28.98H54.77V27.774ZM58.442 21.546H59.846V36.576H58.442V21.546ZM54.968 23.184H56.408C56.408 27.45 54.698 31.284 50.306 33.894L49.424 32.832C53.258 30.528 54.968 27.288 54.968 23.454V23.184ZM50.144 23.184H55.526V24.408H50.144V23.184ZM77.8266 21.15H79.3386V30.438H77.8266V21.15ZM68.8266 31.32H79.3386V37.188H68.8266V31.32ZM77.8626 32.508H70.2846V35.982H77.8626V32.508ZM70.6086 21.996C73.0746 21.996 74.8386 23.544 74.8386 25.794C74.8386 28.044 73.0746 29.592 70.6086 29.592C68.1426 29.592 66.3606 28.044 66.3606 25.794C66.3606 23.544 68.1426 21.996 70.6086 21.996ZM70.6086 23.238C68.9886 23.238 67.8186 24.282 67.8186 25.794C67.8186 27.306 68.9886 28.332 70.6086 28.332C72.2286 28.332 73.3986 27.306 73.3986 25.794C73.3986 24.282 72.2286 23.238 70.6086 23.238ZM87.8332 22.302C90.3712 22.302 92.1892 23.868 92.1892 26.136C92.1892 28.422 90.3712 29.988 87.8332 29.988C85.2952 29.988 83.4592 28.422 83.4592 26.136C83.4592 23.868 85.2952 22.302 87.8332 22.302ZM87.8332 23.598C86.1412 23.598 84.9172 24.624 84.9172 26.136C84.9172 27.648 86.1412 28.692 87.8332 28.692C89.5072 28.692 90.7312 27.648 90.7312 26.136C90.7312 24.624 89.5072 23.598 87.8332 23.598ZM94.3132 21.114H95.8072V37.422H94.3132V21.114ZM82.8472 33.858L82.6312 32.616C85.6012 32.616 89.7052 32.598 93.2512 32.04L93.3772 33.138C89.7232 33.84 85.7452 33.858 82.8472 33.858ZM107.92 22.914H109.162V24.57C109.162 27.558 107.326 30.06 104.59 31.05L103.816 29.862C106.264 28.998 107.92 26.892 107.92 24.57V22.914ZM108.208 22.914H109.45V24.57C109.45 26.766 111.142 28.746 113.554 29.556L112.78 30.726C110.08 29.808 108.208 27.432 108.208 24.57V22.914ZM104.212 22.482H113.122V23.688H104.212V22.482ZM115.426 21.15H116.938V33.048H115.426V21.15ZM106.48 35.82H117.424V37.044H106.48V35.82ZM106.48 31.932H107.956V36.36H106.48V31.932ZM132.435 21.132H133.857V31.428H132.435V21.132ZM129.789 25.542H132.867V26.784H129.789V25.542ZM128.961 21.456H130.365V30.852H128.961V21.456ZM120.069 23.076H128.313V24.264H120.069V23.076ZM124.209 25.092C126.243 25.092 127.665 26.208 127.665 27.882C127.665 29.574 126.243 30.672 124.209 30.672C122.157 30.672 120.735 29.574 120.735 27.882C120.735 26.208 122.157 25.092 124.209 25.092ZM124.209 26.208C122.931 26.208 122.067 26.874 122.067 27.882C122.067 28.908 122.931 29.556 124.209 29.556C125.469 29.556 126.333 28.908 126.333 27.882C126.333 26.874 125.469 26.208 124.209 26.208ZM123.471 21.258H124.929V23.742H123.471V21.258ZM128.529 31.716C131.913 31.716 133.947 32.724 133.947 34.542C133.947 36.342 131.913 37.368 128.529 37.368C125.109 37.368 123.093 36.342 123.093 34.542C123.093 32.724 125.109 31.716 128.529 31.716ZM128.529 32.868C126.027 32.868 124.569 33.462 124.569 34.542C124.569 35.622 126.027 36.234 128.529 36.234C130.995 36.234 132.471 35.622 132.471 34.542C132.471 33.462 130.995 32.868 128.529 32.868ZM145.142 21.978H146.384V23.634C146.384 26.766 144.62 29.358 141.902 30.42L141.11 29.214C143.558 28.314 145.142 26.118 145.142 23.634V21.978ZM145.412 21.978H146.636V23.742C146.636 25.938 148.256 27.972 150.596 28.782L149.804 29.952C147.194 28.98 145.412 26.568 145.412 23.742V21.978ZM152.324 21.132H153.818V30.996H152.324V21.132ZM153.404 25.326H156.23V26.586H153.404V25.326ZM148.634 31.446C151.964 31.446 153.98 32.544 153.98 34.416C153.98 36.288 151.964 37.368 148.634 37.368C145.304 37.368 143.288 36.288 143.288 34.416C143.288 32.544 145.304 31.446 148.634 31.446ZM148.634 32.634C146.222 32.634 144.746 33.282 144.746 34.416C144.746 35.55 146.222 36.198 148.634 36.198C151.046 36.198 152.522 35.55 152.522 34.416C152.522 33.282 151.046 32.634 148.634 32.634ZM168.864 21.15H170.358V32.166H168.864V21.15ZM169.728 26.028H172.734V27.288H169.728V26.028ZM165.138 32.382C168.522 32.382 170.484 33.264 170.484 34.884C170.484 36.504 168.522 37.386 165.138 37.386C161.772 37.386 159.81 36.504 159.81 34.884C159.81 33.264 161.772 32.382 165.138 32.382ZM165.138 33.498C162.672 33.498 161.304 33.984 161.304 34.884C161.304 35.784 162.672 36.27 165.138 36.27C167.586 36.27 168.972 35.784 168.972 34.884C168.972 33.984 167.586 33.498 165.138 33.498ZM162.006 28.53H163.5V30.762H162.006V28.53ZM157.848 31.446L157.65 30.258C160.566 30.258 164.562 30.222 167.892 29.736L168.018 30.78C164.562 31.41 160.692 31.446 157.848 31.446ZM158.064 22.536H167.406V23.652H158.064V22.536ZM162.744 24.336C165.048 24.336 166.524 25.2 166.524 26.64C166.524 28.08 165.048 28.944 162.744 28.944C160.44 28.944 158.946 28.08 158.946 26.64C158.946 25.2 160.44 24.336 162.744 24.336ZM162.744 25.344C161.286 25.344 160.35 25.848 160.35 26.64C160.35 27.45 161.286 27.936 162.744 27.936C164.202 27.936 165.12 27.45 165.12 26.64C165.12 25.848 164.202 25.344 162.744 25.344ZM162.006 21.006H163.5V22.95H162.006V21.006ZM181.661 21.402C185.243 21.402 187.385 22.41 187.385 24.228C187.385 26.046 185.243 27.054 181.661 27.054C178.061 27.054 175.937 26.046 175.937 24.228C175.937 22.41 178.061 21.402 181.661 21.402ZM181.661 22.536C178.997 22.536 177.467 23.148 177.467 24.228C177.467 25.308 178.997 25.92 181.661 25.92C184.307 25.92 185.837 25.308 185.837 24.228C185.837 23.148 184.307 22.536 181.661 22.536ZM174.299 28.134H189.005V29.34H174.299V28.134ZM176.081 30.726H187.133V34.398H177.593V36.378H176.117V33.318H185.657V31.878H176.081V30.726ZM176.117 36.054H187.619V37.224H176.117V36.054ZM75.2337 43.878H84.2877V45.102H75.2337V43.878ZM74.9997 54.39L74.8197 53.112C77.7537 53.112 81.6957 53.076 85.0437 52.662L85.1337 53.778C81.7317 54.336 77.8617 54.39 74.9997 54.39ZM76.9797 44.796H78.4377V53.454H76.9797V44.796ZM81.0837 44.796H82.5417V53.454H81.0837V44.796ZM86.0337 42.132H87.5457V58.404H86.0337V42.132ZM87.1857 48.63H90.2097V49.89H87.1857V48.63ZM96.1303 43.086C98.5783 43.086 100.378 44.67 100.378 46.956C100.378 49.224 98.5783 50.79 96.1303 50.79C93.6823 50.79 91.8823 49.224 91.8823 46.956C91.8823 44.67 93.6823 43.086 96.1303 43.086ZM96.1303 44.364C94.5103 44.364 93.3403 45.408 93.3403 46.956C93.3403 48.486 94.5103 49.548 96.1303 49.548C97.7503 49.548 98.9203 48.486 98.9203 46.956C98.9203 45.408 97.7503 44.364 96.1303 44.364ZM102.718 42.132H104.212V51.708H102.718V42.132ZM103.798 46.308H106.624V47.568H103.798V46.308ZM93.6463 52.554H104.212V58.422H102.718V53.76H93.6463V52.554ZM108.117 44.904H116.181V46.128H108.117V44.904ZM112.149 47.208C114.183 47.208 115.659 48.738 115.659 50.934C115.659 53.112 114.183 54.642 112.149 54.642C110.133 54.642 108.657 53.112 108.657 50.934C108.657 48.738 110.133 47.208 112.149 47.208ZM112.149 48.486C110.907 48.486 110.007 49.494 110.007 50.934C110.007 52.374 110.907 53.382 112.149 53.382C113.409 53.382 114.327 52.374 114.327 50.934C114.327 49.494 113.409 48.486 112.149 48.486ZM120.483 42.132H121.923V58.404H120.483V42.132ZM117.891 48.972H120.969V50.214H117.891V48.972ZM117.009 42.492H118.413V57.612H117.009V42.492ZM111.429 42.6H112.905V45.66H111.429V42.6ZM124.712 55.092H139.454V56.334H124.712V55.092ZM131.3 51.204H132.794V55.452H131.3V51.204ZM126.44 43.284H127.916V46.182H136.214V43.284H137.69V51.6H126.44V43.284ZM127.916 47.388V50.376H136.214V47.388H127.916ZM145.284 44.454H146.472V47.1C146.472 50.484 144.402 53.976 141.864 55.272L141 54.084C143.322 52.95 145.284 49.854 145.284 47.1V44.454ZM145.554 44.454H146.742V47.1C146.742 49.674 148.578 52.572 150.936 53.688L150.09 54.876C147.516 53.598 145.554 50.322 145.554 47.1V44.454ZM141.576 43.788H150.342V45.048H141.576V43.788ZM152.268 42.132H153.78V58.404H152.268V42.132ZM153.42 48.702H156.444V49.962H153.42V48.702ZM166.192 50.1006L167.818 50.0918C167.818 50.5957 167.748 51.0615 167.607 51.4893C167.467 51.9111 167.268 52.2773 167.01 52.5879C166.758 52.8984 166.453 53.1416 166.096 53.3174C165.744 53.4873 165.357 53.5723 164.936 53.5723C164.443 53.5723 164.007 53.4756 163.626 53.2822C163.251 53.083 162.847 52.7842 162.413 52.3857C162.144 52.1279 161.892 51.9316 161.657 51.7969C161.423 51.6562 161.171 51.5859 160.901 51.5859C160.638 51.5859 160.412 51.6562 160.225 51.7969C160.037 51.9316 159.891 52.125 159.785 52.377C159.68 52.6289 159.627 52.9219 159.627 53.2559H157.957C157.957 52.7461 158.027 52.2832 158.168 51.8672C158.309 51.4453 158.505 51.085 158.757 50.7861C159.015 50.4814 159.319 50.2471 159.671 50.083C160.022 49.9189 160.409 49.8369 160.831 49.8369C161.323 49.8369 161.766 49.9395 162.158 50.1445C162.557 50.3496 162.961 50.6426 163.371 51.0234C163.652 51.293 163.907 51.4951 164.136 51.6299C164.364 51.7646 164.607 51.832 164.865 51.832C165.129 51.832 165.36 51.7588 165.56 51.6123C165.759 51.46 165.914 51.252 166.025 50.9883C166.137 50.7246 166.192 50.4287 166.192 50.1006Z" fill="#3C3C3C"/>
</svg>
