<svg width="295" height="118" viewBox="0 0 295 118" fill="none" xmlns="http://www.w3.org/2000/svg">
<path fill-rule="evenodd" clip-rule="evenodd" d="M164.343 101.869C237.874 102.151 295 102.371 295 50.9133C295 4.41222 231.449 0 147.5 0C58.0753 0 0 7.09446 0 50.9133C0 80.2001 18.7577 92.7313 48.611 98.0481C48.9177 98.3525 49.2311 98.6583 49.5512 98.9655C53.2912 104.544 54.839 108.608 55.1454 109.942C55.7924 111.9 58.0485 115.028 61.8974 111.881C65.7462 108.734 67.5411 107.529 71.7875 105.351C73.6946 104.373 76.1778 103.506 78.8539 102.573C79.9901 102.176 81.1611 101.768 82.3376 101.333C97.5369 101.972 114.214 101.918 131.815 101.86C136.969 101.844 142.202 101.826 147.5 101.826C153.196 101.826 158.816 101.848 164.343 101.869Z" fill="#FFEEA0" fill-opacity="0.8"/>
<path d="M27.8718 33.514H29.3478V35.71H27.8718V33.514ZM28.6278 28.33C32.2098 28.33 34.3518 29.32 34.3518 31.138C34.3518 32.956 32.2098 33.964 28.6278 33.964C25.0278 33.964 22.9038 32.956 22.9038 31.138C22.9038 29.32 25.0278 28.33 28.6278 28.33ZM28.6278 29.464C25.9638 29.464 24.4338 30.076 24.4338 31.138C24.4338 32.218 25.9638 32.83 28.6278 32.83C31.2738 32.83 32.8038 32.218 32.8038 31.138C32.8038 30.076 31.2738 29.464 28.6278 29.464ZM21.2658 35.17H35.9718V36.394H21.2658V35.17ZM23.0478 37.726H34.0998V41.416H24.5598V43.396H23.0838V40.318H32.6238V38.896H23.0478V37.726ZM23.0838 43.054H34.5858V44.224H23.0838V43.054ZM37.8064 30.904H45.8704V32.128H37.8064V30.904ZM41.8384 33.208C43.8724 33.208 45.3484 34.738 45.3484 36.934C45.3484 39.112 43.8724 40.642 41.8384 40.642C39.8224 40.642 38.3464 39.112 38.3464 36.934C38.3464 34.738 39.8224 33.208 41.8384 33.208ZM41.8384 34.486C40.5964 34.486 39.6964 35.494 39.6964 36.934C39.6964 38.374 40.5964 39.382 41.8384 39.382C43.0984 39.382 44.0164 38.374 44.0164 36.934C44.0164 35.494 43.0984 34.486 41.8384 34.486ZM50.1724 28.132H51.6124V44.404H50.1724V28.132ZM47.5804 34.972H50.6584V36.214H47.5804V34.972ZM46.6984 28.492H48.1024V43.612H46.6984V28.492ZM41.1184 28.6H42.5944V31.66H41.1184V28.6ZM60.989 34.45H64.067V35.692H60.989V34.45ZM66.785 28.132H68.225V44.404H66.785V28.132ZM63.563 28.474H64.985V43.594H63.563V28.474ZM58.055 29.482C60.161 29.482 61.529 31.66 61.529 35.152C61.529 38.644 60.161 40.822 58.055 40.822C55.949 40.822 54.599 38.644 54.599 35.152C54.599 31.66 55.949 29.482 58.055 29.482ZM58.055 30.868C56.777 30.868 55.967 32.524 55.967 35.152C55.967 37.78 56.777 39.436 58.055 39.436C59.351 39.436 60.161 37.78 60.161 35.152C60.161 32.524 59.351 30.868 58.055 30.868ZM87.25 28.114H88.744V44.422H87.25V28.114ZM80.158 29.374C82.57 29.374 84.298 31.588 84.298 35.044C84.298 38.518 82.57 40.732 80.158 40.732C77.764 40.732 76.036 38.518 76.036 35.044C76.036 31.588 77.764 29.374 80.158 29.374ZM80.158 30.724C78.574 30.724 77.458 32.416 77.458 35.044C77.458 37.69 78.574 39.418 80.158 39.418C81.76 39.418 82.858 37.69 82.858 35.044C82.858 32.416 81.76 30.724 80.158 30.724ZM102.999 29.734H104.295V30.418C104.295 33.334 101.199 35.476 97.923 36.034L97.347 34.846C100.209 34.432 102.999 32.56 102.999 30.418V29.734ZM103.377 29.734H104.655V30.418C104.655 32.56 107.463 34.432 110.307 34.846L109.749 36.034C106.455 35.476 103.377 33.334 103.377 30.418V29.734ZM103.053 38.194H104.529V44.404H103.053V38.194ZM96.483 37.402H111.189V38.626H96.483V37.402ZM97.851 29.14H109.767V30.346H97.851V29.14ZM117.272 28.906H118.514V30.49C118.514 33.568 116.678 36.214 113.924 37.258L113.168 36.07C115.634 35.17 117.272 32.92 117.272 30.49V28.906ZM117.542 28.906H118.766V30.49C118.766 32.83 120.44 34.936 122.852 35.782L122.096 36.952C119.378 35.962 117.542 33.478 117.542 30.49V28.906ZM115.508 38.752H126.38V44.404H124.868V39.976H115.508V38.752ZM124.868 28.132H126.38V37.924H124.868V28.132ZM141.408 28.114H142.902V44.422H141.408V28.114ZM134.316 29.374C136.728 29.374 138.456 31.588 138.456 35.044C138.456 38.518 136.728 40.732 134.316 40.732C131.922 40.732 130.194 38.518 130.194 35.044C130.194 31.588 131.922 29.374 134.316 29.374ZM134.316 30.724C132.732 30.724 131.616 32.416 131.616 35.044C131.616 37.69 132.732 39.418 134.316 39.418C135.918 39.418 137.016 37.69 137.016 35.044C137.016 32.416 135.918 30.724 134.316 30.724ZM151.055 34.666H151.775C152.729 34.666 153.935 34.63 155.339 34.324L155.501 35.512C153.989 35.836 152.783 35.854 151.775 35.854H151.055V34.666ZM151.055 29.086H155.123V30.274H152.531V35.422H151.055V29.086ZM156.059 34.666H156.869C158.597 34.666 159.767 34.63 161.153 34.306L161.297 35.494C159.839 35.818 158.651 35.854 156.869 35.854H156.059V34.666ZM156.059 29.086H160.541V30.274H157.517V35.422H156.059V29.086ZM153.287 37.348H164.195V41.236H154.835V43.594H153.323V40.12H162.701V38.536H153.287V37.348ZM153.323 43H164.771V44.188H153.323V43ZM162.701 28.132H164.195V36.52H162.701V28.132ZM159.713 31.696H163.781V32.848H159.713V31.696ZM171.538 29.374C173.896 29.374 175.588 31.588 175.588 35.044C175.588 38.518 173.896 40.732 171.538 40.732C169.162 40.732 167.488 38.518 167.488 35.044C167.488 31.588 169.162 29.374 171.538 29.374ZM171.538 30.724C169.972 30.724 168.91 32.416 168.91 35.044C168.91 37.69 169.972 39.418 171.538 39.418C173.104 39.418 174.166 37.69 174.166 35.044C174.166 32.416 173.104 30.724 171.538 30.724ZM179.116 28.114H180.592V44.422H179.116V28.114ZM175.102 34.324H179.764V35.548H175.102V34.324ZM195.584 28.132H197.078V36.556H195.584V28.132ZM186.566 37.348H197.096V41.254H188.06V43.576H186.602V40.174H195.62V38.536H186.566V37.348ZM186.602 43.036H197.636V44.224H186.602V43.036ZM188.078 29.572H189.302V30.418C189.302 33.298 187.43 35.674 184.676 36.592L183.974 35.422C186.404 34.63 188.078 32.632 188.078 30.418V29.572ZM188.384 29.572H189.608V30.418C189.608 32.488 191.3 34.36 193.712 35.098L193.01 36.25C190.274 35.404 188.384 33.154 188.384 30.418V29.572ZM184.37 29.05H193.28V30.256H184.37V29.05ZM216.679 28.132H218.173V39.148H216.679V28.132ZM213.187 32.722H216.985V33.946H213.187V32.722ZM211.567 29.41H213.133C213.133 33.622 210.361 36.61 205.699 38.122L205.069 36.934C209.191 35.638 211.567 33.19 211.567 30.004V29.41ZM205.843 29.41H212.629V30.634H205.843V29.41ZM212.179 37.744H213.457V38.482C213.457 41.596 210.613 43.702 207.355 44.368L206.761 43.18C209.641 42.658 212.179 40.858 212.179 38.482V37.744ZM212.395 37.744H213.673V38.482C213.673 40.822 216.175 42.622 219.073 43.144L218.443 44.332C215.203 43.684 212.395 41.578 212.395 38.482V37.744ZM236.964 28.132H238.458V36.826H236.964V28.132ZM238.044 31.894H240.87V33.136H238.044V31.894ZM232.464 29.266H234.12C234.12 33.37 231.258 36.034 226.488 37.132L225.894 35.926C230.178 34.972 232.464 32.794 232.464 30.076V29.266ZM226.56 29.266H233.328V30.49H226.56V29.266ZM228.216 37.564H238.548V38.698H229.692V43.63H228.216V37.564ZM228.216 43.054H238.908V44.188H228.216V43.054ZM229.188 40.282H238.35V41.38H229.188V40.282ZM253.397 28.114H254.909V44.422H253.397V28.114ZM254.549 34.54H257.573V35.8H254.549V34.54ZM243.083 39.112H244.361C247.367 39.112 249.473 39.004 251.903 38.554L252.065 39.814C249.563 40.282 247.421 40.372 244.361 40.372H243.083V39.112ZM243.083 29.698H250.643V30.922H244.559V39.67H243.083V29.698ZM266.752 30.994H271.306V32.218H266.752V30.994ZM266.752 34.468H271.342V35.71H266.752V34.468ZM259.696 29.536H267.13V37.168H259.696V29.536ZM265.654 30.742H261.154V35.962H265.654V30.742ZM270.838 28.15H272.332V40.03H270.838V28.15ZM261.874 42.82H272.728V44.044H261.874V42.82ZM261.874 38.95H263.368V43.378H261.874V38.95ZM87.826 49.132H89.266V65.404H87.826V49.132ZM85.252 55.576H88.366V56.8H85.252V55.576ZM84.226 49.474H85.648V64.594H84.226V49.474ZM76.018 51.004H82.228V61.048H76.018V51.004ZM80.824 52.192H77.422V59.86H80.824V52.192ZM93.8546 56.728H105.033V57.952H93.8546V56.728ZM92.0006 62.11H106.743V63.37H92.0006V62.11ZM98.5886 57.25H100.083V62.614H98.5886V57.25ZM93.8546 50.428H104.871V51.652H95.3486V57.268H93.8546V50.428ZM124.958 49.114H126.434V65.422H124.958V49.114ZM120.656 55.162H125.39V56.386H120.656V55.162ZM113.69 50.41H115.166V54.64H119.684V50.41H121.16V61.336H113.69V50.41ZM115.166 55.828V60.094H119.684V55.828H115.166ZM129.582 58.132H144.288V59.356H129.582V58.132ZM131.472 63.82H142.758V65.044H131.472V63.82ZM131.472 60.544H132.966V64.288H131.472V60.544ZM131.526 55.468H142.56V56.638H131.526V55.468ZM131.526 49.726H142.488V50.914H133.002V55.918H131.526V49.726ZM132.57 52.588H142.056V53.722H132.57V52.588ZM153.503 49.402C157.085 49.402 159.227 50.41 159.227 52.228C159.227 54.046 157.085 55.054 153.503 55.054C149.903 55.054 147.779 54.046 147.779 52.228C147.779 50.41 149.903 49.402 153.503 49.402ZM153.503 50.536C150.839 50.536 149.309 51.148 149.309 52.228C149.309 53.308 150.839 53.92 153.503 53.92C156.149 53.92 157.679 53.308 157.679 52.228C157.679 51.148 156.149 50.536 153.503 50.536ZM146.141 56.134H160.847V57.34H146.141V56.134ZM147.923 58.726H158.975V62.398H149.435V64.378H147.959V61.318H157.499V59.878H147.923V58.726ZM147.959 64.054H159.461V65.224H147.959V64.054ZM173.788 56.26H175.264V59.176H173.788V56.26ZM169.18 53.002H180.214V54.226H169.18V53.002ZM167.182 55.63H181.942V56.836H167.182V55.63ZM169.18 49.366H170.638V53.56H169.18V49.366ZM169.018 58.546H180.07V62.308H170.53V64.468H169.054V61.21H178.576V59.716H169.018V58.546ZM169.054 64.054H180.61V65.224H169.054V64.054ZM195.638 49.114H197.132V65.422H195.638V49.114ZM192.542 55.378H195.998V56.602H192.542V55.378ZM184.352 60.274H185.594C188.474 60.274 190.508 60.184 192.902 59.752L193.046 60.994C190.598 61.426 188.528 61.534 185.594 61.534H184.352V60.274ZM184.316 50.644H191.588V56.35H185.828V60.652H184.352V55.126H190.112V51.868H184.316V50.644ZM208.435 54.64H212.971V55.864H208.435V54.64ZM204.511 50.536H205.735V53.434C205.735 57.088 203.809 60.58 201.235 61.966L200.281 60.778C202.675 59.59 204.511 56.458 204.511 53.434V50.536ZM204.799 50.536H206.005V53.434C206.005 56.404 207.841 59.356 210.199 60.472L209.317 61.678C206.689 60.346 204.799 56.998 204.799 53.434V50.536ZM212.233 49.114H213.709V65.422H212.233V49.114ZM81.8174 71.734H83.1134V72.418C83.1134 75.334 80.0174 77.476 76.7414 78.034L76.1654 76.846C79.0274 76.432 81.8174 74.56 81.8174 72.418V71.734ZM82.1954 71.734H83.4734V72.418C83.4734 74.56 86.2814 76.432 89.1254 76.846L88.5674 78.034C85.2734 77.476 82.1954 75.334 82.1954 72.418V71.734ZM81.8714 80.194H83.3474V86.404H81.8714V80.194ZM75.3014 79.402H90.0074V80.626H75.3014V79.402ZM76.6694 71.14H88.5854V72.346H76.6694V71.14ZM96.09 70.906H97.332V72.49C97.332 75.568 95.496 78.214 92.742 79.258L91.986 78.07C94.452 77.17 96.09 74.92 96.09 72.49V70.906ZM96.36 70.906H97.584V72.49C97.584 74.83 99.258 76.936 101.67 77.782L100.914 78.952C98.196 77.962 96.36 75.478 96.36 72.49V70.906ZM94.326 80.752H105.198V86.404H103.686V81.976H94.326V80.752ZM103.686 70.132H105.198V79.924H103.686V70.132ZM115.763 70.402C119.345 70.402 121.487 71.41 121.487 73.228C121.487 75.046 119.345 76.054 115.763 76.054C112.163 76.054 110.039 75.046 110.039 73.228C110.039 71.41 112.163 70.402 115.763 70.402ZM115.763 71.536C113.099 71.536 111.569 72.148 111.569 73.228C111.569 74.308 113.099 74.92 115.763 74.92C118.409 74.92 119.939 74.308 119.939 73.228C119.939 72.148 118.409 71.536 115.763 71.536ZM108.401 77.134H123.107V78.34H108.401V77.134ZM110.183 79.726H121.235V83.398H111.695V85.378H110.219V82.318H119.759V80.878H110.183V79.726ZM110.219 85.054H121.721V86.224H110.219V85.054ZM141.844 70.132H143.284V86.404H141.844V70.132ZM139.27 76.576H142.384V77.8H139.27V76.576ZM138.244 70.474H139.666V85.594H138.244V70.474ZM130.036 72.004H136.246V82.048H130.036V72.004ZM134.842 73.192H131.44V80.86H134.842V73.192ZM147.872 77.728H159.05V78.952H147.872V77.728ZM146.018 83.11H160.76V84.37H146.018V83.11ZM152.606 78.25H154.1V83.614H152.606V78.25ZM147.872 71.428H158.888V72.652H149.366V78.268H147.872V71.428ZM162.541 72.904H170.605V74.128H162.541V72.904ZM166.573 75.208C168.607 75.208 170.083 76.738 170.083 78.934C170.083 81.112 168.607 82.642 166.573 82.642C164.557 82.642 163.081 81.112 163.081 78.934C163.081 76.738 164.557 75.208 166.573 75.208ZM166.573 76.486C165.331 76.486 164.431 77.494 164.431 78.934C164.431 80.374 165.331 81.382 166.573 81.382C167.833 81.382 168.751 80.374 168.751 78.934C168.751 77.494 167.833 76.486 166.573 76.486ZM174.907 70.132H176.347V86.404H174.907V70.132ZM172.315 76.972H175.393V78.214H172.315V76.972ZM171.433 70.492H172.837V85.612H171.433V70.492ZM165.853 70.6H167.329V73.66H165.853V70.6ZM183.618 83.092H198.36V84.334H183.618V83.092ZM190.206 79.204H191.7V83.452H190.206V79.204ZM185.346 71.284H186.822V74.182H195.12V71.284H196.596V79.6H185.346V71.284ZM186.822 75.388V78.376H195.12V75.388H186.822ZM204.19 72.454H205.378V75.1C205.378 78.484 203.308 81.976 200.77 83.272L199.906 82.084C202.228 80.95 204.19 77.854 204.19 75.1V72.454ZM204.46 72.454H205.648V75.1C205.648 77.674 207.484 80.572 209.842 81.688L208.996 82.876C206.422 81.598 204.46 78.322 204.46 75.1V72.454ZM200.482 71.788H209.248V73.048H200.482V71.788ZM211.174 70.132H212.686V86.404H211.174V70.132ZM212.326 76.702H215.35V77.962H212.326V76.702ZM219.368 72.2031L219.157 81.2295H217.347L217.127 72.2031H219.368ZM217.065 83.998C217.065 83.6758 217.171 83.4062 217.382 83.1895C217.599 82.9668 217.897 82.8555 218.278 82.8555C218.653 82.8555 218.949 82.9668 219.166 83.1895C219.383 83.4062 219.491 83.6758 219.491 83.998C219.491 84.3086 219.383 84.5752 219.166 84.7979C218.949 85.0146 218.653 85.123 218.278 85.123C217.897 85.123 217.599 85.0146 217.382 84.7979C217.171 84.5752 217.065 84.3086 217.065 83.998Z" fill="#3C3C3C"/>
</svg>
