<svg width="300" height="118" viewBox="0 0 300 118" fill="none" xmlns="http://www.w3.org/2000/svg">
<path fill-rule="evenodd" clip-rule="evenodd" d="M230.719 100.426C248.928 94.6177 260 82.9203 260 59.492C260 17.0291 210.452 13 145 13C75.2791 13 30 19.4784 30 59.492C30 106.408 75.0075 106.236 132.771 106.015C136.789 106 140.869 105.984 145 105.984C149.441 105.984 153.823 106.004 158.132 106.023C177.74 106.111 195.851 106.193 211.196 104.382C211.534 104.51 211.877 104.637 212.227 104.762C216.824 107.749 219.339 110.387 220.021 111.333C221.162 112.642 223.853 114.255 225.487 110.231C227.12 106.208 227.973 104.541 230.226 101.135C230.38 100.902 230.545 100.665 230.719 100.426Z" fill="#FFEEA0" fill-opacity="0.8"/>
<path d="M68.7674 43.132H70.2074V59.404H68.7674V43.132ZM61.7114 49.774H65.8154V50.98H61.7114V49.774ZM65.3834 43.546H66.7874V58.576H65.3834V43.546ZM61.9094 45.184H63.3494C63.3494 49.45 61.6394 53.284 57.2474 55.894L56.3654 54.832C60.1994 52.528 61.9094 49.288 61.9094 45.454V45.184ZM57.0854 45.184H62.4674V46.408H57.0854V45.184ZM84.768 43.15H86.28V52.438H84.768V43.15ZM75.768 53.32H86.28V59.188H75.768V53.32ZM84.804 54.508H77.226V57.982H84.804V54.508ZM77.55 43.996C80.016 43.996 81.78 45.544 81.78 47.794C81.78 50.044 80.016 51.592 77.55 51.592C75.084 51.592 73.302 50.044 73.302 47.794C73.302 45.544 75.084 43.996 77.55 43.996ZM77.55 45.238C75.93 45.238 74.76 46.282 74.76 47.794C74.76 49.306 75.93 50.332 77.55 50.332C79.17 50.332 80.34 49.306 80.34 47.794C80.34 46.282 79.17 45.238 77.55 45.238ZM96.8446 43.402C100.427 43.402 102.569 44.41 102.569 46.228C102.569 48.046 100.427 49.054 96.8446 49.054C93.2446 49.054 91.1206 48.046 91.1206 46.228C91.1206 44.41 93.2446 43.402 96.8446 43.402ZM96.8446 44.536C94.1806 44.536 92.6506 45.148 92.6506 46.228C92.6506 47.308 94.1806 47.92 96.8446 47.92C99.4906 47.92 101.021 47.308 101.021 46.228C101.021 45.148 99.4906 44.536 96.8446 44.536ZM89.4826 50.134H104.189V51.34H89.4826V50.134ZM91.2646 52.726H102.317V56.398H92.7766V58.378H91.3006V55.318H100.841V53.878H91.2646V52.726ZM91.3006 58.054H102.803V59.224H91.3006V58.054ZM114.826 44.536H116.05V47.452C116.05 51.196 114.034 54.67 111.37 56.02L110.452 54.796C112.864 53.644 114.826 50.53 114.826 47.452V44.536ZM115.078 44.536H116.302V47.452C116.302 50.422 118.246 53.41 120.658 54.526L119.758 55.714C117.112 54.418 115.078 51.07 115.078 47.452V44.536ZM122.35 43.114H123.844V59.422H122.35V43.114ZM131.096 44.806H132.32V46.12C132.32 49.108 130.52 51.592 127.802 52.564L127.01 51.394C129.476 50.53 131.096 48.442 131.096 46.12V44.806ZM131.366 44.806H132.59V46.102C132.59 48.262 134.156 50.26 136.55 51.07L135.776 52.24C133.094 51.304 131.366 48.91 131.366 46.102V44.806ZM127.478 44.266H136.172V45.49H127.478V44.266ZM138.224 43.132H139.718V52.924H138.224V43.132ZM139.304 47.416H142.13V48.658H139.304V47.416ZM129.152 53.788H139.718V59.404H138.224V55.03H129.152V53.788ZM154.675 43.132H156.169V59.404H154.675V43.132ZM155.809 49.81H158.833V51.07H155.809V49.81ZM143.569 45.724H153.163V46.948H143.569V45.724ZM148.429 48.298C150.733 48.298 152.389 49.846 152.389 52.042C152.389 54.238 150.733 55.786 148.429 55.786C146.143 55.786 144.469 54.238 144.469 52.042C144.469 49.846 146.143 48.298 148.429 48.298ZM148.429 49.54C146.953 49.54 145.891 50.566 145.891 52.042C145.891 53.5 146.953 54.544 148.429 54.544C149.905 54.544 150.967 53.5 150.967 52.042C150.967 50.566 149.905 49.54 148.429 49.54ZM147.655 43.33H149.149V46.282H147.655V43.33ZM161.765 44.752H172.241V45.994H161.765V44.752ZM160.217 55.894H174.923V57.136H160.217V55.894ZM165.923 50.08H167.417V56.506H165.923V50.08ZM171.683 44.752H173.159V46.372C173.159 48.388 173.159 50.62 172.565 53.914L171.071 53.716C171.683 50.602 171.683 48.316 171.683 46.372V44.752ZM193.084 43.15H194.596V52.168H193.084V43.15ZM185.488 43.726H186.73V45.31C186.73 48.316 184.858 50.854 182.104 51.844L181.348 50.674C183.796 49.81 185.488 47.65 185.488 45.31V43.726ZM185.758 43.726H186.982V45.31C186.982 47.578 188.692 49.576 191.104 50.368L190.366 51.556C187.63 50.62 185.758 48.226 185.758 45.31V43.726ZM183.832 53.14H194.686V54.364H183.832V53.14ZM183.67 57.982H194.866V59.188H183.67V57.982ZM186.064 53.662H187.522V58.684H186.064V53.662ZM190.996 53.662H192.472V58.684H190.996V53.662ZM208.815 43.114H210.327V59.422H208.815V43.114ZM209.967 49.54H212.991V50.8H209.967V49.54ZM198.501 54.112H199.779C202.785 54.112 204.891 54.004 207.321 53.554L207.483 54.814C204.981 55.282 202.839 55.372 199.779 55.372H198.501V54.112ZM198.501 44.698H206.061V45.922H199.977V54.67H198.501V44.698ZM222.17 45.994H226.724V47.218H222.17V45.994ZM222.17 49.468H226.76V50.71H222.17V49.468ZM215.114 44.536H222.548V52.168H215.114V44.536ZM221.072 45.742H216.572V50.962H221.072V45.742ZM226.256 43.15H227.75V55.03H226.256V43.15ZM217.292 57.82H228.146V59.044H217.292V57.82ZM217.292 53.95H218.786V58.378H217.292V53.95ZM81.3114 70.612H84.3174V71.872H81.3114V70.612ZM80.2134 64.114H81.7254V80.404H80.2134V64.114ZM69.8454 65.716H71.3394V75.796H69.8454V65.716ZM69.8454 75.022H71.1414C73.5534 75.022 76.0194 74.86 78.7014 74.302L78.8814 75.544C76.1094 76.12 73.6074 76.282 71.1414 76.282H69.8454V75.022ZM85.756 71.692H100.516V72.826H85.756V71.692ZM87.502 74.14H98.662V77.614H89.032V79.522H87.556V76.588H97.204V75.202H87.502V74.14ZM87.556 79.126H99.184V80.206H87.556V79.126ZM87.628 64.6H98.608V67.984H89.14V69.748H87.664V66.976H97.15V65.662H87.628V64.6ZM87.664 69.388H98.914V70.468H87.664V69.388ZM117.939 64.15H119.433V76.354H117.939V64.15ZM118.965 69.478H121.845V70.738H118.965V69.478ZM106.851 66.112H116.463V67.318H106.851V66.112ZM111.657 68.218C113.961 68.218 115.545 69.424 115.545 71.26C115.545 73.078 113.961 74.284 111.657 74.284C109.335 74.284 107.751 73.078 107.751 71.26C107.751 69.424 109.335 68.218 111.657 68.218ZM111.657 69.388C110.181 69.388 109.173 70.126 109.173 71.26C109.173 72.376 110.181 73.114 111.657 73.114C113.115 73.114 114.123 72.376 114.123 71.26C114.123 70.126 113.115 69.388 111.657 69.388ZM110.901 64.132H112.395V66.742H110.901V64.132ZM109.299 78.82H120.171V80.044H109.299V78.82ZM109.299 75.382H110.793V79.342H109.299V75.382ZM131.042 68.722H135.722V69.946H131.042V68.722ZM135.254 64.15H136.748V76.192H135.254V64.15ZM126.29 78.82H137.144V80.044H126.29V78.82ZM126.29 75.022H127.784V79.45H126.29V75.022ZM124.166 65.212H125.642V68.092H130.052V65.212H131.51V73.42H124.166V65.212ZM125.642 69.262V72.196H130.052V69.262H125.642ZM146.287 64.888H156.763V66.094H146.287V64.888ZM155.791 64.888H157.249V66.148C157.249 67.498 157.249 69.1 156.781 71.242L155.305 71.08C155.791 68.974 155.791 67.48 155.791 66.148V64.888ZM156.205 67.642V68.704L146.071 69.154L145.873 67.966L156.205 67.642ZM144.415 70.792H159.103V71.98H144.415V70.792ZM146.125 73.528H157.375V77.326H147.637V79.522H146.161V76.21H155.899V74.68H146.125V73.528ZM146.161 79.018H157.933V80.188H146.161V79.018ZM172.799 64.132H174.311V74.086H172.799V64.132ZM163.439 74.968H174.311V80.404H172.799V76.192H163.439V74.968ZM161.801 71.944H163.115C166.067 71.944 168.245 71.854 170.855 71.44L171.017 72.646C168.335 73.096 166.139 73.168 163.115 73.168H161.801V71.944ZM161.765 65.086H169.145V69.604H163.259V72.538H161.801V68.452H167.687V66.31H161.765V65.086ZM177.496 66.904H185.56V68.128H177.496V66.904ZM181.528 69.208C183.562 69.208 185.038 70.738 185.038 72.934C185.038 75.112 183.562 76.642 181.528 76.642C179.512 76.642 178.036 75.112 178.036 72.934C178.036 70.738 179.512 69.208 181.528 69.208ZM181.528 70.486C180.286 70.486 179.386 71.494 179.386 72.934C179.386 74.374 180.286 75.382 181.528 75.382C182.788 75.382 183.706 74.374 183.706 72.934C183.706 71.494 182.788 70.486 181.528 70.486ZM189.862 64.132H191.302V80.404H189.862V64.132ZM187.27 70.972H190.348V72.214H187.27V70.972ZM186.388 64.492H187.792V79.612H186.388V64.492ZM180.808 64.6H182.284V67.66H180.808V64.6ZM198.536 65.86H199.778V66.832C199.778 69.082 197.906 70.9 195.116 71.512L194.522 70.378C196.898 69.874 198.536 68.434 198.536 66.832V65.86ZM198.842 65.86H200.048V66.832C200.048 68.344 201.722 69.676 204.044 70.126L203.414 71.278C200.696 70.684 198.842 68.992 198.842 66.832V65.86ZM195.044 65.32H203.594V66.526H195.044V65.32ZM198.5 73.222H199.976V79.9H198.5V73.222ZM205.952 64.132H207.446V80.422H205.952V64.132ZM194.216 74.086L194.018 72.826C197.042 72.826 201.164 72.79 204.71 72.268L204.8 73.384C201.146 74.032 197.204 74.086 194.216 74.086ZM202.262 75.328H206.33V76.498H202.262V75.328ZM219.013 72.1006L220.639 72.0918C220.639 72.5957 220.568 73.0615 220.428 73.4893C220.287 73.9111 220.088 74.2773 219.83 74.5879C219.578 74.8984 219.273 75.1416 218.916 75.3174C218.564 75.4873 218.178 75.5723 217.756 75.5723C217.264 75.5723 216.827 75.4756 216.446 75.2822C216.071 75.083 215.667 74.7842 215.233 74.3857C214.964 74.1279 214.712 73.9316 214.478 73.7969C214.243 73.6562 213.991 73.5859 213.722 73.5859C213.458 73.5859 213.232 73.6562 213.045 73.7969C212.857 73.9316 212.711 74.125 212.605 74.377C212.5 74.6289 212.447 74.9219 212.447 75.2559H210.777C210.777 74.7461 210.848 74.2832 210.988 73.8672C211.129 73.4453 211.325 73.085 211.577 72.7861C211.835 72.4814 212.14 72.2471 212.491 72.083C212.843 71.9189 213.229 71.8369 213.651 71.8369C214.144 71.8369 214.586 71.9395 214.979 72.1445C215.377 72.3496 215.781 72.6426 216.191 73.0234C216.473 73.293 216.728 73.4951 216.956 73.6299C217.185 73.7646 217.428 73.832 217.686 73.832C217.949 73.832 218.181 73.7588 218.38 73.6123C218.579 73.46 218.734 73.252 218.846 72.9883C218.957 72.7246 219.013 72.4287 219.013 72.1006Z" fill="#3C3C3C"/>
</svg>
