<svg width="256" height="88" viewBox="0 0 256 88" fill="none" xmlns="http://www.w3.org/2000/svg">
<path fill-rule="evenodd" clip-rule="evenodd" d="M51.3028 9.82004C71.8682 6.70152 97.8857 5.84022 128 5.84022C200.85 5.84022 256 9.39733 256 46.8862C256 88.371 206.426 88.1942 142.617 87.9667C137.82 87.9496 132.943 87.9322 128 87.9322C123.402 87.9322 118.861 87.946 114.388 87.9595C50.0953 88.1545 0 88.3065 0 46.8862C0 31.8999 9.06985 22.2418 25.4389 16.0882C26.239 12.9781 26.7074 9.99471 27.2505 5.41869C28.1533 -2.18866 33.9136 -0.155212 36.6808 1.81243C38.2349 3.12055 43.1654 6.37233 51.3028 9.82004Z" fill="#FFEEA0" fill-opacity="0.8"/>
<path d="M82.8953 20.7223H84.3893V33.1243H82.8953V20.7223ZM80.1413 25.0243H83.5253V26.2483H80.1413V25.0243ZM80.1413 28.4623H83.5253V29.6683H80.1413V28.4623ZM71.0333 22.6843H80.1413V23.8903H71.0333V22.6843ZM75.6413 24.7903C77.8013 24.7903 79.3133 26.0323 79.3133 27.9043C79.3133 29.7583 77.8013 31.0183 75.6413 31.0183C73.4633 31.0183 71.9513 29.7583 71.9513 27.9043C71.9513 26.0323 73.4633 24.7903 75.6413 24.7903ZM75.6413 25.9603C74.2913 25.9603 73.3733 26.7523 73.3733 27.9043C73.3733 29.0563 74.2913 29.8303 75.6413 29.8303C76.9913 29.8303 77.9093 29.0563 77.9093 27.9043C77.9093 26.7523 76.9913 25.9603 75.6413 25.9603ZM74.9033 20.6863H76.3973V23.4583H74.9033V20.6863ZM73.9313 35.3923H84.7853V36.6163H73.9313V35.3923ZM73.9313 32.0623H75.4253V35.9863H73.9313V32.0623ZM100.012 20.7043H101.434V36.9763H100.012V20.7043ZM97.4379 27.2563H100.57V28.5163H97.4379V27.2563ZM96.4659 21.0463H97.8699V36.1663H96.4659V21.0463ZM90.9219 23.2243H92.0919V25.0963C92.0919 29.0023 90.8139 32.1343 88.3119 33.6283L87.3939 32.4763C89.7339 31.1803 90.9219 28.4083 90.9219 25.0963V23.2243ZM91.1919 23.2243H92.3619V25.0963C92.3619 28.0843 93.5679 30.7303 95.8539 31.9003L94.9719 33.0523C92.4879 31.6843 91.1919 28.6783 91.1919 25.0963V23.2243ZM87.7719 22.6123H95.3319V23.8543H87.7719V22.6123ZM112.899 22.1083H114.123V25.0243C114.123 28.7683 112.107 32.2423 109.443 33.5923L108.525 32.3683C110.937 31.2163 112.899 28.1023 112.899 25.0243V22.1083ZM113.151 22.1083H114.375V25.0243C114.375 27.9943 116.319 30.9823 118.731 32.0983L117.831 33.2863C115.185 31.9903 113.151 28.6423 113.151 25.0243V22.1083ZM120.423 20.6863H121.917V36.9943H120.423V20.6863ZM133.849 24.7723H137.467V26.0143H133.849V24.7723ZM137.053 20.7043H138.547V30.2263H137.053V20.7043ZM127.999 31.0183H138.547V36.7603H127.999V31.0183ZM137.089 32.2063H129.457V35.5543H137.089V32.2063ZM129.313 22.2523H130.537V23.5663C130.537 26.5363 128.701 29.0743 125.983 30.0823L125.209 28.8943C127.639 28.0303 129.313 25.8703 129.313 23.5663V22.2523ZM129.601 22.2523H130.807V23.5483C130.807 25.6543 132.391 27.6883 134.749 28.5163L133.993 29.7043C131.347 28.7503 129.601 26.2843 129.601 23.5483V22.2523ZM125.677 21.7483H134.371V22.9543H125.677V21.7483ZM153.54 20.6863H155.034V36.9943H153.54V20.6863ZM146.448 21.9463C148.86 21.9463 150.588 24.1603 150.588 27.6163C150.588 31.0903 148.86 33.3043 146.448 33.3043C144.054 33.3043 142.326 31.0903 142.326 27.6163C142.326 24.1603 144.054 21.9463 146.448 21.9463ZM146.448 23.2963C144.864 23.2963 143.748 24.9883 143.748 27.6163C143.748 30.2623 144.864 31.9903 146.448 31.9903C148.05 31.9903 149.148 30.2623 149.148 27.6163C149.148 24.9883 148.05 23.2963 146.448 23.2963ZM162.611 21.9463C165.005 21.9463 166.697 24.1603 166.697 27.6163C166.697 31.0903 165.005 33.3043 162.611 33.3043C160.217 33.3043 158.525 31.0903 158.525 27.6163C158.525 24.1603 160.217 21.9463 162.611 21.9463ZM162.611 23.2963C161.027 23.2963 159.947 24.9883 159.947 27.6163C159.947 30.2623 161.027 31.9903 162.611 31.9903C164.177 31.9903 165.275 30.2623 165.275 27.6163C165.275 24.9883 164.177 23.2963 162.611 23.2963ZM170.387 24.7903H173.375V26.0503H170.387V24.7903ZM170.387 29.6323H173.375V30.8923H170.387V29.6323ZM169.289 20.7043H170.801V36.9763H169.289V20.7043ZM183.213 28.6729L184.839 28.6641C184.839 29.168 184.769 29.6338 184.628 30.0615C184.487 30.4834 184.288 30.8496 184.03 31.1602C183.778 31.4707 183.474 31.7139 183.116 31.8896C182.765 32.0596 182.378 32.1445 181.956 32.1445C181.464 32.1445 181.027 32.0479 180.647 31.8545C180.272 31.6553 179.867 31.3564 179.434 30.958C179.164 30.7002 178.912 30.5039 178.678 30.3691C178.443 30.2285 178.191 30.1582 177.922 30.1582C177.658 30.1582 177.433 30.2285 177.245 30.3691C177.058 30.5039 176.911 30.6973 176.806 30.9492C176.7 31.2012 176.647 31.4941 176.647 31.8281H174.978C174.978 31.3184 175.048 30.8555 175.189 30.4395C175.329 30.0176 175.525 29.6572 175.777 29.3584C176.035 29.0537 176.34 28.8193 176.691 28.6553C177.043 28.4912 177.43 28.4092 177.852 28.4092C178.344 28.4092 178.786 28.5117 179.179 28.7168C179.577 28.9219 179.981 29.2148 180.392 29.5957C180.673 29.8652 180.928 30.0674 181.156 30.2021C181.385 30.3369 181.628 30.4043 181.886 30.4043C182.149 30.4043 182.381 30.3311 182.58 30.1846C182.779 30.0322 182.935 29.8242 183.046 29.5605C183.157 29.2969 183.213 29.001 183.213 28.6729ZM41.2469 41.7043H42.6869V57.9763H41.2469V41.7043ZM38.6729 48.1483H41.7869V49.3723H38.6729V48.1483ZM37.6469 42.0463H39.0689V57.1663H37.6469V42.0463ZM29.4389 43.5763H35.6489V53.6203H29.4389V43.5763ZM34.2449 44.7643H30.8429V52.4323H34.2449V44.7643ZM51.9915 42.2803H53.3055V43.1803C53.3055 46.2943 50.1375 48.5263 46.7535 49.1023L46.1595 47.8963C49.1295 47.4463 51.9915 45.5023 51.9915 43.1803V42.2803ZM52.2615 42.2803H53.5575V43.1803C53.5575 45.4483 56.4555 47.4463 59.3895 47.8963L58.7955 49.1023C55.4475 48.5263 52.2615 46.2583 52.2615 43.1803V42.2803ZM51.9915 51.7843H53.4675V57.9763H51.9915V51.7843ZM45.4215 50.8663H60.1275V52.1083H45.4215V50.8663ZM74.2025 49.2283H80.0525V50.4523H74.2025V49.2283ZM66.4625 54.6643H81.2045V55.9063H66.4625V54.6643ZM73.0505 51.2443H74.5265V55.2583H73.0505V51.2443ZM74.2025 43.2163H79.8905V44.4403H75.6965V49.8763H74.2025V43.2163ZM67.7225 43.2343H73.2305V44.4583H69.2165V49.8043H67.7225V43.2343ZM67.7225 49.1923H68.6225C70.2065 49.1923 71.6825 49.1383 73.3745 48.7423L73.5185 50.0023C71.7545 50.3803 70.2605 50.4523 68.6225 50.4523H67.7225V49.1923ZM85.0011 46.5823H96.0531V47.8063H85.0011V46.5823ZM83.0031 49.9843H97.7631V51.2083H83.0031V49.9843ZM85.0011 42.2983H86.4771V47.1943H85.0011V42.2983ZM84.8931 56.3563H96.1431V57.5803H84.8931V56.3563ZM84.8931 52.8283H86.3691V56.6803H84.8931V52.8283ZM116.446 41.7043H117.886V57.9763H116.446V41.7043ZM113.872 48.1483H116.986V49.3723H113.872V48.1483ZM112.846 42.0463H114.268V57.1663H112.846V42.0463ZM104.638 43.5763H110.848V53.6203H104.638V43.5763ZM109.444 44.7643H106.042V52.4323H109.444V44.7643ZM122.475 49.3003H133.653V50.5243H122.475V49.3003ZM120.621 54.6823H135.363V55.9423H120.621V54.6823ZM127.209 49.8223H128.703V55.1863H127.209V49.8223ZM122.475 43.0003H133.491V44.2243H123.969V49.8403H122.475V43.0003ZM137.161 49.2643H151.921V50.3983H137.161V49.2643ZM138.907 51.7123H150.067V55.1863H140.437V57.0943H138.961V54.1603H148.609V52.7743H138.907V51.7123ZM138.961 56.6983H150.589V57.7783H138.961V56.6983ZM139.033 42.1723H150.013V45.5563H140.545V47.3203H139.069V44.5483H148.555V43.2343H139.033V42.1723ZM139.069 46.9603H150.319V48.0403H139.069V46.9603ZM169.344 41.6503H170.838V50.6323H169.344V41.6503ZM170.208 45.5563H173.25V46.8163H170.208V45.5563ZM160.506 51.4603H170.838V55.0963H162.018V57.0763H160.542V54.0163H169.38V52.5943H160.506V51.4603ZM160.542 56.6443H171.432V57.7963H160.542V56.6443ZM158.256 43.1623H167.868V44.3323H158.256V43.1623ZM163.062 45.0523C165.402 45.0523 166.95 46.0783 166.95 47.7343C166.95 49.3723 165.402 50.3803 163.062 50.3803C160.686 50.3803 159.156 49.3723 159.156 47.7343C159.156 46.0783 160.686 45.0523 163.062 45.0523ZM163.062 46.1503C161.55 46.1503 160.578 46.7623 160.578 47.7343C160.578 48.6883 161.55 49.3003 163.062 49.3003C164.556 49.3003 165.528 48.6883 165.528 47.7343C165.528 46.7623 164.556 46.1503 163.062 46.1503ZM162.306 41.5243H163.8V43.9723H162.306V41.5243ZM184.085 42.0463H185.471V57.1663H184.085V42.0463ZM184.895 48.3283H187.901V49.5523H184.895V48.3283ZM175.247 52.5043H175.895C176.525 52.5043 177.587 52.4863 178.847 52.1803L178.973 53.4223C177.623 53.7463 176.579 53.7463 175.895 53.7463H175.247V52.5043ZM175.247 43.7383H178.721V44.9623H176.633V53.2063H175.247V43.7383ZM179.423 52.5043H180.107C180.971 52.5043 182.105 52.4683 183.347 52.1263L183.491 53.3683C182.159 53.7283 181.043 53.7463 180.107 53.7463H179.423V52.5043ZM179.423 43.7383H183.005V44.9623H180.791V53.1523H179.423V43.7383ZM187.379 41.7043H188.801V57.9763H187.379V41.7043ZM191.968 43.3243H199.438V53.8543H191.968V43.3243ZM197.98 44.5303H193.426V52.6483H197.98V44.5303ZM202.336 41.7043H203.848V57.9763H202.336V41.7043ZM203.488 48.2023H206.512V49.4623H203.488V48.2023ZM218.894 41.6863H220.406V57.9943H218.894V41.6863ZM220.046 48.1123H223.07V49.3723H220.046V48.1123ZM208.58 52.6843H209.858C212.864 52.6843 214.97 52.5763 217.4 52.1263L217.562 53.3863C215.06 53.8543 212.918 53.9443 209.858 53.9443H208.58V52.6843ZM208.58 43.2703H216.14V44.4943H210.056V53.2423H208.58V43.2703ZM79.1552 63.2983C81.5852 63.2983 83.3672 64.7743 83.3672 66.9163C83.3672 69.0403 81.5852 70.5163 79.1552 70.5163C76.7432 70.5163 74.9612 69.0403 74.9612 66.9163C74.9612 64.7743 76.7432 63.2983 79.1552 63.2983ZM79.1552 64.5223C77.5892 64.5223 76.4012 65.5123 76.4012 66.9163C76.4012 68.3203 77.5892 69.2923 79.1552 69.2923C80.7392 69.2923 81.9092 68.3203 81.9092 66.9163C81.9092 65.5123 80.7392 64.5223 79.1552 64.5223ZM86.4272 62.7043H87.9392V71.0383H86.4272V62.7043ZM77.4092 71.8303H87.9392V75.7903H78.9032V78.2383H77.4452V74.6743H86.4632V73.0363H77.4092V71.8303ZM77.4452 77.5723H88.4792V78.7603H77.4452V77.5723ZM103.04 62.7043H104.534V74.7643H103.04V62.7043ZM98.4498 64.8283H103.598V66.0343H98.4498V64.8283ZM94.1298 77.3923H104.966V78.6163H94.1298V77.3923ZM94.1298 73.7203H95.6238V77.9503H94.1298V73.7203ZM92.0958 63.8923H93.5898V71.5603H92.0958V63.8923ZM92.0958 71.0923H93.3198C95.6418 71.0923 97.8198 70.9663 100.358 70.5163L100.502 71.7583C97.8918 72.2263 95.7138 72.3343 93.3198 72.3343H92.0958V71.0923ZM98.4498 67.9243H103.598V69.1483H98.4498V67.9243ZM110.112 73.1083H121.236V78.9763H119.724V74.3143H110.112V73.1083ZM119.724 62.7043H121.236V72.2443H119.724V62.7043ZM110.112 63.6583H111.228V65.3323C111.228 67.4563 110.49 70.1923 108.42 71.4343L107.574 70.3723C109.446 69.2383 110.112 66.9703 110.112 65.3323V63.6583ZM110.472 63.6583H111.552V65.3323C111.552 66.8443 112.002 69.2383 113.838 70.4803L113.082 71.6143C110.976 70.2643 110.472 67.2943 110.472 65.3323V63.6583ZM114.63 63.6583H115.728V65.3323C115.728 67.4023 115.224 70.2823 113.082 71.6143L112.362 70.4803C114.18 69.2743 114.63 66.9343 114.63 65.3323V63.6583ZM114.954 63.6583H116.052V65.3323C116.052 67.1503 116.718 69.3103 118.59 70.3723L117.762 71.4343C115.692 70.2463 114.954 67.6543 114.954 65.3323V63.6583ZM128.741 70.4443H143.447V71.6503H128.741V70.4443ZM136.085 73.0543C139.559 73.0543 141.665 74.1343 141.665 76.0063C141.665 77.8783 139.559 78.9403 136.085 78.9403C132.611 78.9403 130.505 77.8783 130.505 76.0063C130.505 74.1343 132.611 73.0543 136.085 73.0543ZM136.085 74.2423C133.547 74.2423 132.017 74.8723 132.017 76.0063C132.017 77.1223 133.547 77.7703 136.085 77.7703C138.641 77.7703 140.153 77.1223 140.153 76.0063C140.153 74.8723 138.641 74.2423 136.085 74.2423ZM135.131 64.1803H136.463V64.6663C136.463 67.2763 133.475 69.0583 130.109 69.4543L129.569 68.2843C132.485 67.9603 135.131 66.5023 135.131 64.6663V64.1803ZM135.761 64.1803H137.075V64.6663C137.075 66.5023 139.721 67.9603 142.637 68.2843L142.097 69.4543C138.731 69.0583 135.761 67.2763 135.761 64.6663V64.1803ZM130.091 63.5323H142.133V64.7383H130.091V63.5323ZM156.316 62.6863H157.828V78.9763H156.316V62.6863ZM157.414 69.2923H160.42V70.5343H157.414V69.2923ZM152.158 64.4503H153.616C153.616 69.0763 151.492 73.2523 146.236 75.8983L145.408 74.7463C149.908 72.4603 152.158 68.9863 152.158 64.6843V64.4503ZM146.164 64.4503H152.932V65.6743H146.164V64.4503ZM161.841 65.4763H169.905V66.7003H161.841V65.4763ZM165.873 67.7803C167.907 67.7803 169.383 69.3103 169.383 71.5063C169.383 73.6843 167.907 75.2143 165.873 75.2143C163.857 75.2143 162.381 73.6843 162.381 71.5063C162.381 69.3103 163.857 67.7803 165.873 67.7803ZM165.873 69.0583C164.631 69.0583 163.731 70.0663 163.731 71.5063C163.731 72.9463 164.631 73.9543 165.873 73.9543C167.133 73.9543 168.051 72.9463 168.051 71.5063C168.051 70.0663 167.133 69.0583 165.873 69.0583ZM174.207 62.7043H175.647V78.9763H174.207V62.7043ZM171.615 69.5443H174.693V70.7863H171.615V69.5443ZM170.733 63.0643H172.137V78.1843H170.733V63.0643ZM165.153 63.1723H166.629V66.2323H165.153V63.1723ZM181.068 64.7754L180.857 73.8018H179.047L178.827 64.7754H181.068ZM178.766 76.5703C178.766 76.248 178.871 75.9785 179.082 75.7617C179.299 75.5391 179.598 75.4277 179.979 75.4277C180.354 75.4277 180.649 75.5391 180.866 75.7617C181.083 75.9785 181.191 76.248 181.191 76.5703C181.191 76.8809 181.083 77.1475 180.866 77.3701C180.649 77.5869 180.354 77.6953 179.979 77.6953C179.598 77.6953 179.299 77.5869 179.082 77.3701C178.871 77.1475 178.766 76.8809 178.766 76.5703Z" fill="#3C3C3C"/>
</svg>
