<svg width="295" height="115" viewBox="0 0 295 115" fill="none" xmlns="http://www.w3.org/2000/svg">
<path fill-rule="evenodd" clip-rule="evenodd" d="M257.444 95.7522C280.799 89.3908 295 76.5793 295 50.9198C295 4.41279 231.449 0 147.5 0C58.0753 0 0 7.09537 0 50.9198C0 102.304 57.7271 102.115 131.815 101.873C136.969 101.857 142.202 101.84 147.5 101.84C153.196 101.84 158.816 101.861 164.343 101.882C189.492 101.979 212.722 102.068 232.404 100.085C232.837 100.225 233.278 100.364 233.725 100.501C239.622 103.773 242.847 106.662 243.723 107.698C245.187 109.132 248.638 110.898 250.733 106.492C252.828 102.085 253.922 100.259 256.812 96.5289C257.009 96.2735 257.221 96.0146 257.444 95.7522Z" fill="#FFEEA0" fill-opacity="0.8"/>
<path d="M37.9099 30.514H39.3859V32.71H37.9099V30.514ZM38.6659 25.33C42.2479 25.33 44.3899 26.32 44.3899 28.138C44.3899 29.956 42.2479 30.964 38.6659 30.964C35.0659 30.964 32.9419 29.956 32.9419 28.138C32.9419 26.32 35.0659 25.33 38.6659 25.33ZM38.6659 26.464C36.0019 26.464 34.4719 27.076 34.4719 28.138C34.4719 29.218 36.0019 29.83 38.6659 29.83C41.3119 29.83 42.8419 29.218 42.8419 28.138C42.8419 27.076 41.3119 26.464 38.6659 26.464ZM31.3039 32.17H46.0099V33.394H31.3039V32.17ZM33.0859 34.726H44.1379V38.416H34.5979V40.396H33.1219V37.318H42.6619V35.896H33.0859V34.726ZM33.1219 40.054H44.6239V41.224H33.1219V40.054ZM47.8445 27.904H55.9085V29.128H47.8445V27.904ZM51.8765 30.208C53.9105 30.208 55.3865 31.738 55.3865 33.934C55.3865 36.112 53.9105 37.642 51.8765 37.642C49.8605 37.642 48.3845 36.112 48.3845 33.934C48.3845 31.738 49.8605 30.208 51.8765 30.208ZM51.8765 31.486C50.6345 31.486 49.7345 32.494 49.7345 33.934C49.7345 35.374 50.6345 36.382 51.8765 36.382C53.1365 36.382 54.0545 35.374 54.0545 33.934C54.0545 32.494 53.1365 31.486 51.8765 31.486ZM60.2105 25.132H61.6505V41.404H60.2105V25.132ZM57.6185 31.972H60.6965V33.214H57.6185V31.972ZM56.7365 25.492H58.1405V40.612H56.7365V25.492ZM51.1565 25.6H52.6325V28.66H51.1565V25.6ZM71.0271 31.45H74.1051V32.692H71.0271V31.45ZM76.8231 25.132H78.2631V41.404H76.8231V25.132ZM73.6011 25.474H75.0231V40.594H73.6011V25.474ZM68.0931 26.482C70.1991 26.482 71.5671 28.66 71.5671 32.152C71.5671 35.644 70.1991 37.822 68.0931 37.822C65.9871 37.822 64.6371 35.644 64.6371 32.152C64.6371 28.66 65.9871 26.482 68.0931 26.482ZM68.0931 27.868C66.8151 27.868 66.0051 29.524 66.0051 32.152C66.0051 34.78 66.8151 36.436 68.0931 36.436C69.3891 36.436 70.1991 34.78 70.1991 32.152C70.1991 29.524 69.3891 27.868 68.0931 27.868ZM97.2881 25.114H98.7821V41.422H97.2881V25.114ZM90.1961 26.374C92.6081 26.374 94.3361 28.588 94.3361 32.044C94.3361 35.518 92.6081 37.732 90.1961 37.732C87.8021 37.732 86.0741 35.518 86.0741 32.044C86.0741 28.588 87.8021 26.374 90.1961 26.374ZM90.1961 27.724C88.6121 27.724 87.4961 29.416 87.4961 32.044C87.4961 34.69 88.6121 36.418 90.1961 36.418C91.7981 36.418 92.8961 34.69 92.8961 32.044C92.8961 29.416 91.7981 27.724 90.1961 27.724ZM113.037 26.734H114.333V27.418C114.333 30.334 111.237 32.476 107.961 33.034L107.385 31.846C110.247 31.432 113.037 29.56 113.037 27.418V26.734ZM113.415 26.734H114.693V27.418C114.693 29.56 117.501 31.432 120.345 31.846L119.787 33.034C116.493 32.476 113.415 30.334 113.415 27.418V26.734ZM113.091 35.194H114.567V41.404H113.091V35.194ZM106.521 34.402H121.227V35.626H106.521V34.402ZM107.889 26.14H119.805V27.346H107.889V26.14ZM127.31 25.906H128.552V27.49C128.552 30.568 126.716 33.214 123.962 34.258L123.206 33.07C125.672 32.17 127.31 29.92 127.31 27.49V25.906ZM127.58 25.906H128.804V27.49C128.804 29.83 130.478 31.936 132.89 32.782L132.134 33.952C129.416 32.962 127.58 30.478 127.58 27.49V25.906ZM125.546 35.752H136.418V41.404H134.906V36.976H125.546V35.752ZM134.906 25.132H136.418V34.924H134.906V25.132ZM151.446 25.114H152.94V41.422H151.446V25.114ZM144.354 26.374C146.766 26.374 148.494 28.588 148.494 32.044C148.494 35.518 146.766 37.732 144.354 37.732C141.96 37.732 140.232 35.518 140.232 32.044C140.232 28.588 141.96 26.374 144.354 26.374ZM144.354 27.724C142.77 27.724 141.654 29.416 141.654 32.044C141.654 34.69 142.77 36.418 144.354 36.418C145.956 36.418 147.054 34.69 147.054 32.044C147.054 29.416 145.956 27.724 144.354 27.724ZM167.267 34.33H168.761V38.38H167.267V34.33ZM168.023 26.194C171.461 26.194 173.927 27.868 173.927 30.46C173.927 33.052 171.461 34.726 168.023 34.726C164.585 34.726 162.101 33.052 162.101 30.46C162.101 27.868 164.585 26.194 168.023 26.194ZM168.023 27.382C165.431 27.382 163.541 28.606 163.541 30.46C163.541 32.314 165.431 33.538 168.023 33.538C170.597 33.538 172.487 32.314 172.487 30.46C172.487 28.606 170.597 27.382 168.023 27.382ZM160.679 38.092H175.421V39.334H160.679V38.092ZM177.22 32.692H191.98V33.826H177.22V32.692ZM178.966 35.14H190.126V38.614H180.496V40.522H179.02V37.588H188.668V36.202H178.966V35.14ZM179.02 40.126H190.648V41.206H179.02V40.126ZM179.092 25.6H190.072V28.984H180.604V30.748H179.128V27.976H188.614V26.662H179.092V25.6ZM179.128 30.388H190.378V31.468H179.128V30.388ZM210.159 25.132H211.653V36.148H210.159V25.132ZM206.667 29.722H210.465V30.946H206.667V29.722ZM205.047 26.41H206.613C206.613 30.622 203.841 33.61 199.179 35.122L198.549 33.934C202.671 32.638 205.047 30.19 205.047 27.004V26.41ZM199.323 26.41H206.109V27.634H199.323V26.41ZM205.659 34.744H206.937V35.482C206.937 38.596 204.093 40.702 200.835 41.368L200.241 40.18C203.121 39.658 205.659 37.858 205.659 35.482V34.744ZM205.875 34.744H207.153V35.482C207.153 37.822 209.655 39.622 212.553 40.144L211.923 41.332C208.683 40.684 205.875 38.578 205.875 35.482V34.744ZM230.444 25.132H231.938V33.826H230.444V25.132ZM231.524 28.894H234.35V30.136H231.524V28.894ZM225.944 26.266H227.6C227.6 30.37 224.738 33.034 219.968 34.132L219.374 32.926C223.658 31.972 225.944 29.794 225.944 27.076V26.266ZM220.04 26.266H226.808V27.49H220.04V26.266ZM221.696 34.564H232.028V35.698H223.172V40.63H221.696V34.564ZM221.696 40.054H232.388V41.188H221.696V40.054ZM222.668 37.282H231.83V38.38H222.668V37.282ZM246.877 25.114H248.389V41.422H246.877V25.114ZM248.029 31.54H251.053V32.8H248.029V31.54ZM236.563 36.112H237.841C240.847 36.112 242.953 36.004 245.383 35.554L245.545 36.814C243.043 37.282 240.901 37.372 237.841 37.372H236.563V36.112ZM236.563 26.698H244.123V27.922H238.039V36.67H236.563V26.698ZM260.231 27.994H264.785V29.218H260.231V27.994ZM260.231 31.468H264.821V32.71H260.231V31.468ZM253.175 26.536H260.609V34.168H253.175V26.536ZM259.133 27.742H254.633V32.962H259.133V27.742ZM264.317 25.15H265.811V37.03H264.317V25.15ZM255.353 39.82H266.207V41.044H255.353V39.82ZM255.353 35.95H256.847V40.378H255.353V35.95ZM91.826 46.132H93.266V62.404H91.826V46.132ZM89.252 52.576H92.366V53.8H89.252V52.576ZM88.226 46.474H89.648V61.594H88.226V46.474ZM80.018 48.004H86.228V58.048H80.018V48.004ZM84.824 49.192H81.422V56.86H84.824V49.192ZM102.571 46.708H103.885V47.608C103.885 50.722 100.717 52.954 97.3326 53.53L96.7386 52.324C99.7086 51.874 102.571 49.93 102.571 47.608V46.708ZM102.841 46.708H104.137V47.608C104.137 49.876 107.035 51.874 109.969 52.324L109.375 53.53C106.027 52.954 102.841 50.686 102.841 47.608V46.708ZM102.571 56.212H104.047V62.404H102.571V56.212ZM96.0006 55.294H110.707V56.536H96.0006V55.294ZM128.958 46.114H130.434V62.422H128.958V46.114ZM124.656 52.162H129.39V53.386H124.656V52.162ZM117.69 47.41H119.166V51.64H123.684V47.41H125.16V58.336H117.69V47.41ZM119.166 52.828V57.094H123.684V52.828H119.166ZM133.582 55.132H148.288V56.356H133.582V55.132ZM135.472 60.82H146.758V62.044H135.472V60.82ZM135.472 57.544H136.966V61.288H135.472V57.544ZM135.526 52.468H146.56V53.638H135.526V52.468ZM135.526 46.726H146.488V47.914H137.002V52.918H135.526V46.726ZM136.57 49.588H146.056V50.722H136.57V49.588ZM157.503 46.402C161.085 46.402 163.227 47.41 163.227 49.228C163.227 51.046 161.085 52.054 157.503 52.054C153.903 52.054 151.779 51.046 151.779 49.228C151.779 47.41 153.903 46.402 157.503 46.402ZM157.503 47.536C154.839 47.536 153.309 48.148 153.309 49.228C153.309 50.308 154.839 50.92 157.503 50.92C160.149 50.92 161.679 50.308 161.679 49.228C161.679 48.148 160.149 47.536 157.503 47.536ZM150.141 53.134H164.847V54.34H150.141V53.134ZM151.923 55.726H162.975V59.398H153.435V61.378H151.959V58.318H161.499V56.878H151.923V55.726ZM151.959 61.054H163.461V62.224H151.959V61.054ZM177.788 53.26H179.264V56.176H177.788V53.26ZM173.18 50.002H184.214V51.226H173.18V50.002ZM171.182 52.63H185.942V53.836H171.182V52.63ZM173.18 46.366H174.638V50.56H173.18V46.366ZM173.018 55.546H184.07V59.308H174.53V61.468H173.054V58.21H182.576V56.716H173.018V55.546ZM173.054 61.054H184.61V62.224H173.054V61.054ZM199.638 46.114H201.132V62.422H199.638V46.114ZM196.542 52.378H199.998V53.602H196.542V52.378ZM188.352 57.274H189.594C192.474 57.274 194.508 57.184 196.902 56.752L197.046 57.994C194.598 58.426 192.528 58.534 189.594 58.534H188.352V57.274ZM188.316 47.644H195.588V53.35H189.828V57.652H188.352V52.126H194.112V48.868H188.316V47.644ZM212.435 51.64H216.971V52.864H212.435V51.64ZM208.511 47.536H209.735V50.434C209.735 54.088 207.809 57.58 205.235 58.966L204.281 57.778C206.675 56.59 208.511 53.458 208.511 50.434V47.536ZM208.799 47.536H210.005V50.434C210.005 53.404 211.841 56.356 214.199 57.472L213.317 58.678C210.689 57.346 208.799 53.998 208.799 50.434V47.536ZM216.233 46.114H217.709V62.422H216.233V46.114ZM85.8174 68.734H87.1134V69.418C87.1134 72.334 84.0174 74.476 80.7414 75.034L80.1654 73.846C83.0274 73.432 85.8174 71.56 85.8174 69.418V68.734ZM86.1954 68.734H87.4734V69.418C87.4734 71.56 90.2814 73.432 93.1254 73.846L92.5674 75.034C89.2734 74.476 86.1954 72.334 86.1954 69.418V68.734ZM85.8714 77.194H87.3474V83.404H85.8714V77.194ZM79.3014 76.402H94.0074V77.626H79.3014V76.402ZM80.6694 68.14H92.5854V69.346H80.6694V68.14ZM100.09 67.906H101.332V69.49C101.332 72.568 99.496 75.214 96.742 76.258L95.986 75.07C98.452 74.17 100.09 71.92 100.09 69.49V67.906ZM100.36 67.906H101.584V69.49C101.584 71.83 103.258 73.936 105.67 74.782L104.914 75.952C102.196 74.962 100.36 72.478 100.36 69.49V67.906ZM98.326 77.752H109.198V83.404H107.686V78.976H98.326V77.752ZM107.686 67.132H109.198V76.924H107.686V67.132ZM119.763 67.402C123.345 67.402 125.487 68.41 125.487 70.228C125.487 72.046 123.345 73.054 119.763 73.054C116.163 73.054 114.039 72.046 114.039 70.228C114.039 68.41 116.163 67.402 119.763 67.402ZM119.763 68.536C117.099 68.536 115.569 69.148 115.569 70.228C115.569 71.308 117.099 71.92 119.763 71.92C122.409 71.92 123.939 71.308 123.939 70.228C123.939 69.148 122.409 68.536 119.763 68.536ZM112.401 74.134H127.107V75.34H112.401V74.134ZM114.183 76.726H125.235V80.398H115.695V82.378H114.219V79.318H123.759V77.878H114.183V76.726ZM114.219 82.054H125.721V83.224H114.219V82.054ZM145.844 67.132H147.284V83.404H145.844V67.132ZM143.27 73.576H146.384V74.8H143.27V73.576ZM142.244 67.474H143.666V82.594H142.244V67.474ZM134.036 69.004H140.246V79.048H134.036V69.004ZM138.842 70.192H135.44V77.86H138.842V70.192ZM156.588 67.708H157.902V68.608C157.902 71.722 154.734 73.954 151.35 74.53L150.756 73.324C153.726 72.874 156.588 70.93 156.588 68.608V67.708ZM156.858 67.708H158.154V68.608C158.154 70.876 161.052 72.874 163.986 73.324L163.392 74.53C160.044 73.954 156.858 71.686 156.858 68.608V67.708ZM156.588 77.212H158.064V83.404H156.588V77.212ZM150.018 76.294H164.724V77.536H150.018V76.294ZM166.541 69.904H174.605V71.128H166.541V69.904ZM170.573 72.208C172.607 72.208 174.083 73.738 174.083 75.934C174.083 78.112 172.607 79.642 170.573 79.642C168.557 79.642 167.081 78.112 167.081 75.934C167.081 73.738 168.557 72.208 170.573 72.208ZM170.573 73.486C169.331 73.486 168.431 74.494 168.431 75.934C168.431 77.374 169.331 78.382 170.573 78.382C171.833 78.382 172.751 77.374 172.751 75.934C172.751 74.494 171.833 73.486 170.573 73.486ZM178.907 67.132H180.347V83.404H178.907V67.132ZM176.315 73.972H179.393V75.214H176.315V73.972ZM175.433 67.492H176.837V82.612H175.433V67.492ZM169.853 67.6H171.329V70.66H169.853V67.6ZM187.618 80.092H202.36V81.334H187.618V80.092ZM194.206 76.204H195.7V80.452H194.206V76.204ZM189.346 68.284H190.822V71.182H199.12V68.284H200.596V76.6H189.346V68.284ZM190.822 72.388V75.376H199.12V72.388H190.822ZM208.19 69.454H209.378V72.1C209.378 75.484 207.308 78.976 204.77 80.272L203.906 79.084C206.228 77.95 208.19 74.854 208.19 72.1V69.454ZM208.46 69.454H209.648V72.1C209.648 74.674 211.484 77.572 213.842 78.688L212.996 79.876C210.422 78.598 208.46 75.322 208.46 72.1V69.454ZM204.482 68.788H213.248V70.048H204.482V68.788ZM215.174 67.132H216.686V83.404H215.174V67.132ZM216.326 73.702H219.35V74.962H216.326V73.702ZM223.368 69.2031L223.157 78.2295H221.347L221.127 69.2031H223.368ZM221.065 80.998C221.065 80.6758 221.171 80.4062 221.382 80.1895C221.599 79.9668 221.897 79.8555 222.278 79.8555C222.653 79.8555 222.949 79.9668 223.166 80.1895C223.383 80.4062 223.491 80.6758 223.491 80.998C223.491 81.3086 223.383 81.5752 223.166 81.7979C222.949 82.0146 222.653 82.123 222.278 82.123C221.897 82.123 221.599 82.0146 221.382 81.7979C221.171 81.5752 221.065 81.3086 221.065 80.998Z" fill="#3C3C3C"/>
</svg>
