<svg width="120" height="55" viewBox="0 0 120 55" fill="none" xmlns="http://www.w3.org/2000/svg">
<path fill-rule="evenodd" clip-rule="evenodd" d="M104.723 45.7945C114.223 42.7521 120 36.6249 120 24.3529C120 2.11046 94.1487 0 60 0C23.6239 0 0 3.39344 0 24.3529C0 48.9279 23.4822 48.8378 53.6195 48.7221C55.716 48.7141 57.8447 48.7059 60 48.7059C62.3169 48.7059 64.6031 48.7162 66.8516 48.7264C77.0816 48.7725 86.531 48.8152 94.5371 47.8666C94.7134 47.9338 94.8926 48.0002 95.0748 48.0658C97.4734 49.6304 98.7854 51.0123 99.1415 51.5076C99.7369 52.1935 101.141 53.0383 101.993 50.9308C102.845 48.8233 103.29 47.95 104.466 46.166C104.546 46.0438 104.632 45.92 104.723 45.7945Z" fill="#FFEEA0" fill-opacity="0.8"/>
<path d="M29.576 16.132H31.016V32.404H29.576V16.132ZM22.52 22.774H26.624V23.98H22.52V22.774ZM26.192 16.546H27.596V31.576H26.192V16.546ZM22.718 18.184H24.158C24.158 22.45 22.448 26.284 18.056 28.894L17.174 27.832C21.008 25.528 22.718 22.288 22.718 18.454V18.184ZM17.894 18.184H23.276V19.408H17.894V18.184ZM45.5766 16.15H47.0886V25.438H45.5766V16.15ZM36.5766 26.32H47.0886V32.188H36.5766V26.32ZM45.6126 27.508H38.0346V30.982H45.6126V27.508ZM38.3586 16.996C40.8246 16.996 42.5886 18.544 42.5886 20.794C42.5886 23.044 40.8246 24.592 38.3586 24.592C35.8926 24.592 34.1106 23.044 34.1106 20.794C34.1106 18.544 35.8926 16.996 38.3586 16.996ZM38.3586 18.238C36.7386 18.238 35.5686 19.282 35.5686 20.794C35.5686 22.306 36.7386 23.332 38.3586 23.332C39.9786 23.332 41.1486 22.306 41.1486 20.794C41.1486 19.282 39.9786 18.238 38.3586 18.238ZM59.0756 17.536H60.2996V20.452C60.2996 24.196 58.2836 27.67 55.6196 29.02L54.7016 27.796C57.1136 26.644 59.0756 23.53 59.0756 20.452V17.536ZM59.3276 17.536H60.5516V20.452C60.5516 23.422 62.4956 26.41 64.9076 27.526L64.0076 28.714C61.3616 27.418 59.3276 24.07 59.3276 20.452V17.536ZM66.5996 16.114H68.0936V32.422H66.5996V16.114ZM75.3462 17.806H76.5702V19.12C76.5702 22.108 74.7702 24.592 72.0522 25.564L71.2602 24.394C73.7262 23.53 75.3462 21.442 75.3462 19.12V17.806ZM75.6162 17.806H76.8402V19.102C76.8402 21.262 78.4062 23.26 80.8002 24.07L80.0262 25.24C77.3442 24.304 75.6162 21.91 75.6162 19.102V17.806ZM71.7282 17.266H80.4222V18.49H71.7282V17.266ZM82.4742 16.132H83.9682V25.924H82.4742V16.132ZM83.5542 20.416H86.3802V21.658H83.5542V20.416ZM73.4022 26.788H83.9682V32.404H82.4742V28.03H73.4022V26.788ZM96.2725 24.1006L97.8984 24.0918C97.8984 24.5957 97.8281 25.0615 97.6875 25.4893C97.5469 25.9111 97.3477 26.2773 97.0898 26.5879C96.8379 26.8984 96.5332 27.1416 96.1758 27.3174C95.8242 27.4873 95.4375 27.5723 95.0156 27.5723C94.5234 27.5723 94.0869 27.4756 93.7061 27.2822C93.3311 27.083 92.9268 26.7842 92.4932 26.3857C92.2236 26.1279 91.9717 25.9316 91.7373 25.7969C91.5029 25.6562 91.251 25.5859 90.9814 25.5859C90.7178 25.5859 90.4922 25.6562 90.3047 25.7969C90.1172 25.9316 89.9707 26.125 89.8652 26.377C89.7598 26.6289 89.707 26.9219 89.707 27.2559H88.0371C88.0371 26.7461 88.1074 26.2832 88.248 25.8672C88.3887 25.4453 88.585 25.085 88.8369 24.7861C89.0947 24.4814 89.3994 24.2471 89.751 24.083C90.1025 23.9189 90.4893 23.8369 90.9111 23.8369C91.4033 23.8369 91.8457 23.9395 92.2383 24.1445C92.6367 24.3496 93.041 24.6426 93.4512 25.0234C93.7324 25.293 93.9873 25.4951 94.2158 25.6299C94.4443 25.7646 94.6875 25.832 94.9453 25.832C95.209 25.832 95.4404 25.7588 95.6396 25.6123C95.8389 25.46 95.9941 25.252 96.1055 24.9883C96.2168 24.7246 96.2725 24.4287 96.2725 24.1006ZM102.478 18.2031L102.267 27.2295H100.456L100.236 18.2031H102.478ZM100.175 29.998C100.175 29.6758 100.28 29.4062 100.491 29.1895C100.708 28.9668 101.007 28.8555 101.388 28.8555C101.763 28.8555 102.059 28.9668 102.275 29.1895C102.492 29.4062 102.601 29.6758 102.601 29.998C102.601 30.3086 102.492 30.5752 102.275 30.7979C102.059 31.0146 101.763 31.123 101.388 31.123C101.007 31.123 100.708 31.0146 100.491 30.7979C100.28 30.5752 100.175 30.3086 100.175 29.998Z" fill="#3C3C3C"/>
</svg>
