<svg width="376" height="109" viewBox="0 0 376 109" fill="none" xmlns="http://www.w3.org/2000/svg">
<path fill-rule="evenodd" clip-rule="evenodd" d="M103.467 12.0672C122.495 8.23506 146.568 7.17666 174.431 7.17666C241.835 7.17666 292.861 11.5478 292.861 57.6156C292.861 108.594 246.993 108.376 187.955 108.097C183.516 108.076 179.004 108.054 174.431 108.054C170.177 108.054 165.975 108.071 161.837 108.088C102.35 108.328 56 108.514 56 57.6156C56 39.1998 64.3918 27.3315 79.5371 19.7698C80.2774 15.948 80.7108 12.2819 81.2132 6.65869C82.0486 -2.68951 87.3782 -0.190729 89.9386 2.22718C91.3765 3.83465 95.9383 7.83056 103.467 12.0672Z" fill="#FFEEA0" fill-opacity="0.8"/>
<path d="M118.737 28.734H120.033V29.418C120.033 32.334 116.937 34.476 113.661 35.034L113.085 33.846C115.947 33.432 118.737 31.56 118.737 29.418V28.734ZM119.115 28.734H120.393V29.418C120.393 31.56 123.201 33.432 126.045 33.846L125.487 35.034C122.193 34.476 119.115 32.334 119.115 29.418V28.734ZM118.791 37.194H120.267V43.404H118.791V37.194ZM112.221 36.402H126.927V37.626H112.221V36.402ZM113.589 28.14H125.505V29.346H113.589V28.14ZM133.01 27.906H134.252V29.49C134.252 32.568 132.416 35.214 129.662 36.258L128.906 35.07C131.372 34.17 133.01 31.92 133.01 29.49V27.906ZM133.28 27.906H134.504V29.49C134.504 31.83 136.178 33.936 138.59 34.782L137.834 35.952C135.116 34.962 133.28 32.478 133.28 29.49V27.906ZM131.246 37.752H142.118V43.404H140.606V38.976H131.246V37.752ZM140.606 27.132H142.118V36.924H140.606V27.132ZM157.255 37.338C160.567 37.338 162.601 38.454 162.601 40.362C162.601 42.27 160.567 43.386 157.255 43.386C153.943 43.386 151.909 42.27 151.909 40.362C151.909 38.454 153.943 37.338 157.255 37.338ZM157.255 38.544C154.843 38.544 153.367 39.21 153.367 40.362C153.367 41.532 154.843 42.198 157.255 42.198C159.667 42.198 161.143 41.532 161.143 40.362C161.143 39.21 159.667 38.544 157.255 38.544ZM160.945 27.132H162.439V36.906H160.945V27.132ZM162.025 31.218H164.851V32.478H162.025V31.218ZM150.487 28.158H151.963V30.588H156.553V28.158H158.011V35.664H150.487V28.158ZM151.963 31.776V34.458H156.553V31.776H151.963ZM178.547 29.94H181.373V31.182H178.547V29.94ZM178.547 33.414H181.373V34.656H178.547V33.414ZM177.503 27.132H178.997V37.608H177.503V27.132ZM173.885 37.752C177.179 37.752 179.177 38.778 179.177 40.56C179.177 42.342 177.179 43.368 173.885 43.368C170.609 43.368 168.593 42.342 168.593 40.56C168.593 38.778 170.609 37.752 173.885 37.752ZM173.885 38.904C171.509 38.904 170.069 39.516 170.069 40.56C170.069 41.622 171.509 42.216 173.885 42.216C176.279 42.216 177.719 41.622 177.719 40.56C177.719 39.516 176.279 38.904 173.885 38.904ZM166.415 28.968H176.027V30.156H166.415V28.968ZM171.221 30.984C173.543 30.984 175.109 32.1 175.109 33.846C175.109 35.61 173.543 36.726 171.221 36.726C168.881 36.726 167.315 35.61 167.315 33.846C167.315 32.1 168.881 30.984 171.221 30.984ZM171.221 32.118C169.727 32.118 168.737 32.802 168.737 33.846C168.737 34.908 169.727 35.592 171.221 35.592C172.679 35.592 173.687 34.908 173.687 33.846C173.687 32.802 172.679 32.118 171.221 32.118ZM170.465 26.988H171.959V29.634H170.465V26.988ZM189.526 33.45H192.604V34.692H189.526V33.45ZM195.322 27.132H196.762V43.404H195.322V27.132ZM192.1 27.474H193.522V42.594H192.1V27.474ZM186.592 28.482C188.698 28.482 190.066 30.66 190.066 34.152C190.066 37.644 188.698 39.822 186.592 39.822C184.486 39.822 183.136 37.644 183.136 34.152C183.136 30.66 184.486 28.482 186.592 28.482ZM186.592 29.868C185.314 29.868 184.504 31.524 184.504 34.152C184.504 36.78 185.314 38.436 186.592 38.436C187.888 38.436 188.698 36.78 188.698 34.152C188.698 31.524 187.888 29.868 186.592 29.868ZM216.345 27.132H217.785V43.404H216.345V27.132ZM213.591 33.648H216.723V34.89H213.591V33.648ZM212.655 27.492H214.059V42.576H212.655V27.492ZM204.555 38.148H205.617C207.993 38.148 209.613 38.058 211.503 37.662L211.647 38.904C209.703 39.318 208.065 39.39 205.617 39.39H204.555V38.148ZM204.555 29.112H210.603V30.336H206.031V38.706H204.555V29.112ZM231.662 27.15H233.156V39.354H231.662V27.15ZM232.688 32.478H235.568V33.738H232.688V32.478ZM220.574 29.112H230.186V30.318H220.574V29.112ZM225.38 31.218C227.684 31.218 229.268 32.424 229.268 34.26C229.268 36.078 227.684 37.284 225.38 37.284C223.058 37.284 221.474 36.078 221.474 34.26C221.474 32.424 223.058 31.218 225.38 31.218ZM225.38 32.388C223.904 32.388 222.896 33.126 222.896 34.26C222.896 35.376 223.904 36.114 225.38 36.114C226.838 36.114 227.846 35.376 227.846 34.26C227.846 33.126 226.838 32.388 225.38 32.388ZM224.624 27.132H226.118V29.742H224.624V27.132ZM223.022 41.82H233.894V43.044H223.022V41.82ZM223.022 38.382H224.516V42.342H223.022V38.382ZM115.768 48.132H117.28V60.39H115.768V48.132ZM106.822 62.82H117.766V64.044H106.822V62.82ZM106.822 59.346H108.298V63.09H106.822V59.346ZM104.176 50.148H114.058V51.354H104.176V50.148ZM109.108 52.218C111.484 52.218 113.086 53.424 113.086 55.26C113.086 57.096 111.484 58.284 109.108 58.284C106.75 58.284 105.148 57.096 105.148 55.26C105.148 53.424 106.75 52.218 109.108 52.218ZM109.108 53.388C107.596 53.388 106.552 54.126 106.552 55.26C106.552 56.394 107.596 57.114 109.108 57.114C110.638 57.114 111.664 56.394 111.664 55.26C111.664 54.126 110.638 53.388 109.108 53.388ZM108.37 48.114H109.864V50.724H108.37V48.114ZM122.391 56.898H133.569V58.104H122.391V56.898ZM120.501 61.074H135.243V62.316H120.501V61.074ZM122.391 49.518H133.389V50.742H123.903V57.276H122.391V49.518ZM123.417 53.154H133.047V54.342H123.417V53.154ZM137.041 55.692H151.801V56.826H137.041V55.692ZM138.787 58.14H149.947V61.614H140.317V63.522H138.841V60.588H148.489V59.202H138.787V58.14ZM138.841 63.126H150.469V64.206H138.841V63.126ZM138.913 48.6H149.893V51.984H140.425V53.748H138.949V50.976H148.435V49.662H138.913V48.6ZM138.949 53.388H150.199V54.468H138.949V53.388ZM173.707 48.132H175.201V56.412H173.707V48.132ZM174.553 51.624H177.595V52.866H174.553V51.624ZM164.869 57.186H175.201V61.182H166.381V63.612H164.905V60.048H173.743V58.374H164.869V57.186ZM164.905 62.982H175.795V64.188H164.905V62.982ZM167.065 48.708C169.513 48.708 171.277 50.202 171.277 52.326C171.277 54.468 169.513 55.962 167.065 55.962C164.653 55.962 162.871 54.468 162.871 52.326C162.871 50.202 164.653 48.708 167.065 48.708ZM167.065 49.932C165.499 49.932 164.329 50.922 164.329 52.326C164.329 53.748 165.499 54.738 167.065 54.738C168.667 54.738 169.837 53.748 169.837 52.326C169.837 50.922 168.667 49.932 167.065 49.932ZM180.689 49.752H191.165V50.994H180.689V49.752ZM179.141 60.894H193.847V62.136H179.141V60.894ZM184.847 55.08H186.341V61.506H184.847V55.08ZM190.607 49.752H192.083V51.372C192.083 53.388 192.083 55.62 191.489 58.914L189.995 58.716C190.607 55.602 190.607 53.316 190.607 51.372V49.752ZM207.526 48.15H209.038V57.168H207.526V48.15ZM199.93 48.726H201.172V50.31C201.172 53.316 199.3 55.854 196.546 56.844L195.79 55.674C198.238 54.81 199.93 52.65 199.93 50.31V48.726ZM200.2 48.726H201.424V50.31C201.424 52.578 203.134 54.576 205.546 55.368L204.808 56.556C202.072 55.62 200.2 53.226 200.2 50.31V48.726ZM198.274 58.14H209.128V59.364H198.274V58.14ZM198.112 62.982H209.308V64.188H198.112V62.982ZM200.506 58.662H201.964V63.684H200.506V58.662ZM205.438 58.662H206.914V63.684H205.438V58.662ZM223.256 48.114H224.768V64.422H223.256V48.114ZM224.408 54.54H227.432V55.8H224.408V54.54ZM212.942 59.112H214.22C217.226 59.112 219.332 59.004 221.762 58.554L221.924 59.814C219.422 60.282 217.28 60.372 214.22 60.372H212.942V59.112ZM212.942 49.698H220.502V50.922H214.418V59.67H212.942V49.698ZM236.611 50.994H241.165V52.218H236.611V50.994ZM236.611 54.468H241.201V55.71H236.611V54.468ZM229.555 49.536H236.989V57.168H229.555V49.536ZM235.513 50.742H231.013V55.962H235.513V50.742ZM240.697 48.15H242.191V60.03H240.697V48.15ZM231.733 62.82H242.587V64.044H231.733V62.82ZM231.733 58.95H233.227V63.378H231.733V58.95ZM75.031 76.26H76.507V79.176H75.031V76.26ZM70.423 73.002H81.457V74.226H70.423V73.002ZM68.425 75.63H83.185V76.836H68.425V75.63ZM70.423 69.366H71.881V73.56H70.423V69.366ZM70.261 78.546H81.313V82.308H71.773V84.468H70.297V81.21H79.819V79.716H70.261V78.546ZM70.297 84.054H81.853V85.224H70.297V84.054ZM96.8816 69.114H98.3756V85.422H96.8816V69.114ZM93.7856 75.378H97.2416V76.602H93.7856V75.378ZM85.5956 80.274H86.8376C89.7176 80.274 91.7516 80.184 94.1456 79.752L94.2896 80.994C91.8416 81.426 89.7716 81.534 86.8376 81.534H85.5956V80.274ZM85.5596 70.644H92.8316V76.35H87.0716V80.652H85.5956V75.126H91.3556V71.868H85.5596V70.644ZM109.678 74.64H114.214V75.864H109.678V74.64ZM105.754 70.536H106.978V73.434C106.978 77.088 105.052 80.58 102.478 81.966L101.524 80.778C103.918 79.59 105.754 76.458 105.754 73.434V70.536ZM106.042 70.536H107.248V73.434C107.248 76.404 109.084 79.356 111.442 80.472L110.56 81.678C107.932 80.346 106.042 76.998 106.042 73.434V70.536ZM113.476 69.114H114.952V85.422H113.476V69.114ZM134.481 69.15H135.975V81.552H134.481V69.15ZM131.727 73.452H135.111V74.676H131.727V73.452ZM131.727 76.89H135.111V78.096H131.727V76.89ZM122.619 71.112H131.727V72.318H122.619V71.112ZM127.227 73.218C129.387 73.218 130.899 74.46 130.899 76.332C130.899 78.186 129.387 79.446 127.227 79.446C125.049 79.446 123.537 78.186 123.537 76.332C123.537 74.46 125.049 73.218 127.227 73.218ZM127.227 74.388C125.877 74.388 124.959 75.18 124.959 76.332C124.959 77.484 125.877 78.258 127.227 78.258C128.577 78.258 129.495 77.484 129.495 76.332C129.495 75.18 128.577 74.388 127.227 74.388ZM126.489 69.114H127.983V71.886H126.489V69.114ZM125.517 83.82H136.371V85.044H125.517V83.82ZM125.517 80.49H127.011V84.414H125.517V80.49ZM151.598 69.132H153.02V85.404H151.598V69.132ZM149.024 75.684H152.156V76.944H149.024V75.684ZM148.052 69.474H149.456V84.594H148.052V69.474ZM142.508 71.652H143.678V73.524C143.678 77.43 142.4 80.562 139.898 82.056L138.98 80.904C141.32 79.608 142.508 76.836 142.508 73.524V71.652ZM142.778 71.652H143.948V73.524C143.948 76.512 145.154 79.158 147.44 80.328L146.558 81.48C144.074 80.112 142.778 77.106 142.778 73.524V71.652ZM139.358 71.04H146.918V72.282H139.358V71.04ZM164.143 69.978H165.385V71.634C165.385 74.766 163.621 77.358 160.903 78.42L160.111 77.214C162.559 76.314 164.143 74.118 164.143 71.634V69.978ZM164.413 69.978H165.637V71.742C165.637 73.938 167.257 75.972 169.597 76.782L168.805 77.952C166.195 76.98 164.413 74.568 164.413 71.742V69.978ZM171.325 69.132H172.819V78.996H171.325V69.132ZM172.405 73.326H175.231V74.586H172.405V73.326ZM167.635 79.446C170.965 79.446 172.981 80.544 172.981 82.416C172.981 84.288 170.965 85.368 167.635 85.368C164.305 85.368 162.289 84.288 162.289 82.416C162.289 80.544 164.305 79.446 167.635 79.446ZM167.635 80.634C165.223 80.634 163.747 81.282 163.747 82.416C163.747 83.55 165.223 84.198 167.635 84.198C170.047 84.198 171.523 83.55 171.523 82.416C171.523 81.282 170.047 80.634 167.635 80.634ZM187.865 69.15H189.359V80.166H187.865V69.15ZM188.729 74.028H191.735V75.288H188.729V74.028ZM184.139 80.382C187.523 80.382 189.485 81.264 189.485 82.884C189.485 84.504 187.523 85.386 184.139 85.386C180.773 85.386 178.811 84.504 178.811 82.884C178.811 81.264 180.773 80.382 184.139 80.382ZM184.139 81.498C181.673 81.498 180.305 81.984 180.305 82.884C180.305 83.784 181.673 84.27 184.139 84.27C186.587 84.27 187.973 83.784 187.973 82.884C187.973 81.984 186.587 81.498 184.139 81.498ZM181.007 76.53H182.501V78.762H181.007V76.53ZM176.849 79.446L176.651 78.258C179.567 78.258 183.563 78.222 186.893 77.736L187.019 78.78C183.563 79.41 179.693 79.446 176.849 79.446ZM177.065 70.536H186.407V71.652H177.065V70.536ZM181.745 72.336C184.049 72.336 185.525 73.2 185.525 74.64C185.525 76.08 184.049 76.944 181.745 76.944C179.441 76.944 177.947 76.08 177.947 74.64C177.947 73.2 179.441 72.336 181.745 72.336ZM181.745 73.344C180.287 73.344 179.351 73.848 179.351 74.64C179.351 75.45 180.287 75.936 181.745 75.936C183.203 75.936 184.121 75.45 184.121 74.64C184.121 73.848 183.203 73.344 181.745 73.344ZM181.007 69.006H182.501V70.95H181.007V69.006ZM200.662 69.402C204.244 69.402 206.386 70.41 206.386 72.228C206.386 74.046 204.244 75.054 200.662 75.054C197.062 75.054 194.938 74.046 194.938 72.228C194.938 70.41 197.062 69.402 200.662 69.402ZM200.662 70.536C197.998 70.536 196.468 71.148 196.468 72.228C196.468 73.308 197.998 73.92 200.662 73.92C203.308 73.92 204.838 73.308 204.838 72.228C204.838 71.148 203.308 70.536 200.662 70.536ZM193.3 76.134H208.006V77.34H193.3V76.134ZM195.082 78.726H206.134V82.398H196.594V84.378H195.118V81.318H204.658V79.878H195.082V78.726ZM195.118 84.054H206.62V85.224H195.118V84.054ZM218.607 76.764H220.101V78.852H218.607V76.764ZM225.465 69.15H226.959V80.058H225.465V69.15ZM226.329 74.064H229.335V75.306H226.329V74.064ZM214.449 79.59L214.251 78.366C217.167 78.366 221.127 78.366 224.493 77.88L224.619 78.942C221.145 79.554 217.293 79.572 214.449 79.59ZM216.267 80.868H226.959V85.404H225.465V82.056H216.267V80.868ZM214.665 70.608H224.007V71.724H214.665V70.608ZM219.345 72.354C221.631 72.354 223.125 73.272 223.125 74.766C223.125 76.26 221.631 77.178 219.345 77.178C217.041 77.178 215.547 76.26 215.547 74.766C215.547 73.272 217.041 72.354 219.345 72.354ZM219.345 73.38C217.887 73.38 216.951 73.902 216.951 74.766C216.951 75.594 217.887 76.134 219.345 76.134C220.785 76.134 221.721 75.594 221.721 74.766C221.721 73.902 220.785 73.38 219.345 73.38ZM218.607 69.006H220.101V71.148H218.607V69.006ZM242.744 69.15H244.256V81.03H242.744V69.15ZM233.798 83.82H244.742V85.044H233.798V83.82ZM233.798 79.806H235.274V84.234H233.798V79.806ZM235.526 70.266C237.956 70.266 239.756 71.922 239.756 74.28C239.756 76.62 237.956 78.294 235.526 78.294C233.096 78.294 231.278 76.62 231.278 74.28C231.278 71.922 233.096 70.266 235.526 70.266ZM235.526 71.562C233.942 71.562 232.736 72.678 232.736 74.28C232.736 75.864 233.942 76.98 235.526 76.98C237.11 76.98 238.316 75.864 238.316 74.28C238.316 72.678 237.11 71.562 235.526 71.562ZM247.44 71.904H255.504V73.128H247.44V71.904ZM251.472 74.208C253.506 74.208 254.982 75.738 254.982 77.934C254.982 80.112 253.506 81.642 251.472 81.642C249.456 81.642 247.98 80.112 247.98 77.934C247.98 75.738 249.456 74.208 251.472 74.208ZM251.472 75.486C250.23 75.486 249.33 76.494 249.33 77.934C249.33 79.374 250.23 80.382 251.472 80.382C252.732 80.382 253.65 79.374 253.65 77.934C253.65 76.494 252.732 75.486 251.472 75.486ZM259.806 69.132H261.246V85.404H259.806V69.132ZM257.214 75.972H260.292V77.214H257.214V75.972ZM256.332 69.492H257.736V84.612H256.332V69.492ZM250.752 69.6H252.228V72.66H250.752V69.6ZM264.899 70.482H266.393V72.912H271.505V70.482H272.981V77.808H264.899V70.482ZM266.393 74.1V76.584H271.505V74.1H266.393ZM268.193 77.376H269.687V81.174H268.193V77.376ZM275.033 69.132H276.527V85.404H275.033V69.132ZM276.095 75.954H279.101V77.214H276.095V75.954ZM264.053 82.074L263.837 80.814C266.771 80.814 270.695 80.796 274.007 80.346L274.133 81.444C270.695 82.038 266.897 82.092 264.053 82.074ZM283.227 71.2031L283.016 80.2295H281.205L280.985 71.2031H283.227ZM280.924 82.998C280.924 82.6758 281.029 82.4062 281.24 82.1895C281.457 81.9668 281.756 81.8555 282.137 81.8555C282.512 81.8555 282.808 81.9668 283.024 82.1895C283.241 82.4062 283.35 82.6758 283.35 82.998C283.35 83.3086 283.241 83.5752 283.024 83.7979C282.808 84.0146 282.512 84.123 282.137 84.123C281.756 84.123 281.457 84.0146 281.24 83.7979C281.029 83.5752 280.924 83.3086 280.924 82.998Z" fill="#3C3C3C"/>
</svg>
