<svg width="58" height="43" viewBox="0 0 58 43" fill="none" xmlns="http://www.w3.org/2000/svg">
<path d="M33.9568 41.96C41.1168 41.96 48.3867 40.2 53.1167 34.73C57.8467 29.26 58.4467 19.73 53.8667 12.36C53.6367 11.98 53.3767 11.62 53.1167 11.26C53.1167 11.26 54.0067 1 48.8767 1C46.9143 1.10954 45.0481 1.88567 43.5867 3.2C43.3223 3.4195 43.0081 3.57076 42.6716 3.6405C42.3351 3.71024 41.9866 3.69633 41.6567 3.6C36.6301 2.11987 31.2834 2.11987 26.2567 3.6C25.9269 3.69633 25.5784 3.71024 25.2419 3.6405C24.9054 3.57076 24.5912 3.4195 24.3268 3.2C22.8685 1.88708 21.0059 1.11099 19.0468 1C13.9068 1 14.7968 11.26 14.7968 11.26C14.5368 11.62 14.2768 11.98 14.0468 12.36C9.46675 19.71 10.0468 29.26 14.7968 34.73C19.5468 40.2 26.7968 41.95 33.9568 41.96Z" fill="#A3C7F7"/>
<path d="M33.9568 41.96C41.1168 41.96 48.3867 40.2 53.1167 34.73C57.8467 29.26 58.4467 19.73 53.8667 12.36C53.6367 11.98 53.3767 11.62 53.1167 11.26C53.1167 11.26 54.0067 1 48.8767 1C46.9143 1.10954 45.0481 1.88567 43.5867 3.2C43.3223 3.4195 43.0081 3.57076 42.6716 3.6405C42.3351 3.71024 41.9866 3.69633 41.6567 3.6C36.6301 2.11987 31.2834 2.11987 26.2567 3.6C25.9269 3.69633 25.5784 3.71024 25.2419 3.6405C24.9054 3.57076 24.5912 3.4195 24.3268 3.2C22.8685 1.88708 21.0059 1.11099 19.0468 1C13.9068 1 14.7968 11.26 14.7968 11.26C14.5368 11.62 14.2768 11.98 14.0468 12.36C9.46675 19.71 10.0468 29.26 14.7968 34.73C19.5468 40.2 26.7968 41.95 33.9568 41.96Z" stroke="black" stroke-width="0.8" stroke-linecap="round" stroke-linejoin="round"/>
<path d="M33.957 35.2601C43.877 35.0501 47.157 31.7801 49.147 28.6601C50.2809 26.6931 50.7116 24.3989 50.3685 22.1546C50.0253 19.9103 48.9287 17.8496 47.2589 16.3113C45.5891 14.773 43.4456 13.8487 41.1808 13.6904C38.9159 13.532 36.6646 14.1491 34.797 15.4401C34.55 15.6104 34.2571 15.7016 33.957 15.7016C33.657 15.7016 33.364 15.6104 33.117 15.4401C31.2494 14.1491 28.9981 13.532 26.7333 13.6904C24.4685 13.8487 22.3249 14.773 20.6551 16.3113C18.9853 17.8496 17.8887 19.9103 17.5456 22.1546C17.2024 24.3989 17.6332 26.6931 18.767 28.6601C20.767 31.7801 24.037 35.0501 33.957 35.2601Z" fill="white"/>
<path d="M44.4671 25.3898C44.4671 25.8531 44.3296 26.3059 44.072 26.6909C43.8145 27.0759 43.4484 27.3758 43.0203 27.5526C42.5921 27.7295 42.1211 27.7752 41.6669 27.6841C41.2127 27.593 40.7958 27.3691 40.4689 27.0409C40.1421 26.7126 39.92 26.2947 39.8309 25.8402C39.7417 25.3856 39.7895 24.9148 39.9681 24.4874C40.1467 24.06 40.4482 23.6952 40.8343 23.4393C41.2205 23.1834 41.6739 23.0478 42.1371 23.0498C42.4439 23.0498 42.7477 23.1104 43.0311 23.2281C43.3144 23.3459 43.5717 23.5184 43.7882 23.7358C44.0047 23.9532 44.1761 24.2113 44.2926 24.4951C44.4091 24.7789 44.4684 25.083 44.4671 25.3898Z" fill="#FFE8D4"/>
<path d="M23.4473 25.3898C23.4473 25.8531 23.5847 26.3059 23.8423 26.6909C24.0999 27.0759 24.4659 27.3758 24.8941 27.5526C25.3223 27.7295 25.7933 27.7752 26.2475 27.6841C26.7017 27.593 27.1186 27.3691 27.4454 27.0409C27.7723 26.7126 27.9944 26.2947 28.0835 25.8402C28.1727 25.3856 28.1249 24.9148 27.9463 24.4874C27.7676 24.06 27.4661 23.6952 27.08 23.4393C26.6939 23.1834 26.2405 23.0478 25.7773 23.0498C25.1584 23.0525 24.5658 23.3002 24.1291 23.7387C23.6924 24.1773 23.4473 24.7709 23.4473 25.3898Z" fill="#FFE8D4"/>
<path d="M30.5166 22C30.775 21.8436 31.0819 21.7878 31.3788 21.8431C31.6757 21.8984 31.9419 22.061 32.1266 22.3" stroke="black" stroke-width="0.8" stroke-linecap="round" stroke-linejoin="round"/>
<path d="M37.4071 22.25C37.4071 22.4062 37.3608 22.5589 37.274 22.6889C37.1872 22.8188 37.0638 22.92 36.9195 22.9798C36.7751 23.0396 36.6163 23.0553 36.463 23.0248C36.3098 22.9943 36.169 22.9191 36.0585 22.8086C35.9481 22.6981 35.8728 22.5573 35.8423 22.4041C35.8118 22.2508 35.8275 22.092 35.8873 21.9476C35.9471 21.8033 36.0484 21.6799 36.1783 21.5931C36.3082 21.5063 36.4609 21.46 36.6171 21.46C36.8267 21.46 37.0276 21.5432 37.1758 21.6913C37.3239 21.8395 37.4071 22.0404 37.4071 22.25Z" fill="black"/>
<path d="M33.9569 28.5197C31.1769 27.6397 31.0369 25.5197 31.4569 24.6497C31.6571 24.3201 31.9743 24.0783 32.3451 23.9727C32.7159 23.867 33.113 23.9052 33.4569 24.0797C33.615 24.1468 33.7851 24.1814 33.9569 24.1814C34.1287 24.1814 34.2987 24.1468 34.4569 24.0797C34.8007 23.9052 35.1978 23.867 35.5686 23.9727C35.9394 24.0783 36.2567 24.3201 36.4569 24.6497C36.8769 25.4997 36.7369 27.6497 33.9569 28.5197Z" fill="#FFE27A"/>
<path d="M33.9569 28.5197C31.1769 27.6397 31.0369 25.5197 31.4569 24.6497C31.6571 24.3201 31.9743 24.0783 32.3451 23.9727C32.7159 23.867 33.113 23.9052 33.4569 24.0797C33.615 24.1468 33.7851 24.1814 33.9569 24.1814C34.1287 24.1814 34.2987 24.1468 34.4569 24.0797C34.8007 23.9052 35.1978 23.867 35.5686 23.9727C35.9394 24.0783 36.2567 24.3201 36.4569 24.6497C36.8769 25.4997 36.7369 27.6397 33.9569 28.5197Z" stroke="black" stroke-width="0.8" stroke-linecap="round" stroke-linejoin="round"/>
<path d="M7.78713 10.4896C7.20523 10.4809 6.63427 10.648 6.14894 10.9692C5.66362 11.2904 5.28656 11.7506 5.06713 12.2896C5.06713 12.2896 3.11714 11.2896 1.73714 12.5996C0.597141 13.6996 0.867132 15.5996 1.94713 16.8096C3.80713 18.9796 8.18712 19.0896 8.18712 19.0896C9.27156 17.506 9.88527 15.6476 9.95714 13.7296C9.86714 12.0896 9.35713 10.6696 7.78713 10.5196" fill="#FEA098"/>
<path d="M7.78713 10.4896C7.20523 10.4809 6.63427 10.648 6.14894 10.9692C5.66362 11.2904 5.28656 11.7506 5.06713 12.2896C5.06713 12.2896 3.11714 11.2896 1.73714 12.5996C0.597141 13.6996 0.867132 15.5996 1.94713 16.8096C3.80713 18.9796 8.18712 19.0896 8.18712 19.0896C9.27156 17.506 9.88527 15.6476 9.95714 13.7296C9.86714 12.0596 9.35713 10.6396 7.78713 10.4896Z" stroke="black" stroke-width="0.8" stroke-linecap="round" stroke-linejoin="round"/>
<path d="M7.34728 20.7297C7.01447 20.7211 6.6866 20.8115 6.40529 20.9896C6.12399 21.1676 5.90193 21.4252 5.76729 21.7297C5.41825 21.5045 4.9953 21.4238 4.58788 21.5048C4.18046 21.5858 3.8205 21.8221 3.58413 22.1636C3.34775 22.5052 3.25348 22.9253 3.32125 23.3352C3.38902 23.745 3.61353 24.1124 3.94729 24.3597C4.7938 25.163 5.92035 25.6043 7.08727 25.5897C8.0071 24.8744 8.61596 23.8322 8.78728 22.6797C8.8418 22.2265 8.72402 21.7693 8.4573 21.3989C8.19057 21.0284 7.79439 20.7717 7.34728 20.6797" fill="#FEA098"/>
<path d="M7.34728 20.7301C7.01447 20.7214 6.6866 20.8119 6.40529 20.9899C6.12399 21.168 5.90193 21.4256 5.76729 21.7301C5.41825 21.5048 4.9953 21.4242 4.58788 21.5052C4.18046 21.5862 3.8205 21.8224 3.58413 22.164C3.34775 22.5056 3.25348 22.9257 3.32125 23.3355C3.38902 23.7454 3.61353 24.1128 3.94729 24.3601C4.7938 25.1634 5.92035 25.6047 7.08727 25.5901C8.0071 24.8748 8.61596 23.8326 8.78728 22.6801C8.82867 22.2349 8.70475 21.7901 8.43917 21.4304C8.17359 21.0708 7.78491 20.8215 7.34728 20.7301Z" stroke="black" stroke-width="0.8" stroke-linecap="round" stroke-linejoin="round"/>
</svg>
