<svg width="48" height="43" viewBox="0 0 48 43" fill="none" xmlns="http://www.w3.org/2000/svg">
<path d="M24.056 41.8301C31.216 41.8301 38.476 40.0701 43.216 34.6001C47.956 29.1301 48.546 19.6001 43.966 12.2301C43.726 11.8501 43.476 11.4901 43.216 11.1301C43.216 11.1301 44.106 0.870117 38.966 0.870117C37.0069 0.98111 35.1443 1.75719 33.686 3.07012C33.4216 3.28962 33.1074 3.44087 32.7709 3.51061C32.4344 3.58035 32.0859 3.56645 31.756 3.47012C26.7294 1.98999 21.3827 1.98999 16.356 3.47012C16.0262 3.56645 15.6777 3.58035 15.3412 3.51061C15.0047 3.44087 14.6904 3.28962 14.426 3.07012C12.9629 1.75852 11.0977 0.982815 9.13603 0.870117C4.00603 0.870117 4.89603 11.1301 4.89603 11.1301C4.63603 11.4901 4.37603 11.8501 4.13603 12.2301C-0.393973 19.6001 0.156028 29.1301 4.89603 34.6001C9.63603 40.0701 16.896 41.8201 24.056 41.8301Z" fill="#A3C7F7"/>
<path d="M24.056 41.8301C31.216 41.8301 38.476 40.0701 43.216 34.6001C47.956 29.1301 48.546 19.6001 43.966 12.2301C43.726 11.8501 43.476 11.4901 43.216 11.1301C43.216 11.1301 44.106 0.870117 38.966 0.870117C37.0069 0.98111 35.1443 1.75719 33.686 3.07012C33.4216 3.28962 33.1074 3.44087 32.7709 3.51061C32.4344 3.58035 32.0859 3.56645 31.756 3.47012C26.7294 1.98999 21.3827 1.98999 16.356 3.47012C16.0262 3.56645 15.6777 3.58035 15.3412 3.51061C15.0047 3.44087 14.6904 3.28962 14.426 3.07012C12.9629 1.75852 11.0977 0.982815 9.13603 0.870117C4.00603 0.870117 4.89603 11.1301 4.89603 11.1301C4.63603 11.4901 4.37603 11.8501 4.13603 12.2301C-0.393973 19.6001 0.156028 29.1301 4.89603 34.6001C9.63603 40.0701 16.896 41.8201 24.056 41.8301Z" stroke="black" stroke-width="0.8" stroke-linecap="round" stroke-linejoin="round"/>
<path d="M24.0569 35.1295C33.9769 34.9195 37.2569 31.6495 39.2369 28.5295C40.3667 26.5636 40.7948 24.272 40.451 22.0307C40.1072 19.7894 39.0119 17.7315 37.3447 16.1945C35.6776 14.6576 33.5376 13.7329 31.2758 13.5721C29.014 13.4113 26.7647 14.0239 24.8969 15.3095C24.6483 15.4807 24.3537 15.5723 24.0519 15.5723C23.7501 15.5723 23.4554 15.4807 23.2069 15.3095C21.3391 14.0239 19.0898 13.4113 16.828 13.5721C14.5662 13.7329 12.4262 14.6576 10.759 16.1945C9.09186 17.7315 7.99654 19.7894 7.65274 22.0307C7.30894 24.272 7.73706 26.5636 8.86688 28.5295C10.8669 31.6495 14.1369 34.9195 24.0569 35.1295Z" fill="white"/>
<path d="M34.6068 25.2599C34.6068 25.7227 34.4695 26.1751 34.2124 26.56C33.9553 26.9448 33.5898 27.2447 33.1622 27.4218C32.7347 27.5989 32.2642 27.6452 31.8102 27.555C31.3563 27.4647 30.9394 27.2418 30.6121 26.9146C30.2849 26.5873 30.062 26.1704 29.9717 25.7164C29.8814 25.2625 29.9278 24.792 30.1049 24.3644C30.282 23.9369 30.5819 23.5714 30.9667 23.3143C31.3515 23.0572 31.804 22.9199 32.2668 22.9199C32.8874 22.9199 33.4826 23.1665 33.9214 23.6053C34.3602 24.0441 34.6068 24.6393 34.6068 25.2599Z" fill="#FFE8D4"/>
<path d="M13.5469 25.2599C13.5469 25.7232 13.6844 26.176 13.942 26.561C14.1995 26.946 14.5656 27.246 14.9937 27.4228C15.4219 27.5996 15.8929 27.6453 16.3471 27.5542C16.8013 27.4631 17.2182 27.2393 17.5451 26.911C17.8719 26.5827 18.094 26.1649 18.1831 25.7103C18.2723 25.2557 18.2245 24.7849 18.0459 24.3575C17.8672 23.9301 17.5658 23.5653 17.1796 23.3094C16.7935 23.0535 16.3401 22.918 15.8769 22.9199C15.5701 22.9199 15.2663 22.9805 14.9829 23.0983C14.6996 23.216 14.4423 23.3885 14.2258 23.6059C14.0093 23.8233 13.8379 24.0814 13.7214 24.3652C13.6049 24.6491 13.5456 24.9531 13.5469 25.2599Z" fill="#FFE8D4"/>
<path d="M20.6066 22.12C20.5941 22.0094 20.6051 21.8975 20.6388 21.7915C20.6726 21.6855 20.7283 21.5879 20.8024 21.5049C20.8765 21.422 20.9673 21.3556 21.0688 21.3101C21.1704 21.2647 21.2803 21.2412 21.3916 21.2412C21.5028 21.2412 21.6128 21.2647 21.7143 21.3101C21.8158 21.3556 21.9066 21.422 21.9807 21.5049C22.0548 21.5879 22.1106 21.6855 22.1443 21.7915C22.1781 21.8975 22.1891 22.0094 22.1766 22.12" stroke="black" stroke-width="0.8" stroke-linecap="round" stroke-linejoin="round"/>
<path d="M25.9366 22.12C25.9241 22.0094 25.9351 21.8975 25.9689 21.7915C26.0026 21.6855 26.0584 21.5879 26.1325 21.5049C26.2066 21.422 26.2974 21.3556 26.3989 21.3101C26.5004 21.2647 26.6104 21.2412 26.7216 21.2412C26.8329 21.2412 26.9429 21.2647 27.0444 21.3101C27.1459 21.3556 27.2367 21.422 27.3108 21.5049C27.3849 21.5879 27.4406 21.6855 27.4744 21.7915C27.5081 21.8975 27.5191 22.0094 27.5066 22.12" stroke="black" stroke-width="0.8" stroke-linecap="round" stroke-linejoin="round"/>
<path d="M24.0565 28.3898C21.2765 27.5098 21.1365 25.3898 21.5565 24.5198C21.7567 24.1903 22.0739 23.9485 22.4447 23.8428C22.8156 23.7371 23.2126 23.7753 23.5565 23.9498C23.7146 24.0169 23.8847 24.0515 24.0565 24.0515C24.2283 24.0515 24.3983 24.0169 24.5565 23.9498C24.9003 23.7753 25.2974 23.7371 25.6682 23.8428C26.039 23.9485 26.3563 24.1903 26.5565 24.5198C26.9765 25.3698 26.8365 27.5198 24.0565 28.3898Z" fill="#FFE27A"/>
<path d="M24.0565 28.3898C21.2765 27.5098 21.1365 25.3898 21.5565 24.5198C21.7567 24.1903 22.0739 23.9485 22.4447 23.8428C22.8156 23.7371 23.2126 23.7753 23.5565 23.9498C23.7146 24.0169 23.8847 24.0515 24.0565 24.0515C24.2283 24.0515 24.3983 24.0169 24.5565 23.9498C24.9003 23.7753 25.2974 23.7371 25.6682 23.8428C26.039 23.9485 26.3563 24.1903 26.5565 24.5198C26.9765 25.3698 26.8365 27.5098 24.0565 28.3898Z" stroke="black" stroke-width="0.8" stroke-linecap="round" stroke-linejoin="round"/>
</svg>
