<svg width="48" height="43" viewBox="0 0 48 43" fill="none" xmlns="http://www.w3.org/2000/svg">
<path d="M24.056 41.96C31.216 41.96 38.486 40.2 43.216 34.73C47.946 29.26 48.546 19.73 43.976 12.36C43.736 11.98 43.476 11.62 43.216 11.26C43.216 11.26 44.106 1 38.976 1C37.0143 1.1127 35.1491 1.88841 33.686 3.2C33.4216 3.4195 33.1074 3.57076 32.7709 3.6405C32.4344 3.71024 32.0859 3.69633 31.756 3.6C26.7294 2.11987 21.3827 2.11987 16.356 3.6C16.0261 3.69633 15.6777 3.71024 15.3412 3.6405C15.0047 3.57076 14.6904 3.4195 14.426 3.2C12.9677 1.88708 11.1051 1.11099 9.14601 1C4.00601 1 4.89601 11.26 4.89601 11.26C4.63601 11.62 4.38601 11.98 4.14601 12.36C-0.453986 19.73 0.156014 29.26 4.89601 34.73C9.63601 40.2 16.896 41.95 24.056 41.96Z" fill="#A3C7F7"/>
<path d="M24.056 41.96C31.216 41.96 38.486 40.2 43.216 34.73C47.946 29.26 48.546 19.73 43.976 12.36C43.736 11.98 43.476 11.62 43.216 11.26C43.216 11.26 44.106 1 38.976 1C37.0143 1.1127 35.1491 1.88841 33.686 3.2C33.4216 3.4195 33.1074 3.57076 32.7709 3.6405C32.4344 3.71024 32.0859 3.69633 31.756 3.6C26.7294 2.11987 21.3827 2.11987 16.356 3.6C16.0261 3.69633 15.6777 3.71024 15.3412 3.6405C15.0047 3.57076 14.6904 3.4195 14.426 3.2C12.9677 1.88708 11.1051 1.11099 9.14601 1C4.00601 1 4.89601 11.26 4.89601 11.26C4.63601 11.62 4.38601 11.98 4.14601 12.36C-0.453986 19.73 0.156014 29.26 4.89601 34.73C9.63601 40.2 16.896 41.95 24.056 41.96Z" stroke="black" stroke-width="0.8" stroke-linecap="round" stroke-linejoin="round"/>
<path d="M24.0557 35.2594C33.9757 35.0494 37.2557 31.7794 39.2457 28.6594C40.3755 26.6934 40.8036 24.4018 40.4598 22.1605C40.116 19.9193 39.0207 17.8614 37.3535 16.3244C35.6864 14.7875 33.5464 13.8627 31.2846 13.7019C29.0228 13.5411 26.7735 14.1538 24.9057 15.4394C24.6571 15.6106 24.3624 15.7022 24.0607 15.7022C23.7589 15.7022 23.4642 15.6106 23.2157 15.4394C21.3478 14.1538 19.0985 13.5411 16.8367 13.7019C14.5749 13.8627 12.435 14.7875 10.7678 16.3244C9.10065 17.8614 8.00533 19.9193 7.66153 22.1605C7.31773 24.4018 7.74585 26.6934 8.87567 28.6594C10.8757 31.7794 14.1357 35.0494 24.0557 35.2594Z" fill="white"/>
<path d="M34.5462 25.3898C34.5462 25.8531 34.4087 26.3059 34.1511 26.6909C33.8936 27.0759 33.5275 27.3758 33.0994 27.5526C32.6712 27.7295 32.2002 27.7752 31.746 27.6841C31.2918 27.593 30.8749 27.3691 30.548 27.0409C30.2212 26.7126 29.9991 26.2947 29.91 25.8402C29.8208 25.3856 29.8686 24.9148 30.0472 24.4874C30.2259 24.06 30.5273 23.6952 30.9135 23.4393C31.2996 23.1834 31.753 23.0478 32.2162 23.0498C32.523 23.0498 32.8268 23.1104 33.1102 23.2281C33.3935 23.3459 33.6508 23.5184 33.8673 23.7358C34.0838 23.9532 34.2552 24.2113 34.3717 24.4951C34.4882 24.7789 34.5475 25.083 34.5462 25.3898Z" fill="#FFE8D4"/>
<path d="M13.5459 25.3898C13.5459 25.8526 13.6831 26.305 13.9403 26.6898C14.1974 27.0746 14.5628 27.3746 14.9904 27.5517C15.418 27.7288 15.8885 27.7751 16.3424 27.6848C16.7963 27.5946 17.2133 27.3717 17.5405 27.0444C17.8678 26.7172 18.0906 26.3002 18.1809 25.8463C18.2712 25.3924 18.2249 24.9219 18.0478 24.4943C17.8707 24.0667 17.5707 23.7013 17.1859 23.4442C16.8011 23.187 16.3487 23.0498 15.8859 23.0498C15.2653 23.0498 14.6701 23.2963 14.2313 23.7352C13.7924 24.174 13.5459 24.7692 13.5459 25.3898Z" fill="#FFE8D4"/>
<path d="M24.0555 28.5197C21.2755 27.6397 21.1355 25.5197 21.5555 24.6497C21.7557 24.3201 22.0729 24.0783 22.4438 23.9727C22.8146 23.867 23.2116 23.9052 23.5555 24.0797C23.7137 24.1468 23.8837 24.1814 24.0555 24.1814C24.2273 24.1814 24.3973 24.1468 24.5555 24.0797C24.8993 23.9052 25.2964 23.867 25.6672 23.9727C26.038 24.0783 26.3553 24.3201 26.5555 24.6497C26.9755 25.4997 26.8355 27.6497 24.0555 28.5197Z" fill="#FFE27A"/>
<path d="M24.0555 28.5197C21.2755 27.6397 21.1355 25.5197 21.5555 24.6497C21.7557 24.3201 22.0729 24.0783 22.4438 23.9727C22.8146 23.867 23.2116 23.9052 23.5555 24.0797C23.7137 24.1468 23.8837 24.1814 24.0555 24.1814C24.2273 24.1814 24.3973 24.1468 24.5555 24.0797C24.8993 23.9052 25.2964 23.867 25.6672 23.9727C26.038 24.0783 26.3553 24.3201 26.5555 24.6497C26.9755 25.4997 26.8355 27.6397 24.0555 28.5197Z" stroke="black" stroke-width="0.8" stroke-linecap="round" stroke-linejoin="round"/>
<path d="M22.416 22.25C22.416 22.4478 22.3574 22.6411 22.2475 22.8056C22.1376 22.97 21.9814 23.0982 21.7987 23.1739C21.616 23.2496 21.4149 23.2694 21.2209 23.2308C21.0269 23.1922 20.8488 23.097 20.7089 22.9571C20.5691 22.8173 20.4738 22.6391 20.4352 22.4451C20.3966 22.2511 20.4165 22.05 20.4921 21.8673C20.5678 21.6846 20.696 21.5284 20.8604 21.4185C21.0249 21.3086 21.2182 21.25 21.416 21.25C21.6812 21.25 21.9356 21.3554 22.1231 21.5429C22.3107 21.7304 22.416 21.9848 22.416 22.25Z" fill="black"/>
<path d="M21.5457 21.9196C21.4858 21.8604 21.405 21.8271 21.3207 21.8271C21.2365 21.8271 21.1557 21.8604 21.0957 21.9196C21.026 21.9664 20.9774 22.0388 20.9606 22.1212C20.9438 22.2035 20.96 22.2891 21.0057 22.3596C21.1157 22.4796 21.2157 22.3596 21.3657 22.2396C21.5157 22.1196 21.6457 22.0196 21.5457 21.8996" fill="white"/>
<path d="M27.7461 22.25C27.7461 22.4478 27.6874 22.6411 27.5776 22.8056C27.4677 22.97 27.3115 23.0982 27.1288 23.1739C26.946 23.2496 26.745 23.2694 26.551 23.2308C26.357 23.1922 26.1788 23.097 26.039 22.9571C25.8991 22.8173 25.8039 22.6391 25.7653 22.4451C25.7267 22.2511 25.7465 22.05 25.8222 21.8673C25.8979 21.6846 26.0261 21.5284 26.1905 21.4185C26.355 21.3086 26.5483 21.25 26.7461 21.25C27.0113 21.25 27.2657 21.3554 27.4532 21.5429C27.6407 21.7304 27.7461 21.9848 27.7461 22.25Z" fill="black"/>
<path d="M26.8758 21.9196C26.8159 21.8604 26.7351 21.8271 26.6508 21.8271C26.5666 21.8271 26.4857 21.8604 26.4258 21.9196C26.3561 21.9664 26.3075 22.0388 26.2907 22.1212C26.2738 22.2035 26.29 22.2891 26.3358 22.3596C26.4458 22.4796 26.5458 22.3596 26.6958 22.2396C26.8458 22.1196 26.9758 22.0196 26.8758 21.8996" fill="white"/>
<path d="M19.5464 23.8403C18.3764 24.0526 17.3162 24.664 16.5464 25.5703C16.3441 25.7942 16.1993 26.064 16.1245 26.3563C16.0496 26.6487 16.0471 26.9549 16.117 27.2484C16.187 27.542 16.3273 27.8141 16.5259 28.0414C16.7245 28.2686 16.9754 28.4441 17.2569 28.5527C17.5385 28.6613 17.8422 28.6998 18.142 28.6649C18.4417 28.6299 18.7284 28.5225 18.9774 28.352C19.2264 28.1815 19.4302 27.9529 19.5711 27.6861C19.712 27.4192 19.7859 27.1221 19.7864 26.8203C19.9231 25.8153 19.8447 24.7927 19.5564 23.8203" fill="#E0F7FF"/>
<path d="M19.5464 23.8398C18.3764 24.0521 17.3162 24.6635 16.5464 25.5698C16.3441 25.7937 16.1993 26.0635 16.1245 26.3559C16.0496 26.6482 16.0471 26.9544 16.117 27.248C16.187 27.5415 16.3273 27.8137 16.5259 28.0409C16.7245 28.2681 16.9754 28.4436 17.2569 28.5522C17.5385 28.6609 17.8422 28.6994 18.142 28.6644C18.4417 28.6294 18.7284 28.522 18.9774 28.3515C19.2264 28.181 19.4302 27.9524 19.5711 27.6856C19.712 27.4188 19.7859 27.1216 19.7864 26.8198C19.917 25.8207 19.8352 24.8052 19.5464 23.8398Z" stroke="black" stroke-width="0.8" stroke-linecap="round" stroke-linejoin="round"/>
</svg>
